Trophy-Pro-Bd.ufo
<glyph name="exclam" format="1">
  <advance width="746"/>
  <unicode hex="0021"/>
  <outline>
    <contour>
      <point x="324" y="-58" type="qcurve" smooth="yes"/>
      <point x="246" y="-58"/>
      <point x="164" y="17"/>
      <point x="164" y="79" type="qcurve" smooth="yes"/>
      <point x="164" y="145"/>
      <point x="245" y="226"/>
      <point x="324" y="226" type="qcurve" smooth="yes"/>
      <point x="407" y="226"/>
      <point x="484" y="146"/>
      <point x="484" y="79" type="qcurve" smooth="yes"/>
      <point x="484" y="16"/>
      <point x="406" y="-58"/>
    </contour>
    <contour>
      <point x="445" y="447" type="qcurve"/>
      <point x="209" y="447" type="line"/>
      <point x="219" y="588"/>
      <point x="219" y="748" type="qcurve" smooth="yes"/>
      <point x="219" y="1155"/>
      <point x="168" y="1570" type="qcurve"/>
      <point x="482" y="1570" type="line"/>
      <point x="455" y="1318"/>
      <point x="439" y="1004" type="qcurve" smooth="yes"/>
      <point x="432" y="872"/>
      <point x="432" y="752" type="qcurve" smooth="yes"/>
      <point x="432" y="588"/>
    </contour>
  </outline>
</glyph>
<glyph name="quotedbl" format="1">
  <advance width="742"/>
  <unicode hex="0022"/>
  <outline>
    <contour>
      <point x="266" y="1108" type="line"/>
      <point x="168" y="1108" type="line"/>
      <point x="105" y="1473" type="line" smooth="yes"/>
      <point x="101" y="1493"/>
      <point x="101" y="1500" type="qcurve" smooth="yes"/>
      <point x="101" y="1527"/>
      <point x="153" y="1577"/>
      <point x="216" y="1577" type="qcurve" smooth="yes"/>
      <point x="279" y="1577"/>
      <point x="333" y="1528"/>
      <point x="333" y="1501" type="qcurve" smooth="yes"/>
      <point x="333" y="1496"/>
      <point x="329" y="1472" type="qcurve" smooth="yes"/>
    </contour>
    <contour>
      <point x="578" y="1108" type="line"/>
      <point x="480" y="1108" type="line"/>
      <point x="417" y="1473" type="line" smooth="yes"/>
      <point x="413" y="1493"/>
      <point x="413" y="1500" type="qcurve" smooth="yes"/>
      <point x="413" y="1527"/>
      <point x="465" y="1577"/>
      <point x="528" y="1577" type="qcurve" smooth="yes"/>
      <point x="591" y="1577"/>
      <point x="645" y="1528"/>
      <point x="645" y="1501" type="qcurve" smooth="yes"/>
      <point x="645" y="1496"/>
      <point x="641" y="1472" type="qcurve" smooth="yes"/>
    </contour>
  </outline>
</glyph>
<glyph name="numbersign" format="1">
  <advance width="1234"/>
  <unicode hex="0023"/>
  <outline>
    <contour>
      <point x="738" y="0" type="line"/>
      <point x="526" y="0" type="line"/>
      <point x="629" y="433" type="line"/>
      <point x="480" y="433" type="line"/>
      <point x="377" y="0" type="line"/>
      <point x="165" y="0" type="line"/>
      <point x="268" y="433" type="line"/>
      <point x="119" y="433" type="line"/>
      <point x="119" y="561" type="line"/>
      <point x="299" y="561" type="line"/>
      <point x="369" y="856" type="line"/>
      <point x="208" y="856" type="line"/>
      <point x="208" y="984" type="line"/>
      <point x="400" y="984" type="line"/>
      <point x="512" y="1454" type="line"/>
      <point x="724" y="1454" type="line"/>
      <point x="612" y="984" type="line"/>
      <point x="761" y="984" type="line"/>
      <point x="873" y="1454" type="line"/>
      <point x="1085" y="1454" type="line"/>
      <point x="973" y="984" type="line"/>
      <point x="1115" y="984" type="line"/>
      <point x="1115" y="856" type="line"/>
      <point x="942" y="856" type="line"/>
      <point x="872" y="561" type="line"/>
      <point x="1026" y="561" type="line"/>
      <point x="1026" y="433" type="line"/>
      <point x="841" y="433" type="line"/>
    </contour>
    <contour>
      <point x="664" y="561" type="line"/>
      <point x="730" y="856" type="line"/>
      <point x="581" y="856" type="line"/>
      <point x="511" y="561" type="line"/>
    </contour>
  </outline>
</glyph>
<glyph name="dollar" format="1">
  <advance width="1119"/>
  <unicode hex="0024"/>
  <outline>
    <contour>
      <point x="617" y="-192" type="line"/>
      <point x="471" y="-192" type="line"/>
      <point x="471" y="-22" type="line"/>
      <point x="383" y="-22"/>
      <point x="159" y="35"/>
      <point x="95" y="79" type="qcurve"/>
      <point x="95" y="370" type="line"/>
      <point x="148" y="364" type="line" smooth="yes"/>
      <point x="223" y="356"/>
      <point x="284" y="343"/>
      <point x="288" y="329" type="qcurve" smooth="yes"/>
      <point x="333" y="153" type="line"/>
      <point x="437" y="126"/>
      <point x="471" y="123" type="qcurve"/>
      <point x="471" y="721" type="line"/>
      <point x="376" y="760"/>
      <point x="217" y="861"/>
      <point x="119" y="1008"/>
      <point x="119" y="1116" type="qcurve" smooth="yes"/>
      <point x="119" y="1228"/>
      <point x="210" y="1381"/>
      <point x="369" y="1467"/>
      <point x="471" y="1477" type="qcurve"/>
      <point x="471" y="1608" type="line"/>
      <point x="617" y="1608" type="line"/>
      <point x="617" y="1484" type="line"/>
      <point x="586" y="1483" type="line"/>
      <point x="725" y="1483"/>
      <point x="922" y="1457" type="qcurve"/>
      <point x="922" y="1307"/>
      <point x="936" y="1129" type="qcurve"/>
      <point x="941" y="1048" type="line"/>
      <point x="878" y="1055" type="line" smooth="yes"/>
      <point x="805" y="1063"/>
      <point x="742" y="1076"/>
      <point x="740" y="1089" type="qcurve"/>
      <point x="691" y="1324" type="line"/>
      <point x="691" y="1329"/>
      <point x="694" y="1329" type="qcurve"/>
      <point x="701" y="1327" type="line"/>
      <point x="617" y="1337" type="line"/>
      <point x="617" y="869" type="line"/>
      <point x="813" y="790"/>
      <point x="1008" y="579"/>
      <point x="1008" y="419" type="qcurve" smooth="yes"/>
      <point x="1008" y="417" type="line"/>
      <point x="1007" y="417" type="line"/>
      <point x="1007" y="412" type="line" smooth="yes"/>
      <point x="1007" y="250"/>
      <point x="806" y="11"/>
      <point x="617" y="-14" type="qcurve"/>
    </contour>
    <contour>
      <point x="471" y="941" type="qcurve"/>
      <point x="471" y="1327" type="line"/>
      <point x="424" y="1320"/>
      <point x="347" y="1220"/>
      <point x="344" y="1120" type="qcurve"/>
      <point x="344" y="1065"/>
      <point x="393" y="991"/>
      <point x="452" y="949"/>
    </contour>
    <contour>
      <point x="617" y="130" type="line"/>
      <point x="582" y="130" type="line"/>
      <point x="655" y="150"/>
      <point x="745" y="301"/>
      <point x="745" y="402" type="qcurve" smooth="yes"/>
      <point x="745" y="504"/>
      <point x="677" y="629"/>
      <point x="617" y="656" type="qcurve"/>
    </contour>
  </outline>
</glyph>
<glyph name="percent" format="1">
  <advance width="1680"/>
  <unicode hex="0025"/>
  <outline>
    <contour>
      <point x="484" y="1459" type="qcurve" smooth="yes"/>
      <point x="598" y="1459"/>
      <point x="803" y="1350"/>
      <point x="906" y="1172"/>
      <point x="906" y="1080" type="qcurve" smooth="yes"/>
      <point x="906" y="989"/>
      <point x="807" y="813"/>
      <point x="602" y="701"/>
      <point x="484" y="701" type="qcurve" smooth="yes"/>
      <point x="367" y="701"/>
      <point x="162" y="813"/>
      <point x="62" y="989"/>
      <point x="62" y="1080" type="qcurve" smooth="yes"/>
      <point x="62" y="1172"/>
      <point x="165" y="1350"/>
      <point x="370" y="1459"/>
    </contour>
    <contour>
      <point x="276" y="1061" type="qcurve"/>
      <point x="290" y="964"/>
      <point x="376" y="799"/>
      <point x="436" y="759" type="qcurve"/>
      <point x="480" y="728"/>
      <point x="517" y="728" type="qcurve"/>
      <point x="518" y="728"/>
      <point x="523" y="729" type="qcurve"/>
      <point x="568" y="731"/>
      <point x="660" y="820"/>
      <point x="682" y="910" type="qcurve" smooth="yes"/>
      <point x="696" y="968"/>
      <point x="696" y="1029" type="qcurve" smooth="yes"/>
      <point x="696" y="1063"/>
      <point x="692" y="1098" type="qcurve" smooth="yes"/>
      <point x="679" y="1196"/>
      <point x="590" y="1364"/>
      <point x="531" y="1403" type="qcurve" smooth="yes"/>
      <point x="487" y="1432"/>
      <point x="449" y="1432" type="qcurve" smooth="yes"/>
      <point x="440" y="1432" type="line"/>
      <point x="402" y="1430"/>
      <point x="310" y="1343"/>
      <point x="288" y="1253" type="qcurve" smooth="yes"/>
      <point x="272" y="1191"/>
      <point x="272" y="1128" type="qcurve" smooth="yes"/>
      <point x="272" y="1095"/>
    </contour>
    <contour>
      <point x="303" y="-29" type="line"/>
      <point x="1243" y="1432" type="line"/>
      <point x="1385" y="1432" type="line"/>
      <point x="447" y="-29" type="line"/>
    </contour>
    <contour>
      <point x="1196" y="738" type="qcurve" smooth="yes"/>
      <point x="1309" y="738"/>
      <point x="1515" y="628"/>
      <point x="1618" y="450"/>
      <point x="1618" y="359" type="qcurve" smooth="yes"/>
      <point x="1618" y="267"/>
      <point x="1519" y="91"/>
      <point x="1314" y="-20"/>
      <point x="1196" y="-20" type="qcurve" smooth="yes"/>
      <point x="1078" y="-20"/>
      <point x="874" y="91"/>
      <point x="774" y="267"/>
      <point x="774" y="359" type="qcurve" smooth="yes"/>
      <point x="774" y="450"/>
      <point x="877" y="628"/>
      <point x="1081" y="738"/>
    </contour>
    <contour>
      <point x="988" y="339" type="qcurve"/>
      <point x="1002" y="242"/>
      <point x="1088" y="77"/>
      <point x="1148" y="37" type="qcurve" smooth="yes"/>
      <point x="1193" y="7"/>
      <point x="1231" y="7" type="qcurve" smooth="yes"/>
      <point x="1240" y="7" type="line"/>
      <point x="1280" y="9"/>
      <point x="1372" y="98"/>
      <point x="1394" y="188" type="qcurve" smooth="yes"/>
      <point x="1408" y="246"/>
      <point x="1408" y="307" type="qcurve" smooth="yes"/>
      <point x="1408" y="341"/>
      <point x="1404" y="376" type="qcurve" smooth="yes"/>
      <point x="1391" y="474"/>
      <point x="1302" y="642"/>
      <point x="1243" y="681" type="qcurve" smooth="yes"/>
      <point x="1199" y="710"/>
      <point x="1161" y="710" type="qcurve" smooth="yes"/>
      <point x="1152" y="710" type="line"/>
      <point x="1114" y="708"/>
      <point x="1022" y="621"/>
      <point x="1000" y="531" type="qcurve" smooth="yes"/>
      <point x="984" y="469"/>
      <point x="984" y="406" type="qcurve" smooth="yes"/>
      <point x="984" y="373"/>
    </contour>
  </outline>
</glyph>
<glyph name="ampersand" format="1">
  <advance width="1536"/>
  <unicode hex="0026"/>
  <outline>
    <contour>
      <point x="556" y="-20" type="qcurve"/>
      <point x="543" y="-20" type="line" smooth="yes"/>
      <point x="406" y="-20"/>
      <point x="189" y="78"/>
      <point x="64" y="265"/>
      <point x="64" y="398" type="qcurve" smooth="yes"/>
      <point x="64" y="492"/>
      <point x="162" y="645"/>
      <point x="314" y="767"/>
      <point x="398" y="812" type="qcurve"/>
      <point x="407" y="818" type="line"/>
      <point x="377" y="860"/>
      <point x="310" y="936"/>
      <point x="252" y="1015"/>
      <point x="215" y="1112"/>
      <point x="215" y="1177" type="qcurve" smooth="yes"/>
      <point x="215" y="1263"/>
      <point x="307" y="1403"/>
      <point x="485" y="1486"/>
      <point x="615" y="1486" type="qcurve" smooth="yes"/>
      <point x="782" y="1486"/>
      <point x="995" y="1323"/>
      <point x="995" y="1190" type="qcurve" smooth="yes"/>
      <point x="995" y="1106"/>
      <point x="916" y="963"/>
      <point x="778" y="848"/>
      <point x="688" y="806" type="qcurve"/>
      <point x="742" y="744"/>
      <point x="921" y="555" type="qcurve" smooth="yes"/>
      <point x="1023" y="447" type="line"/>
      <point x="1043" y="484"/>
      <point x="1083" y="652"/>
      <point x="1083" y="764" type="qcurve"/>
      <point x="1433" y="764" type="line"/>
      <point x="1425" y="682" type="line"/>
      <point x="1421" y="678" type="line" smooth="yes"/>
      <point x="1416" y="674"/>
      <point x="1398" y="667"/>
      <point x="1384" y="665" type="qcurve" smooth="yes"/>
      <point x="1278" y="652" type="line"/>
      <point x="1286" y="654" type="line"/>
      <point x="1290" y="654"/>
      <point x="1290" y="648" type="qcurve"/>
      <point x="1271" y="449"/>
      <point x="1170" y="292" type="qcurve"/>
      <point x="1260" y="198"/>
      <point x="1307" y="144" type="qcurve"/>
      <point x="1305" y="146"/>
      <point x="1298" y="148" type="qcurve"/>
      <point x="1410" y="132" type="line" smooth="yes"/>
      <point x="1430" y="129"/>
      <point x="1450" y="118"/>
      <point x="1450" y="117" type="qcurve"/>
      <point x="1462" y="-6" type="line"/>
      <point x="1276" y="10"/>
      <point x="1159" y="10" type="qcurve"/>
      <point x="1053" y="96"/>
      <point x="1029" y="126" type="qcurve"/>
      <point x="1023" y="132" type="line"/>
      <point x="950" y="68"/>
      <point x="695" y="-16"/>
    </contour>
    <contour>
      <point x="588" y="130" type="qcurve" smooth="yes"/>
      <point x="673" y="130"/>
      <point x="828" y="196"/>
      <point x="902" y="263" type="qcurve"/>
      <point x="837" y="332" type="line" smooth="yes"/>
      <point x="639" y="541"/>
      <point x="501" y="700" type="qcurve"/>
      <point x="455" y="673"/>
      <point x="410" y="614" type="qcurve" smooth="yes"/>
      <point x="346" y="530"/>
      <point x="346" y="421" type="qcurve" smooth="yes"/>
      <point x="346" y="338"/>
      <point x="396" y="206"/>
      <point x="502" y="130"/>
    </contour>
    <contour>
      <point x="599" y="907" type="line"/>
      <point x="647" y="935"/>
      <point x="725" y="1007"/>
      <point x="773" y="1104"/>
      <point x="773" y="1171" type="qcurve" smooth="yes"/>
      <point x="773" y="1217"/>
      <point x="745" y="1313"/>
      <point x="672" y="1378"/>
      <point x="606" y="1378" type="qcurve" smooth="yes"/>
      <point x="561" y="1378"/>
      <point x="497" y="1317"/>
      <point x="463" y="1224"/>
      <point x="463" y="1174" type="qcurve" smooth="yes"/>
      <point x="463" y="1071"/>
      <point x="589" y="920" type="qcurve" smooth="yes"/>
    </contour>
  </outline>
</glyph>
<glyph name="quotesingle" format="1">
  <advance width="416"/>
  <unicode hex="0027"/>
  <outline>
    <contour>
      <point x="266" y="1108" type="line"/>
      <point x="168" y="1108" type="line"/>
      <point x="105" y="1473" type="line" smooth="yes"/>
      <point x="101" y="1493"/>
      <point x="101" y="1500" type="qcurve" smooth="yes"/>
      <point x="101" y="1527"/>
      <point x="153" y="1577"/>
      <point x="216" y="1577" type="qcurve" smooth="yes"/>
      <point x="279" y="1577"/>
      <point x="333" y="1528"/>
      <point x="333" y="1501" type="qcurve" smooth="yes"/>
      <point x="333" y="1496"/>
      <point x="329" y="1472" type="qcurve" smooth="yes"/>
    </contour>
  </outline>
</glyph>
<glyph name="parenleft" format="1">
  <advance width="720"/>
  <unicode hex="0028"/>
  <outline>
    <contour>
      <point x="497" y="-453" type="line"/>
      <point x="345" y="-309"/>
      <point x="164" y="83"/>
      <point x="86" y="495"/>
      <point x="86" y="661" type="qcurve" smooth="yes"/>
      <point x="86" y="818"/>
      <point x="170" y="1218"/>
      <point x="352" y="1598"/>
      <point x="497" y="1736" type="qcurve"/>
      <point x="578" y="1587" type="line"/>
      <point x="542" y="1562"/>
      <point x="452" y="1414"/>
      <point x="415" y="1271" type="qcurve"/>
      <point x="373" y="1095"/>
      <point x="349" y="757"/>
      <point x="349" y="622" type="qcurve" smooth="yes"/>
      <point x="349" y="505"/>
      <point x="378" y="167"/>
      <point x="415" y="11" type="qcurve"/>
      <point x="452" y="-132"/>
      <point x="540" y="-278"/>
      <point x="572" y="-299" type="qcurve"/>
    </contour>
  </outline>
</glyph>
<glyph name="parenright" format="1">
  <advance width="724"/>
  <unicode hex="0029"/>
  <outline>
    <contour>
      <point x="121" y="-453" type="qcurve"/>
      <point x="67" y="-299" type="line"/>
      <point x="74" y="-288" type="line"/>
      <point x="150" y="-188"/>
      <point x="203" y="11" type="qcurve"/>
      <point x="239" y="167"/>
      <point x="269" y="505"/>
      <point x="269" y="622" type="qcurve" smooth="yes"/>
      <point x="269" y="757"/>
      <point x="244" y="1095"/>
      <point x="203" y="1271" type="qcurve"/>
      <point x="166" y="1414"/>
      <point x="76" y="1562"/>
      <point x="39" y="1587" type="qcurve"/>
      <point x="121" y="1736" type="line"/>
      <point x="266" y="1598"/>
      <point x="447" y="1218"/>
      <point x="532" y="818"/>
      <point x="532" y="661" type="qcurve" smooth="yes"/>
      <point x="532" y="495"/>
      <point x="454" y="83"/>
      <point x="273" y="-309"/>
    </contour>
  </outline>
</glyph>
<glyph name="asterisk" format="1">
  <advance width="1094"/>
  <unicode hex="002A"/>
  <outline>
    <contour>
      <point x="497" y="1314" type="qcurve"/>
      <point x="494" y="1374"/>
      <point x="458" y="1437" type="qcurve" smooth="yes"/>
      <point x="424" y="1498"/>
      <point x="424" y="1508" type="qcurve" smooth="yes"/>
      <point x="424" y="1530"/>
      <point x="484" y="1579"/>
      <point x="545" y="1579" type="qcurve" smooth="yes"/>
      <point x="603" y="1579"/>
      <point x="666" y="1533"/>
      <point x="666" y="1514" type="qcurve" smooth="yes"/>
      <point x="666" y="1501"/>
      <point x="633" y="1438" type="qcurve"/>
      <point x="597" y="1373"/>
      <point x="594" y="1313" type="qcurve"/>
      <point x="591" y="1312"/>
      <point x="634" y="1357" type="qcurve"/>
      <point x="690" y="1418"/>
      <point x="721" y="1428" type="qcurve" smooth="yes"/>
      <point x="742" y="1434"/>
      <point x="761" y="1434" type="qcurve" smooth="yes"/>
      <point x="797" y="1434"/>
      <point x="828" y="1416" type="qcurve"/>
      <point x="859" y="1395"/>
      <point x="870" y="1361" type="qcurve" smooth="yes"/>
      <point x="875" y="1347"/>
      <point x="875" y="1335" type="qcurve" smooth="yes"/>
      <point x="875" y="1325"/>
      <point x="872" y="1317" type="qcurve" smooth="yes"/>
      <point x="862" y="1284"/>
      <point x="818" y="1272" type="qcurve"/>
      <point x="803" y="1267"/>
      <point x="779" y="1267" type="qcurve" smooth="yes"/>
      <point x="748" y="1267"/>
      <point x="691" y="1277" type="qcurve" smooth="yes"/>
      <point x="669" y="1281"/>
      <point x="648" y="1281" type="qcurve" smooth="yes"/>
      <point x="616" y="1281"/>
      <point x="591" y="1274" type="qcurve"/>
      <point x="646" y="1206"/>
      <point x="699" y="1181" type="qcurve" smooth="yes"/>
      <point x="775" y="1145"/>
      <point x="789" y="1127" type="qcurve" smooth="yes"/>
      <point x="799" y="1113"/>
      <point x="799" y="1102" type="qcurve" smooth="yes"/>
      <point x="799" y="1097"/>
      <point x="798" y="1093" type="qcurve" smooth="yes"/>
      <point x="791" y="1067"/>
      <point x="757" y="1042" type="qcurve" smooth="yes"/>
      <point x="715" y="1010"/>
      <point x="664" y="1010" type="qcurve" smooth="yes"/>
      <point x="628" y="1010"/>
      <point x="628" y="1011" type="qcurve"/>
      <point x="604" y="1011"/>
      <point x="577" y="1047" type="qcurve"/>
      <point x="567" y="1062"/>
      <point x="558" y="1133" type="qcurve"/>
      <point x="547" y="1205"/>
      <point x="545" y="1208" type="qcurve"/>
      <point x="544" y="1205"/>
      <point x="535" y="1133" type="qcurve" smooth="yes"/>
      <point x="527" y="1065"/>
      <point x="518" y="1052" type="qcurve" smooth="yes"/>
      <point x="490" y="1016"/>
      <point x="433" y="1012" type="qcurve"/>
      <point x="426" y="1012" type="line" smooth="yes"/>
      <point x="377" y="1012"/>
      <point x="335" y="1043" type="qcurve" smooth="yes"/>
      <point x="302" y="1066"/>
      <point x="293" y="1094" type="qcurve" smooth="yes"/>
      <point x="291" y="1100"/>
      <point x="291" y="1104" type="qcurve" smooth="yes"/>
      <point x="291" y="1112"/>
      <point x="299" y="1123" type="qcurve" smooth="yes"/>
      <point x="315" y="1143"/>
      <point x="393" y="1181" type="qcurve" smooth="yes"/>
      <point x="446" y="1207"/>
      <point x="501" y="1273" type="qcurve"/>
      <point x="475" y="1280"/>
      <point x="445" y="1280" type="qcurve" smooth="yes"/>
      <point x="425" y="1280"/>
      <point x="405" y="1276" type="qcurve" smooth="yes"/>
      <point x="345" y="1264"/>
      <point x="314" y="1264" type="qcurve" smooth="yes"/>
      <point x="292" y="1264"/>
      <point x="278" y="1270" type="qcurve"/>
      <point x="234" y="1283"/>
      <point x="222" y="1316" type="qcurve"/>
      <point x="218" y="1324"/>
      <point x="218" y="1333" type="qcurve" smooth="yes"/>
      <point x="218" y="1345"/>
      <point x="223" y="1359" type="qcurve" smooth="yes"/>
      <point x="233" y="1392"/>
      <point x="261" y="1412" type="qcurve" smooth="yes"/>
      <point x="292" y="1434"/>
      <point x="329" y="1434" type="qcurve" smooth="yes"/>
      <point x="349" y="1434"/>
      <point x="367" y="1428" type="qcurve" smooth="yes"/>
      <point x="398" y="1419"/>
      <point x="458" y="1356" type="qcurve" smooth="yes"/>
      <point x="501" y="1312"/>
    </contour>
  </outline>
</glyph>
<glyph name="plus" format="1">
  <advance width="1084"/>
  <unicode hex="002B"/>
  <outline>
    <contour>
      <point x="437" y="647" type="line"/>
      <point x="87" y="647" type="line"/>
      <point x="87" y="827" type="line"/>
      <point x="437" y="827" type="line"/>
      <point x="437" y="1146" type="line"/>
      <point x="448" y="1157" type="line"/>
      <point x="647" y="1157" type="line"/>
      <point x="647" y="827" type="line"/>
      <point x="986" y="827" type="line"/>
      <point x="997" y="816" type="line"/>
      <point x="997" y="647" type="line"/>
      <point x="647" y="647" type="line"/>
      <point x="647" y="277" type="line"/>
      <point x="437" y="277" type="line"/>
    </contour>
  </outline>
</glyph>
<glyph name="comma" format="1">
  <advance width="514"/>
  <unicode hex="002C"/>
  <outline>
    <contour>
      <point x="225" y="-216" type="qcurve" smooth="yes"/>
      <point x="138" y="-216" type="line"/>
      <point x="196" y="-20" type="line"/>
      <point x="156" y="-12"/>
      <point x="104" y="51"/>
      <point x="104" y="98" type="qcurve" smooth="yes"/>
      <point x="104" y="149"/>
      <point x="188" y="216"/>
      <point x="258" y="216" type="qcurve" smooth="yes"/>
      <point x="326" y="216"/>
      <point x="414" y="149"/>
      <point x="414" y="98" type="qcurve" smooth="yes"/>
      <point x="414" y="78"/>
      <point x="410" y="63" type="qcurve"/>
      <point x="398" y="3"/>
      <point x="331" y="-133"/>
      <point x="298" y="-190" type="qcurve" smooth="yes"/>
      <point x="288" y="-209"/>
      <point x="260" y="-213" type="qcurve" smooth="yes"/>
      <point x="237" y="-216"/>
    </contour>
  </outline>
</glyph>
<glyph name="hyphen" format="1">
  <advance width="740"/>
  <unicode hex="002D"/>
  <unicode hex="00AD"/>
  <outline>
    <contour>
      <point x="191" y="409" type="line" smooth="yes"/>
      <point x="116" y="409"/>
      <point x="116" y="437" type="qcurve" smooth="yes"/>
      <point x="116" y="520" type="line" smooth="yes"/>
      <point x="116" y="549"/>
      <point x="192" y="549" type="qcurve" smooth="yes"/>
      <point x="548" y="549" type="line" smooth="yes"/>
      <point x="624" y="549"/>
      <point x="624" y="520" type="qcurve" smooth="yes"/>
      <point x="624" y="437" type="line" smooth="yes"/>
      <point x="624" y="409"/>
      <point x="549" y="409" type="qcurve" smooth="yes"/>
    </contour>
  </outline>
</glyph>
<glyph name="period" format="1">
  <advance width="409"/>
  <unicode hex="002E"/>
  <outline>
    <contour>
      <point x="198" y="-20" type="qcurve" smooth="yes"/>
      <point x="128" y="-20"/>
      <point x="44" y="50"/>
      <point x="44" y="106" type="qcurve" smooth="yes"/>
      <point x="44" y="158"/>
      <point x="128" y="225"/>
      <point x="198" y="225" type="qcurve" smooth="yes"/>
      <point x="266" y="225"/>
      <point x="354" y="158"/>
      <point x="354" y="106" type="qcurve" smooth="yes"/>
      <point x="354" y="50"/>
      <point x="267" y="-20"/>
    </contour>
  </outline>
</glyph>
<glyph name="slash" format="1">
  <advance width="750"/>
  <unicode hex="002F"/>
  <outline>
    <contour>
      <point x="189" y="-50" type="line"/>
      <point x="-27" y="-50" type="line"/>
      <point x="514" y="1434" type="line"/>
      <point x="730" y="1434" type="line"/>
    </contour>
  </outline>
</glyph>
<glyph name="zero" format="1">
  <advance width="1377"/>
  <unicode hex="0030"/>
  <outline>
    <contour>
      <point x="686" y="118" type="qcurve" smooth="yes"/>
      <point x="788" y="118"/>
      <point x="910" y="263"/>
      <point x="963" y="538"/>
      <point x="963" y="732" type="qcurve" smooth="yes"/>
      <point x="963" y="1339"/>
      <point x="686" y="1339" type="qcurve" smooth="yes"/>
      <point x="540" y="1339"/>
      <point x="394" y="1030"/>
      <point x="394" y="732" type="qcurve" smooth="yes"/>
      <point x="394" y="436"/>
      <point x="531" y="118"/>
    </contour>
    <contour>
      <point x="686" y="-20" type="qcurve" smooth="yes"/>
      <point x="389" y="-20"/>
      <point x="119" y="351"/>
      <point x="119" y="732" type="qcurve" smooth="yes"/>
      <point x="119" y="1109"/>
      <point x="389" y="1478"/>
      <point x="686" y="1478" type="qcurve" smooth="yes"/>
      <point x="883" y="1478"/>
      <point x="1127" y="1314"/>
      <point x="1239" y="983"/>
      <point x="1239" y="732" type="qcurve" smooth="yes"/>
      <point x="1239" y="478"/>
      <point x="1127" y="144"/>
      <point x="883" y="-20"/>
    </contour>
  </outline>
</glyph>
<glyph name="one" format="1">
  <advance width="712"/>
  <unicode hex="0031"/>
  <outline>
    <contour>
      <point x="637" y="-20" type="line"/>
      <point x="477" y="-8"/>
      <point x="365" y="-6" type="qcurve"/>
      <point x="244" y="-8"/>
      <point x="84" y="-20" type="qcurve"/>
      <point x="95" y="92" type="line"/>
      <point x="99" y="96" type="line" smooth="yes"/>
      <point x="103" y="99"/>
      <point x="112" y="103" type="qcurve" smooth="yes"/>
      <point x="117" y="105"/>
      <point x="254" y="121" type="qcurve"/>
      <point x="258" y="121" type="line"/>
      <point x="255" y="121"/>
      <point x="253" y="120" type="qcurve"/>
      <point x="240" y="120"/>
      <point x="236" y="123"/>
      <point x="236" y="130" type="qcurve" smooth="yes"/>
      <point x="236" y="1199" type="line"/>
      <point x="60" y="1199" type="line"/>
      <point x="70" y="1299" type="line"/>
      <point x="70" y="1302"/>
      <point x="92" y="1315"/>
      <point x="114" y="1318" type="qcurve" smooth="yes"/>
      <point x="226" y="1335" type="line"/>
      <point x="220" y="1335" type="line"/>
      <point x="219" y="1335"/>
      <point x="219" y="1338" type="qcurve"/>
      <point x="220" y="1350" type="line"/>
      <point x="236" y="1449" type="line"/>
      <point x="490" y="1449" type="line"/>
      <point x="490" y="113" type="line"/>
      <point x="480" y="118" type="line"/>
      <point x="479" y="118" type="line"/>
      <point x="481" y="119" type="line"/>
      <point x="528" y="114" type="line" smooth="yes"/>
      <point x="599" y="106"/>
      <point x="618" y="99"/>
      <point x="622" y="96" type="qcurve" smooth="yes"/>
      <point x="626" y="92" type="line"/>
    </contour>
  </outline>
</glyph>
<glyph name="two" format="1">
  <advance width="1128"/>
  <unicode hex="0032"/>
  <outline>
    <contour>
      <point x="1037" y="0" type="line"/>
      <point x="19" y="0" type="line"/>
      <point x="29" y="157" type="line"/>
      <point x="52" y="179" type="line" smooth="yes"/>
      <point x="290" y="397"/>
      <point x="500" y="649" type="qcurve" smooth="yes"/>
      <point x="729" y="925"/>
      <point x="729" y="1122" type="qcurve" smooth="yes"/>
      <point x="729" y="1221"/>
      <point x="607" y="1338"/>
      <point x="514" y="1338" type="qcurve" smooth="yes"/>
      <point x="411" y="1338"/>
      <point x="279" y="1211"/>
      <point x="276" y="1109" type="qcurve"/>
      <point x="273" y="1107" type="line" smooth="yes"/>
      <point x="270" y="1105"/>
      <point x="249" y="1097"/>
      <point x="232" y="1095" type="qcurve" smooth="yes"/>
      <point x="125" y="1083" type="line"/>
      <point x="123" y="1083"/>
      <point x="109" y="1152"/>
      <point x="96" y="1254"/>
      <point x="96" y="1302" type="qcurve" smooth="yes"/>
      <point x="96" y="1321" type="line"/>
      <point x="122" y="1348"/>
      <point x="233" y="1421"/>
      <point x="398" y="1478"/>
      <point x="502" y="1478" type="qcurve" smooth="yes"/>
      <point x="647" y="1478"/>
      <point x="873" y="1399"/>
      <point x="1002" y="1239"/>
      <point x="1002" y="1116" type="qcurve" smooth="yes"/>
      <point x="1002" y="1016"/>
      <point x="926" y="857"/>
      <point x="857" y="763" type="qcurve"/>
      <point x="761" y="628"/>
      <point x="543" y="389"/>
      <point x="424" y="269" type="qcurve"/>
      <point x="333" y="175" type="line"/>
      <point x="333" y="143" type="line"/>
      <point x="767" y="155" type="line"/>
      <point x="763" y="154" type="line"/>
      <point x="762" y="154"/>
      <point x="762" y="156" type="qcurve"/>
      <point x="763" y="164"/>
      <point x="833" y="390" type="qcurve"/>
      <point x="834" y="404"/>
      <point x="906" y="418"/>
      <point x="989" y="427" type="qcurve" smooth="yes"/>
      <point x="1037" y="432" type="line"/>
    </contour>
  </outline>
</glyph>
<glyph name="three" format="1">
  <advance width="1136"/>
  <unicode hex="0033"/>
  <outline>
    <contour>
      <point x="511" y="-20" type="qcurve" smooth="yes"/>
      <point x="430" y="-20"/>
      <point x="300" y="5"/>
      <point x="196" y="42"/>
      <point x="112" y="77"/>
      <point x="77" y="89" type="qcurve"/>
      <point x="78" y="135" type="line"/>
      <point x="77" y="223"/>
      <point x="77" y="441" type="qcurve"/>
      <point x="245" y="424" type="line"/>
      <point x="266" y="421"/>
      <point x="279" y="415" type="qcurve" smooth="yes"/>
      <point x="291" y="409" type="line"/>
      <point x="291" y="384" type="line" smooth="yes"/>
      <point x="291" y="344"/>
      <point x="296" y="298" type="qcurve" smooth="yes"/>
      <point x="316" y="112"/>
      <point x="514" y="112" type="qcurve" smooth="yes"/>
      <point x="630" y="112"/>
      <point x="787" y="293"/>
      <point x="787" y="423" type="qcurve" smooth="yes"/>
      <point x="787" y="522"/>
      <point x="717" y="637"/>
      <point x="609" y="693"/>
      <point x="492" y="709"/>
      <point x="444" y="709" type="qcurve"/>
      <point x="389" y="708" type="line"/>
      <point x="389" y="881" type="line"/>
      <point x="426" y="881" type="line" smooth="yes"/>
      <point x="466" y="881"/>
      <point x="568" y="892"/>
      <point x="662" y="937"/>
      <point x="724" y="1031"/>
      <point x="724" y="1113" type="qcurve" smooth="yes"/>
      <point x="724" y="1213"/>
      <point x="662" y="1314"/>
      <point x="555" y="1349"/>
      <point x="488" y="1349" type="qcurve" smooth="yes"/>
      <point x="403" y="1349"/>
      <point x="348" y="1273" type="qcurve" smooth="yes"/>
      <point x="312" y="1224"/>
      <point x="281" y="1139" type="qcurve" smooth="yes"/>
      <point x="272" y="1112"/>
      <point x="257" y="1080"/>
      <point x="249" y="1080" type="qcurve"/>
      <point x="258" y="1080" type="line" smooth="yes"/>
      <point x="270" y="1080"/>
      <point x="270" y="1077" type="qcurve" smooth="yes"/>
      <point x="270" y="1071"/>
      <point x="238" y="1066" type="qcurve"/>
      <point x="87" y="1051" type="line"/>
      <point x="87" y="1374" type="line"/>
      <point x="120" y="1385"/>
      <point x="196" y="1419"/>
      <point x="292" y="1455"/>
      <point x="413" y="1479"/>
      <point x="489" y="1479" type="qcurve" smooth="yes"/>
      <point x="646" y="1479"/>
      <point x="871" y="1400"/>
      <point x="991" y="1237"/>
      <point x="991" y="1111" type="qcurve" smooth="yes"/>
      <point x="991" y="1033"/>
      <point x="902" y="903"/>
      <point x="775" y="825"/>
      <point x="718" y="825" type="qcurve"/>
      <point x="753" y="803" type="line"/>
      <point x="814" y="803"/>
      <point x="954" y="698"/>
      <point x="1053" y="533"/>
      <point x="1053" y="441" type="qcurve" smooth="yes"/>
      <point x="1053" y="243"/>
      <point x="938" y="122" type="qcurve" smooth="yes"/>
      <point x="803" y="-20"/>
    </contour>
  </outline>
</glyph>
<glyph name="four" format="1">
  <advance width="1178"/>
  <unicode hex="0034"/>
  <outline>
    <contour>
      <point x="1030" y="-20" type="line"/>
      <point x="850" y="-7"/>
      <point x="758" y="-6" type="qcurve"/>
      <point x="666" y="-7"/>
      <point x="487" y="-20" type="qcurve"/>
      <point x="497" y="92" type="line"/>
      <point x="501" y="95" type="line" smooth="yes"/>
      <point x="506" y="98"/>
      <point x="524" y="105"/>
      <point x="538" y="107" type="qcurve" smooth="yes"/>
      <point x="645" y="119" type="line"/>
      <point x="641" y="119"/>
      <point x="639" y="126"/>
      <point x="639" y="390" type="qcurve"/>
      <point x="19" y="390" type="line"/>
      <point x="19" y="490" type="line"/>
      <point x="636" y="1517" type="line"/>
      <point x="815" y="1408" type="line"/>
      <point x="297" y="534" type="line"/>
      <point x="639" y="534" type="line"/>
      <point x="639" y="981" type="line"/>
      <point x="883" y="981" type="line"/>
      <point x="883" y="534" type="line"/>
      <point x="1085" y="534" type="line"/>
      <point x="1085" y="390" type="line"/>
      <point x="883" y="390" type="line"/>
      <point x="883" y="116" type="line"/>
      <point x="870" y="120" type="line"/>
      <point x="978" y="107" type="line" smooth="yes"/>
      <point x="992" y="105"/>
      <point x="1011" y="98"/>
      <point x="1015" y="95" type="qcurve" smooth="yes"/>
      <point x="1019" y="92" type="line"/>
    </contour>
  </outline>
</glyph>
<glyph name="five" format="1">
  <advance width="1125"/>
  <unicode hex="0035"/>
  <outline>
    <contour>
      <point x="496" y="-20" type="qcurve" smooth="yes"/>
      <point x="414" y="-20"/>
      <point x="283" y="5"/>
      <point x="179" y="42"/>
      <point x="95" y="78"/>
      <point x="59" y="90" type="qcurve"/>
      <point x="59" y="440" type="line"/>
      <point x="228" y="424" type="line"/>
      <point x="241" y="422"/>
      <point x="251" y="419" type="qcurve"/>
      <point x="272" y="409" type="line"/>
      <point x="272" y="349"/>
      <point x="282" y="254"/>
      <point x="304" y="211" type="qcurve" smooth="yes"/>
      <point x="353" y="112"/>
      <point x="499" y="112" type="qcurve" smooth="yes"/>
      <point x="775" y="112"/>
      <point x="775" y="463" type="qcurve" smooth="yes"/>
      <point x="775" y="690"/>
      <point x="627" y="763" type="qcurve" smooth="yes"/>
      <point x="560" y="796"/>
      <point x="479" y="796" type="qcurve" smooth="yes"/>
      <point x="409" y="796"/>
      <point x="305" y="772"/>
      <point x="247" y="749" type="qcurve"/>
      <point x="92" y="853" type="line"/>
      <point x="165" y="1449" type="line"/>
      <point x="941" y="1449" type="line"/>
      <point x="973" y="1095" type="line"/>
      <point x="796" y="1114" type="line"/>
      <point x="774" y="1118"/>
      <point x="751" y="1132"/>
      <point x="750" y="1137" type="qcurve" smooth="yes"/>
      <point x="710" y="1293"/>
      <point x="709" y="1299" type="qcurve"/>
      <point x="709" y="1301"/>
      <point x="711" y="1301" type="qcurve"/>
      <point x="719" y="1300" type="line"/>
      <point x="659" y="1305"/>
      <point x="621" y="1305" type="qcurve" smooth="yes"/>
      <point x="391" y="1305" type="line"/>
      <point x="345" y="930" type="line"/>
      <point x="342" y="930" type="line"/>
      <point x="342" y="932"/>
      <point x="415" y="947"/>
      <point x="475" y="947" type="qcurve" smooth="yes"/>
      <point x="751" y="947"/>
      <point x="1044" y="685"/>
      <point x="1044" y="440" type="qcurve" smooth="yes"/>
      <point x="1044" y="244"/>
      <point x="927" y="123" type="qcurve" smooth="yes"/>
      <point x="790" y="-20"/>
    </contour>
  </outline>
</glyph>
<glyph name="six" format="1">
  <advance width="1228"/>
  <unicode hex="0036"/>
  <outline>
    <contour>
      <point x="636" y="121" type="line" smooth="yes"/>
      <point x="724" y="121"/>
      <point x="837" y="226"/>
      <point x="891" y="395"/>
      <point x="891" y="490" type="qcurve" smooth="yes"/>
      <point x="891" y="577"/>
      <point x="848" y="735"/>
      <point x="747" y="834"/>
      <point x="660" y="834" type="qcurve" smooth="yes"/>
      <point x="592" y="834"/>
      <point x="468" y="782"/>
      <point x="427" y="724" type="qcurve" smooth="yes"/>
      <point x="378" y="654"/>
      <point x="378" y="522" type="qcurve" smooth="yes"/>
      <point x="378" y="404"/>
      <point x="444" y="227"/>
      <point x="555" y="126"/>
      <point x="623" y="121" type="qcurve"/>
    </contour>
    <contour>
      <point x="648" y="-20" type="qcurve" smooth="yes"/>
      <point x="621" y="-20"/>
      <point x="593" y="-18" type="qcurve" smooth="yes"/>
      <point x="314" y="7"/>
      <point x="200" y="235" type="qcurve" smooth="yes"/>
      <point x="109" y="416"/>
      <point x="109" y="697" type="qcurve" smooth="yes"/>
      <point x="109" y="1047"/>
      <point x="229" y="1245" type="qcurve" smooth="yes"/>
      <point x="374" y="1485"/>
      <point x="712" y="1485" type="qcurve" smooth="yes"/>
      <point x="789" y="1485"/>
      <point x="930" y="1442"/>
      <point x="1037" y="1379"/>
      <point x="1062" y="1348" type="qcurve"/>
      <point x="1074" y="1093" type="line"/>
      <point x="914" y="1118" type="line"/>
      <point x="903" y="1121"/>
      <point x="882" y="1142"/>
      <point x="881" y="1157" type="qcurve"/>
      <point x="881" y="1189"/>
      <point x="839" y="1285"/>
      <point x="750" y="1359"/>
      <point x="678" y="1363" type="qcurve"/>
      <point x="585" y="1363"/>
      <point x="433" y="1146"/>
      <point x="400" y="950" type="qcurve"/>
      <point x="390" y="897"/>
      <point x="387" y="818" type="qcurve"/>
      <point x="335" y="822" type="line"/>
      <point x="367" y="880"/>
      <point x="560" y="973"/>
      <point x="671" y="973" type="qcurve" smooth="yes"/>
      <point x="847" y="973"/>
      <point x="1056" y="847"/>
      <point x="1147" y="623"/>
      <point x="1147" y="476" type="qcurve" smooth="yes"/>
      <point x="1147" y="337"/>
      <point x="1029" y="112"/>
      <point x="805" y="-20"/>
    </contour>
  </outline>
</glyph>
<glyph name="seven" format="1">
  <advance width="1077"/>
  <unicode hex="0037"/>
  <outline>
    <contour>
      <point x="511" y="0" type="qcurve"/>
      <point x="226" y="0" type="line"/>
      <point x="226" y="170"/>
      <point x="320" y="476"/>
      <point x="468" y="766"/>
      <point x="553" y="910" type="qcurve" smooth="yes"/>
      <point x="660" y="1091"/>
      <point x="752" y="1283" type="qcurve"/>
      <point x="752" y="1304" type="line"/>
      <point x="479" y="1304" type="line" smooth="yes"/>
      <point x="419" y="1304"/>
      <point x="365" y="1300" type="qcurve" smooth="yes"/>
      <point x="329" y="1298" type="line"/>
      <point x="337" y="1299" type="line"/>
      <point x="339" y="1299"/>
      <point x="339" y="1297" type="qcurve"/>
      <point x="338" y="1291"/>
      <point x="289" y="1126" type="qcurve"/>
      <point x="285" y="1110"/>
      <point x="221" y="1097"/>
      <point x="148" y="1091" type="qcurve"/>
      <point x="79" y="1084" type="line"/>
      <point x="80" y="1455" type="line"/>
      <point x="1001" y="1455" type="line"/>
      <point x="1036" y="1336" type="line"/>
      <point x="962" y="1185"/>
      <point x="880" y="1032" type="qcurve" smooth="yes"/>
      <point x="786" y="859"/>
      <point x="619" y="512"/>
      <point x="511" y="168"/>
    </contour>
  </outline>
</glyph>
<glyph name="eight" format="1">
  <advance width="1239"/>
  <unicode hex="0038"/>
  <outline>
    <contour>
      <point x="615" y="114" type="qcurve" smooth="yes"/>
      <point x="688" y="114"/>
      <point x="808" y="164"/>
      <point x="878" y="271"/>
      <point x="878" y="355" type="qcurve"/>
      <point x="877" y="384" type="line"/>
      <point x="869" y="470"/>
      <point x="781" y="579"/>
      <point x="655" y="648"/>
      <point x="588" y="675" type="qcurve" smooth="yes"/>
      <point x="551" y="691" type="line"/>
      <point x="565" y="691" type="line"/>
      <point x="496" y="655"/>
      <point x="392" y="572"/>
      <point x="332" y="458"/>
      <point x="332" y="372" type="qcurve"/>
      <point x="333" y="278"/>
      <point x="406" y="164"/>
      <point x="534" y="114"/>
    </contour>
    <contour>
      <point x="615" y="-20" type="qcurve" smooth="yes"/>
      <point x="519" y="-20"/>
      <point x="329" y="26"/>
      <point x="174" y="119"/>
      <point x="81" y="258"/>
      <point x="81" y="350" type="qcurve"/>
      <point x="84" y="487"/>
      <point x="251" y="690"/>
      <point x="392" y="767" type="qcurve"/>
      <point x="409" y="767" type="line"/>
      <point x="285" y="829"/>
      <point x="135" y="1004"/>
      <point x="125" y="1140" type="qcurve"/>
      <point x="132" y="1297"/>
      <point x="395" y="1489"/>
      <point x="573" y="1489" type="qcurve" smooth="yes"/>
      <point x="704" y="1489"/>
      <point x="925" y="1413"/>
      <point x="1058" y="1260"/>
      <point x="1061" y="1145" type="qcurve"/>
      <point x="1061" y="959"/>
      <point x="815" y="810" type="qcurve"/>
      <point x="911" y="761"/>
      <point x="1055" y="635"/>
      <point x="1136" y="481"/>
      <point x="1136" y="389" type="qcurve"/>
      <point x="1134" y="263"/>
      <point x="991" y="80"/>
      <point x="754" y="-20"/>
    </contour>
    <contour>
      <point x="654" y="883" type="qcurve"/>
      <point x="640" y="883" type="line"/>
      <point x="712" y="924"/>
      <point x="810" y="1043"/>
      <point x="814" y="1146" type="qcurve"/>
      <point x="814" y="1226"/>
      <point x="758" y="1320"/>
      <point x="650" y="1360"/>
      <point x="573" y="1360" type="qcurve" smooth="yes"/>
      <point x="502" y="1360"/>
      <point x="386" y="1265"/>
      <point x="382" y="1171" type="qcurve"/>
      <point x="382" y="1103"/>
      <point x="469" y="991"/>
      <point x="594" y="908"/>
    </contour>
  </outline>
</glyph>
<glyph name="nine" format="1">
  <advance width="1158"/>
  <unicode hex="0039"/>
  <outline>
    <contour>
      <point x="505" y="593" type="line" smooth="yes"/>
      <point x="616" y="593"/>
      <point x="694" y="684" type="qcurve" smooth="yes"/>
      <point x="777" y="779"/>
      <point x="778" y="937" type="qcurve"/>
      <point x="778" y="1132"/>
      <point x="637" y="1356"/>
      <point x="528" y="1359" type="qcurve"/>
      <point x="450" y="1359"/>
      <point x="336" y="1242"/>
      <point x="274" y="1065"/>
      <point x="273" y="970" type="qcurve"/>
      <point x="273" y="827"/>
      <point x="390" y="601"/>
      <point x="500" y="593" type="qcurve"/>
    </contour>
    <contour>
      <point x="471" y="-20" type="qcurve" smooth="yes"/>
      <point x="359" y="-20"/>
      <point x="122" y="66"/>
      <point x="77" y="112" type="qcurve"/>
      <point x="77" y="358" type="line"/>
      <point x="218" y="338" type="line"/>
      <point x="232" y="335"/>
      <point x="251" y="319"/>
      <point x="251" y="311" type="qcurve" smooth="yes"/>
      <point x="251" y="288"/>
      <point x="300" y="196"/>
      <point x="396" y="121"/>
      <point x="466" y="118" type="qcurve"/>
      <point x="606" y="118"/>
      <point x="680" y="226" type="qcurve" smooth="yes"/>
      <point x="758" y="339"/>
      <point x="777" y="563" type="qcurve"/>
      <point x="779" y="600"/>
      <point x="791" y="674" type="qcurve"/>
      <point x="833" y="639" type="line"/>
      <point x="825" y="615"/>
      <point x="768" y="546"/>
      <point x="676" y="479"/>
      <point x="555" y="434"/>
      <point x="482" y="434" type="qcurve" smooth="yes"/>
      <point x="353" y="434"/>
      <point x="169" y="525"/>
      <point x="54" y="676"/>
      <point x="0" y="865"/>
      <point x="0" y="964" type="qcurve" smooth="yes"/>
      <point x="0" y="1111"/>
      <point x="118" y="1349"/>
      <point x="352" y="1489"/>
      <point x="525" y="1489" type="qcurve" smooth="yes"/>
      <point x="703" y="1489"/>
      <point x="941" y="1334"/>
      <point x="1062" y="1041"/>
      <point x="1062" y="834" type="qcurve" smooth="yes"/>
      <point x="1062" y="722"/>
      <point x="1057" y="620" type="qcurve"/>
      <point x="1041" y="339"/>
      <point x="933" y="182" type="qcurve" smooth="yes"/>
      <point x="793" y="-20"/>
    </contour>
  </outline>
</glyph>
<glyph name="colon" format="1">
  <advance width="627"/>
  <unicode hex="003A"/>
  <outline>
    <contour>
      <point x="288" y="673" type="qcurve" smooth="yes"/>
      <point x="220" y="673"/>
      <point x="140" y="740"/>
      <point x="140" y="793" type="qcurve" smooth="yes"/>
      <point x="140" y="842"/>
      <point x="221" y="905"/>
      <point x="288" y="905" type="qcurve" smooth="yes"/>
      <point x="354" y="905"/>
      <point x="438" y="842"/>
      <point x="438" y="793" type="qcurve" smooth="yes"/>
      <point x="438" y="740"/>
      <point x="355" y="673"/>
    </contour>
    <contour>
      <point x="288" y="-20" type="qcurve" smooth="yes"/>
      <point x="220" y="-20"/>
      <point x="140" y="47"/>
      <point x="140" y="100" type="qcurve" smooth="yes"/>
      <point x="140" y="149"/>
      <point x="220" y="213"/>
      <point x="288" y="213" type="qcurve" smooth="yes"/>
      <point x="354" y="213"/>
      <point x="438" y="149"/>
      <point x="438" y="100" type="qcurve" smooth="yes"/>
      <point x="438" y="47"/>
      <point x="355" y="-20"/>
    </contour>
  </outline>
</glyph>
<glyph name="semicolon" format="1">
  <advance width="627"/>
  <unicode hex="003B"/>
  <outline>
    <contour>
      <point x="288" y="673" type="qcurve" smooth="yes"/>
      <point x="220" y="673"/>
      <point x="140" y="740"/>
      <point x="140" y="793" type="qcurve" smooth="yes"/>
      <point x="140" y="842"/>
      <point x="221" y="905"/>
      <point x="288" y="905" type="qcurve" smooth="yes"/>
      <point x="354" y="905"/>
      <point x="438" y="842"/>
      <point x="438" y="793" type="qcurve" smooth="yes"/>
      <point x="438" y="740"/>
      <point x="355" y="673"/>
    </contour>
    <contour>
      <point x="255" y="-216" type="qcurve" smooth="yes"/>
      <point x="168" y="-216" type="line"/>
      <point x="226" y="-20" type="line"/>
      <point x="186" y="-12"/>
      <point x="134" y="51"/>
      <point x="134" y="98" type="qcurve" smooth="yes"/>
      <point x="134" y="149"/>
      <point x="218" y="216"/>
      <point x="288" y="216" type="qcurve" smooth="yes"/>
      <point x="356" y="216"/>
      <point x="444" y="149"/>
      <point x="444" y="98" type="qcurve" smooth="yes"/>
      <point x="444" y="78"/>
      <point x="440" y="63" type="qcurve"/>
      <point x="428" y="3"/>
      <point x="361" y="-133"/>
      <point x="328" y="-190" type="qcurve" smooth="yes"/>
      <point x="318" y="-209"/>
      <point x="290" y="-213" type="qcurve" smooth="yes"/>
      <point x="267" y="-216"/>
    </contour>
  </outline>
</glyph>
<glyph name="less" format="1">
  <advance width="1084"/>
  <unicode hex="003C"/>
  <outline>
    <contour>
      <point x="997" y="1044" type="line"/>
      <point x="404" y="715" type="line"/>
      <point x="997" y="390" type="line"/>
      <point x="997" y="163" type="line"/>
      <point x="87" y="684" type="line"/>
      <point x="87" y="747" type="line"/>
      <point x="997" y="1271" type="line"/>
    </contour>
  </outline>
</glyph>
<glyph name="equal" format="1">
  <advance width="1084"/>
  <unicode hex="003D"/>
  <outline>
    <contour>
      <point x="87" y="631" type="line"/>
      <point x="997" y="631" type="line"/>
      <point x="997" y="461" type="line"/>
      <point x="87" y="461" type="line"/>
    </contour>
    <contour>
      <point x="87" y="973" type="line"/>
      <point x="997" y="973" type="line"/>
      <point x="997" y="803" type="line"/>
      <point x="87" y="803" type="line"/>
    </contour>
  </outline>
</glyph>
<glyph name="greater" format="1">
  <advance width="1084"/>
  <unicode hex="003E"/>
  <outline>
    <contour>
      <point x="87" y="1271" type="line"/>
      <point x="997" y="747" type="line"/>
      <point x="997" y="684" type="line"/>
      <point x="87" y="163" type="line"/>
      <point x="87" y="390" type="line"/>
      <point x="690" y="715" type="line"/>
      <point x="87" y="1044" type="line"/>
    </contour>
  </outline>
</glyph>
<glyph name="question" format="1">
  <advance width="834"/>
  <unicode hex="003F"/>
  <outline>
    <contour>
      <point x="447" y="-138" type="qcurve" smooth="yes"/>
      <point x="368" y="-138"/>
      <point x="286" y="-60"/>
      <point x="286" y="4" type="qcurve" smooth="yes"/>
      <point x="286" y="64"/>
      <point x="369" y="136"/>
      <point x="447" y="136" type="qcurve" smooth="yes"/>
      <point x="529" y="136"/>
      <point x="608" y="64"/>
      <point x="608" y="4" type="qcurve" smooth="yes"/>
      <point x="608" y="-60"/>
      <point x="530" y="-138"/>
    </contour>
    <contour>
      <point x="567" y="365" type="qcurve"/>
      <point x="328" y="365" type="line"/>
      <point x="336" y="472"/>
      <point x="337" y="600" type="qcurve"/>
      <point x="337" y="747" type="line"/>
      <point x="385" y="736"/>
      <point x="428" y="732"/>
      <point x="444" y="732" type="qcurve" smooth="yes"/>
      <point x="530" y="732"/>
      <point x="645" y="822"/>
      <point x="703" y="970"/>
      <point x="704" y="1060" type="qcurve"/>
      <point x="704" y="1147"/>
      <point x="655" y="1305"/>
      <point x="548" y="1406"/>
      <point x="461" y="1406" type="qcurve"/>
      <point x="368" y="1401"/>
      <point x="279" y="1303"/>
      <point x="261" y="1257" type="qcurve"/>
      <point x="252" y="1240" type="line"/>
      <point x="242" y="1211"/>
      <point x="223" y="1202" type="qcurve"/>
      <point x="104" y="1188" type="line"/>
      <point x="102" y="1188"/>
      <point x="86" y="1260"/>
      <point x="71" y="1364"/>
      <point x="71" y="1410" type="qcurve" smooth="yes"/>
      <point x="71" y="1419" type="line"/>
      <point x="119" y="1465"/>
      <point x="328" y="1533"/>
      <point x="455" y="1535" type="qcurve"/>
      <point x="620" y="1535"/>
      <point x="848" y="1425"/>
      <point x="966" y="1223"/>
      <point x="966" y="1086" type="qcurve"/>
      <point x="964" y="889"/>
      <point x="759" y="628"/>
      <point x="554" y="601" type="qcurve"/>
      <point x="556" y="467"/>
    </contour>
  </outline>
</glyph>
<glyph name="at" format="1">
  <advance width="2089"/>
  <unicode hex="0040"/>
  <outline>
    <contour>
      <point x="1018" y="623" type="qcurve"/>
      <point x="952" y="615"/>
      <point x="823" y="482"/>
      <point x="823" y="343" type="qcurve" smooth="yes"/>
      <point x="823" y="227"/>
      <point x="944" y="62"/>
      <point x="1033" y="62" type="qcurve"/>
      <point x="1097" y="65"/>
      <point x="1126" y="226" type="qcurve"/>
      <point x="1126" y="633" type="line"/>
      <point x="1138" y="647"/>
    </contour>
    <contour>
      <point x="1395" y="29" type="qcurve"/>
      <point x="1317" y="30"/>
      <point x="1221" y="74"/>
      <point x="1229" y="61" type="qcurve"/>
      <point x="1239" y="74"/>
      <point x="1114" y="9"/>
      <point x="1018" y="9" type="qcurve" smooth="yes"/>
      <point x="851" y="9"/>
      <point x="614" y="220"/>
      <point x="614" y="343" type="qcurve"/>
      <point x="615" y="421"/>
      <point x="719" y="580"/>
      <point x="896" y="658"/>
      <point x="995" y="673" type="qcurve"/>
      <point x="1050" y="686"/>
      <point x="1126" y="733"/>
      <point x="1126" y="792" type="qcurve"/>
      <point x="1124" y="869"/>
      <point x="1052" y="972"/>
      <point x="991" y="972" type="qcurve" smooth="yes"/>
      <point x="946" y="972"/>
      <point x="855" y="864"/>
      <point x="854" y="788" type="qcurve"/>
      <point x="739" y="788" type="line"/>
      <point x="739" y="947" type="line" smooth="yes"/>
      <point x="739" y="960"/>
      <point x="828" y="985" type="qcurve" smooth="yes"/>
      <point x="910" y="1007"/>
      <point x="1025" y="1007" type="qcurve"/>
      <point x="1154" y="1005"/>
      <point x="1337" y="870"/>
      <point x="1337" y="785" type="qcurve" smooth="yes"/>
      <point x="1337" y="196" type="line" smooth="yes"/>
      <point x="1337" y="79"/>
      <point x="1389" y="79" type="qcurve"/>
      <point x="1547" y="109"/>
      <point x="1710" y="419"/>
      <point x="1710" y="654" type="qcurve"/>
      <point x="1689" y="999"/>
      <point x="1476" y="1205" type="qcurve"/>
      <point x="1292" y="1381"/>
      <point x="1033" y="1381" type="qcurve" smooth="yes"/>
      <point x="849" y="1381"/>
      <point x="490" y="1118"/>
      <point x="408" y="899" type="qcurve" smooth="yes"/>
      <point x="339" y="716"/>
      <point x="339" y="527" type="qcurve" smooth="yes"/>
      <point x="339" y="205"/>
      <point x="599" y="-193"/>
      <point x="930" y="-367"/>
      <point x="1057" y="-367" type="qcurve" smooth="yes"/>
      <point x="1311" y="-367"/>
      <point x="1667" y="-121" type="qcurve"/>
      <point x="1667" y="-224" type="line"/>
      <point x="1389" y="-418"/>
      <point x="1061" y="-418" type="qcurve" smooth="yes"/>
      <point x="804" y="-418"/>
      <point x="342" y="-162"/>
      <point x="100" y="274"/>
      <point x="100" y="508" type="qcurve" smooth="yes"/>
      <point x="100" y="742"/>
      <point x="346" y="1184"/>
      <point x="809" y="1434"/>
      <point x="1061" y="1434" type="qcurve" smooth="yes"/>
      <point x="1447" y="1434"/>
      <point x="1952" y="964"/>
      <point x="1952" y="638" type="qcurve" smooth="yes"/>
      <point x="1952" y="378"/>
      <point x="1765" y="199" type="qcurve" smooth="yes"/>
      <point x="1591" y="31"/>
    </contour>
  </outline>
</glyph>
<glyph name="A" format="1">
  <advance width="1470"/>
  <unicode hex="0041"/>
  <outline>
    <contour>
      <point x="1450" y="-19" type="line"/>
      <point x="1271" y="-6"/>
      <point x="1146" y="-6" type="qcurve" smooth="yes"/>
      <point x="1022" y="-6"/>
      <point x="842" y="-19" type="qcurve"/>
      <point x="853" y="101" type="line"/>
      <point x="853" y="102"/>
      <point x="862" y="109"/>
      <point x="881" y="116"/>
      <point x="896" y="118" type="qcurve" smooth="yes"/>
      <point x="1011" y="130" type="line"/>
      <point x="1008" y="130"/>
      <point x="1006" y="134"/>
      <point x="1006" y="140" type="qcurve" smooth="yes"/>
      <point x="1006" y="151" type="line"/>
      <point x="1004" y="162"/>
      <point x="909" y="428" type="qcurve"/>
      <point x="474" y="428" type="line"/>
      <point x="380" y="149" type="line"/>
      <point x="381" y="136" type="line"/>
      <point x="381" y="131"/>
      <point x="377" y="131" type="qcurve"/>
      <point x="492" y="118" type="line"/>
      <point x="513" y="114"/>
      <point x="533" y="102"/>
      <point x="533" y="100" type="qcurve"/>
      <point x="545" y="-19" type="line"/>
      <point x="338" y="-7"/>
      <point x="267" y="-6" type="qcurve"/>
      <point x="195" y="-7"/>
      <point x="-10" y="-19" type="qcurve"/>
      <point x="1" y="101" type="line"/>
      <point x="1" y="102"/>
      <point x="10" y="109"/>
      <point x="29" y="116"/>
      <point x="44" y="118" type="qcurve" smooth="yes"/>
      <point x="166" y="132" type="line"/>
      <point x="155" y="130" type="line"/>
      <point x="153" y="130"/>
      <point x="153" y="132" type="qcurve"/>
      <point x="154" y="138"/>
      <point x="269" y="445" type="qcurve"/>
      <point x="534" y="1230" type="line"/>
      <point x="548" y="1278" type="line"/>
      <point x="550" y="1292" type="line"/>
      <point x="551" y="1309"/>
      <point x="556" y="1309" type="qcurve"/>
      <point x="434" y="1324" type="line"/>
      <point x="415" y="1327"/>
      <point x="393" y="1340"/>
      <point x="393" y="1341" type="qcurve"/>
      <point x="381" y="1449" type="line"/>
      <point x="802" y="1449" type="line"/>
      <point x="1288" y="131" type="line"/>
      <point x="1288" y="130"/>
      <point x="1287" y="130" type="qcurve"/>
      <point x="1274" y="132" type="line"/>
      <point x="1396" y="118" type="line" smooth="yes"/>
      <point x="1411" y="116"/>
      <point x="1430" y="109"/>
      <point x="1439" y="102"/>
      <point x="1439" y="101" type="qcurve"/>
    </contour>
    <contour>
      <point x="863" y="556" type="line"/>
      <point x="685" y="1056" type="line"/>
      <point x="517" y="556" type="line"/>
    </contour>
  </outline>
</glyph>
<glyph name="B" format="1">
  <advance width="1355"/>
  <unicode hex="0042"/>
  <outline>
    <contour>
      <point x="44" y="-20" type="qcurve"/>
      <point x="56" y="101" type="line"/>
      <point x="56" y="102"/>
      <point x="65" y="108"/>
      <point x="83" y="116"/>
      <point x="97" y="118" type="qcurve" smooth="yes"/>
      <point x="213" y="132" type="line"/>
      <point x="211" y="133"/>
      <point x="209" y="140"/>
      <point x="209" y="719" type="qcurve" smooth="yes"/>
      <point x="209" y="1297"/>
      <point x="210" y="1304"/>
      <point x="213" y="1305" type="qcurve"/>
      <point x="220" y="1305" type="line"/>
      <point x="159" y="1314" type="line" smooth="yes"/>
      <point x="82" y="1325"/>
      <point x="65" y="1333"/>
      <point x="56" y="1340"/>
      <point x="56" y="1341" type="qcurve"/>
      <point x="44" y="1449" type="line"/>
      <point x="679" y="1449" type="line" smooth="yes"/>
      <point x="1142" y="1449"/>
      <point x="1142" y="1086" type="qcurve" smooth="yes"/>
      <point x="1142" y="983"/>
      <point x="1046" y="844"/>
      <point x="949" y="799" type="qcurve"/>
      <point x="1258" y="708"/>
      <point x="1258" y="409" type="qcurve" smooth="yes"/>
      <point x="1258" y="254"/>
      <point x="1125" y="73"/>
      <point x="865" y="-5"/>
      <point x="677" y="-5" type="qcurve" smooth="yes"/>
      <point x="355" y="-5" type="line" smooth="yes"/>
      <point x="253" y="-5"/>
    </contour>
    <contour>
      <point x="706" y="833" type="line" smooth="yes"/>
      <point x="798" y="833"/>
      <point x="843" y="920" type="qcurve" smooth="yes"/>
      <point x="879" y="990"/>
      <point x="879" y="1085" type="qcurve"/>
      <point x="875" y="1322"/>
      <point x="696" y="1322" type="qcurve"/>
      <point x="634" y="1323"/>
      <point x="465" y="1323" type="qcurve"/>
      <point x="465" y="833" type="line"/>
    </contour>
    <contour>
      <point x="704" y="128" type="line" smooth="yes"/>
      <point x="863" y="128"/>
      <point x="991" y="256"/>
      <point x="991" y="412" type="qcurve" smooth="yes"/>
      <point x="991" y="696"/>
      <point x="724" y="696" type="qcurve" smooth="yes"/>
      <point x="465" y="696" type="line"/>
      <point x="465" y="128" type="line"/>
    </contour>
  </outline>
</glyph>
<glyph name="C" format="1">
  <advance width="1327"/>
  <unicode hex="0043"/>
  <outline>
    <contour>
      <point x="738" y="-20" type="qcurve" smooth="yes"/>
      <point x="528" y="-20"/>
      <point x="234" y="145"/>
      <point x="79" y="479"/>
      <point x="79" y="733" type="qcurve" smooth="yes"/>
      <point x="79" y="1108"/>
      <point x="405" y="1478"/>
      <point x="721" y="1478" type="qcurve" smooth="yes"/>
      <point x="806" y="1478"/>
      <point x="988" y="1451"/>
      <point x="1153" y="1386"/>
      <point x="1216" y="1328" type="qcurve"/>
      <point x="1216" y="984" type="line"/>
      <point x="1061" y="1002" type="line" smooth="yes"/>
      <point x="1041" y="1004"/>
      <point x="1021" y="1020"/>
      <point x="1019" y="1026" type="qcurve" smooth="yes"/>
      <point x="1001" y="1095" type="line" smooth="yes"/>
      <point x="980" y="1179"/>
      <point x="941" y="1275"/>
      <point x="903" y="1295" type="qcurve"/>
      <point x="820" y="1335"/>
      <point x="721" y="1335" type="qcurve" smooth="yes"/>
      <point x="550" y="1335"/>
      <point x="355" y="1040"/>
      <point x="355" y="733" type="qcurve" smooth="yes"/>
      <point x="355" y="428"/>
      <point x="558" y="121"/>
      <point x="738" y="121" type="qcurve" smooth="yes"/>
      <point x="801" y="121"/>
      <point x="855" y="128" type="qcurve" smooth="yes"/>
      <point x="923" y="136"/>
      <point x="971" y="177" type="qcurve" smooth="yes"/>
      <point x="978" y="184"/>
      <point x="987" y="205" type="qcurve"/>
      <point x="1035" y="345" type="line"/>
      <point x="1038" y="356"/>
      <point x="1062" y="374"/>
      <point x="1074" y="377" type="qcurve"/>
      <point x="1226" y="398" type="line"/>
      <point x="1227" y="139" type="line"/>
      <point x="1174" y="81"/>
      <point x="1012" y="11"/>
      <point x="825" y="-20"/>
    </contour>
  </outline>
</glyph>
<glyph name="D" format="1">
  <advance width="1492"/>
  <unicode hex="0044"/>
  <outline>
    <contour>
      <point x="99" y="-21" type="qcurve"/>
      <point x="111" y="100" type="line"/>
      <point x="111" y="101"/>
      <point x="120" y="108"/>
      <point x="138" y="115"/>
      <point x="153" y="117" type="qcurve" smooth="yes"/>
      <point x="274" y="131" type="line"/>
      <point x="270" y="131" type="line"/>
      <point x="269" y="131"/>
      <point x="265" y="131"/>
      <point x="264" y="139"/>
      <point x="264" y="718" type="qcurve" smooth="yes"/>
      <point x="264" y="1296"/>
      <point x="265" y="1304"/>
      <point x="268" y="1305"/>
      <point x="270" y="1305" type="qcurve"/>
      <point x="151" y="1323" type="line" smooth="yes"/>
      <point x="138" y="1325"/>
      <point x="120" y="1332"/>
      <point x="116" y="1336" type="qcurve" smooth="yes"/>
      <point x="111" y="1339" type="line"/>
      <point x="99" y="1448" type="line"/>
      <point x="702" y="1448" type="line" smooth="yes"/>
      <point x="920" y="1448"/>
      <point x="1238" y="1296"/>
      <point x="1411" y="977"/>
      <point x="1411" y="727" type="qcurve" smooth="yes"/>
      <point x="1411" y="472"/>
      <point x="1238" y="148"/>
      <point x="920" y="-7"/>
      <point x="702" y="-7" type="qcurve"/>
      <point x="400" y="-6" type="line"/>
      <point x="292" y="-8"/>
    </contour>
    <contour>
      <point x="760" y="127" type="line" smooth="yes"/>
      <point x="942" y="127"/>
      <point x="1133" y="415"/>
      <point x="1133" y="727" type="qcurve" smooth="yes"/>
      <point x="1133" y="938"/>
      <point x="1041" y="1201"/>
      <point x="874" y="1323"/>
      <point x="760" y="1323" type="qcurve" smooth="yes"/>
      <point x="528" y="1323" type="line"/>
      <point x="528" y="127" type="line"/>
    </contour>
  </outline>
</glyph>
<glyph name="E" format="1">
  <advance width="1430"/>
  <unicode hex="0045"/>
  <outline>
    <contour>
      <point x="99" y="-20" type="qcurve"/>
      <point x="110" y="102" type="line" smooth="yes"/>
      <point x="111" y="116"/>
      <point x="154" y="119" type="qcurve"/>
      <point x="278" y="133" type="line"/>
      <point x="264" y="132"/>
      <point x="263" y="151" type="qcurve"/>
      <point x="263" y="1286" type="line"/>
      <point x="264" y="1306"/>
      <point x="274" y="1305" type="qcurve"/>
      <point x="152" y="1323" type="line"/>
      <point x="111" y="1326"/>
      <point x="110" y="1339" type="qcurve" smooth="yes"/>
      <point x="99" y="1448" type="line"/>
      <point x="1205" y="1448" type="line"/>
      <point x="1205" y="1097" type="line"/>
      <point x="1053" y="1113" type="line"/>
      <point x="1027" y="1117"/>
      <point x="1009" y="1133"/>
      <point x="1008" y="1135" type="qcurve" smooth="yes"/>
      <point x="961" y="1288" type="line" smooth="yes"/>
      <point x="959" y="1296"/>
      <point x="972" y="1295" type="qcurve"/>
      <point x="804" y="1303"/>
      <point x="621" y="1309"/>
      <point x="522" y="1309" type="qcurve"/>
      <point x="522" y="817" type="line"/>
      <point x="1082" y="817" type="line"/>
      <point x="1082" y="673" type="line"/>
      <point x="522" y="673" type="line"/>
      <point x="522" y="134" type="line"/>
      <point x="594" y="134"/>
      <point x="725" y="136"/>
      <point x="883" y="142"/>
      <point x="1020" y="148" type="qcurve"/>
      <point x="1010" y="147"/>
      <point x="1011" y="150" type="qcurve" smooth="yes"/>
      <point x="1085" y="280" type="line" smooth="yes"/>
      <point x="1088" y="286"/>
      <point x="1111" y="304"/>
      <point x="1136" y="308" type="qcurve"/>
      <point x="1316" y="325" type="line"/>
      <point x="1235" y="-5" type="line"/>
      <point x="361" y="-5" type="line"/>
      <point x="259" y="-8"/>
    </contour>
  </outline>
</glyph>
<glyph name="F" format="1">
  <advance width="1209"/>
  <unicode hex="0046"/>
  <outline>
    <contour>
      <point x="677" y="-19" type="line"/>
      <point x="589" y="-13"/>
      <point x="486" y="-7"/>
      <point x="408" y="-5"/>
      <point x="351" y="-5" type="qcurve"/>
      <point x="248" y="-6"/>
      <point x="89" y="-19" type="qcurve"/>
      <point x="101" y="102" type="line"/>
      <point x="101" y="103"/>
      <point x="121" y="115"/>
      <point x="143" y="118" type="qcurve" smooth="yes"/>
      <point x="258" y="132" type="line"/>
      <point x="256" y="132"/>
      <point x="254" y="135"/>
      <point x="254" y="714" type="qcurve" smooth="yes"/>
      <point x="254" y="1298"/>
      <point x="256" y="1305"/>
      <point x="259" y="1305" type="qcurve"/>
      <point x="142" y="1323" type="line" smooth="yes"/>
      <point x="128" y="1325"/>
      <point x="110" y="1332"/>
      <point x="106" y="1336" type="qcurve" smooth="yes"/>
      <point x="101" y="1340" type="line"/>
      <point x="90" y="1448" type="line"/>
      <point x="1117" y="1448" type="line"/>
      <point x="1117" y="1096" type="line"/>
      <point x="965" y="1113" type="line"/>
      <point x="941" y="1117"/>
      <point x="919" y="1132"/>
      <point x="919" y="1136" type="qcurve"/>
      <point x="871" y="1294" type="line"/>
      <point x="871" y="1297"/>
      <point x="873" y="1297" type="qcurve"/>
      <point x="883" y="1295" type="line"/>
      <point x="843" y="1297" type="line" smooth="yes"/>
      <point x="631" y="1309"/>
      <point x="513" y="1309" type="qcurve"/>
      <point x="513" y="817" type="line"/>
      <point x="981" y="817" type="line"/>
      <point x="981" y="675" type="line"/>
      <point x="513" y="675" type="line"/>
      <point x="513" y="149" type="line" smooth="yes"/>
      <point x="513" y="132"/>
      <point x="508" y="132" type="qcurve"/>
      <point x="624" y="118" type="line" smooth="yes"/>
      <point x="646" y="115"/>
      <point x="666" y="103"/>
      <point x="666" y="102" type="qcurve"/>
    </contour>
  </outline>
</glyph>
<glyph name="G" format="1">
  <advance width="1360"/>
  <unicode hex="0047"/>
  <outline>
    <contour>
      <point x="753" y="-20" type="qcurve" smooth="yes"/>
      <point x="544" y="-20"/>
      <point x="249" y="145"/>
      <point x="94" y="479"/>
      <point x="94" y="733" type="qcurve" smooth="yes"/>
      <point x="94" y="1108"/>
      <point x="421" y="1477"/>
      <point x="736" y="1477" type="qcurve" smooth="yes"/>
      <point x="821" y="1477"/>
      <point x="1003" y="1450"/>
      <point x="1168" y="1385"/>
      <point x="1231" y="1327" type="qcurve"/>
      <point x="1231" y="984" type="line"/>
      <point x="1075" y="1002" type="line" smooth="yes"/>
      <point x="1067" y="1003"/>
      <point x="1049" y="1018"/>
      <point x="1045" y="1030" type="qcurve" smooth="yes"/>
      <point x="1028" y="1076"/>
      <point x="1014" y="1119" type="qcurve" smooth="yes"/>
      <point x="978" y="1227"/>
      <point x="958" y="1259" type="qcurve" smooth="yes"/>
      <point x="944" y="1281"/>
      <point x="918" y="1294" type="qcurve" smooth="yes"/>
      <point x="835" y="1334"/>
      <point x="736" y="1334" type="qcurve" smooth="yes"/>
      <point x="565" y="1334"/>
      <point x="370" y="1040"/>
      <point x="370" y="733" type="qcurve" smooth="yes"/>
      <point x="370" y="429"/>
      <point x="573" y="122"/>
      <point x="753" y="122" type="qcurve" smooth="yes"/>
      <point x="816" y="122"/>
      <point x="924" y="135"/>
      <point x="969" y="165" type="qcurve" smooth="yes"/>
      <point x="983" y="175"/>
      <point x="997" y="195"/>
      <point x="1006" y="217" type="qcurve"/>
      <point x="1006" y="524"/>
      <point x="1008" y="530"/>
      <point x="1013" y="530" type="qcurve"/>
      <point x="834" y="542" type="line"/>
      <point x="817" y="544"/>
      <point x="799" y="564"/>
      <point x="798" y="572" type="qcurve" smooth="yes"/>
      <point x="789" y="673" type="line"/>
      <point x="1266" y="673" type="line"/>
      <point x="1266" y="136" type="line"/>
      <point x="1232" y="135"/>
      <point x="1201" y="132"/>
      <point x="1183" y="122"/>
      <point x="1171" y="112" type="qcurve" smooth="yes"/>
      <point x="1004" y="-20"/>
    </contour>
  </outline>
</glyph>
<glyph name="H" format="1">
  <advance width="1621"/>
  <unicode hex="0048"/>
  <outline>
    <contour>
      <point x="1512" y="-20" type="line"/>
      <point x="1368" y="-11" type="line" smooth="yes"/>
      <point x="1287" y="-6"/>
      <point x="1186" y="-6" type="qcurve"/>
      <point x="1101" y="-8"/>
      <point x="924" y="-20" type="qcurve"/>
      <point x="935" y="101" type="line"/>
      <point x="935" y="102"/>
      <point x="955" y="114"/>
      <point x="977" y="117" type="qcurve" smooth="yes"/>
      <point x="1094" y="130" type="line"/>
      <point x="1089" y="130"/>
      <point x="1089" y="139" type="qcurve" smooth="yes"/>
      <point x="1089" y="672" type="line"/>
      <point x="549" y="672" type="line"/>
      <point x="549" y="141" type="line" smooth="yes"/>
      <point x="549" y="130"/>
      <point x="544" y="130" type="qcurve"/>
      <point x="661" y="117" type="line" smooth="yes"/>
      <point x="683" y="114"/>
      <point x="703" y="102"/>
      <point x="703" y="101" type="qcurve"/>
      <point x="714" y="-20" type="line"/>
      <point x="626" y="-14"/>
      <point x="523" y="-8"/>
      <point x="445" y="-6"/>
      <point x="388" y="-6" type="qcurve"/>
      <point x="305" y="-8"/>
      <point x="126" y="-20" type="qcurve"/>
      <point x="138" y="101" type="line"/>
      <point x="138" y="102"/>
      <point x="158" y="114"/>
      <point x="180" y="117" type="qcurve" smooth="yes"/>
      <point x="302" y="131" type="line"/>
      <point x="294" y="131"/>
      <point x="291" y="139"/>
      <point x="291" y="147" type="qcurve" smooth="yes"/>
      <point x="291" y="1297"/>
      <point x="293" y="1304"/>
      <point x="296" y="1304" type="qcurve"/>
      <point x="178" y="1322" type="line" smooth="yes"/>
      <point x="165" y="1324"/>
      <point x="147" y="1331"/>
      <point x="142" y="1335" type="qcurve" smooth="yes"/>
      <point x="138" y="1339" type="line"/>
      <point x="126" y="1448" type="line"/>
      <point x="714" y="1448" type="line"/>
      <point x="703" y="1339" type="line"/>
      <point x="699" y="1335" type="line" smooth="yes"/>
      <point x="694" y="1331"/>
      <point x="678" y="1324"/>
      <point x="544" y="1304" type="qcurve"/>
      <point x="549" y="1304"/>
      <point x="549" y="1294" type="qcurve" smooth="yes"/>
      <point x="549" y="794" type="line"/>
      <point x="1089" y="794" type="line"/>
      <point x="1089" y="1295" type="line" smooth="yes"/>
      <point x="1089" y="1304"/>
      <point x="1093" y="1304" type="qcurve"/>
      <point x="976" y="1322" type="line" smooth="yes"/>
      <point x="962" y="1324"/>
      <point x="944" y="1331"/>
      <point x="939" y="1335" type="qcurve" smooth="yes"/>
      <point x="935" y="1339" type="line"/>
      <point x="924" y="1448" type="line"/>
      <point x="1512" y="1448" type="line"/>
      <point x="1500" y="1339" type="line"/>
      <point x="1496" y="1335" type="line" smooth="yes"/>
      <point x="1491" y="1331"/>
      <point x="1473" y="1324"/>
      <point x="1460" y="1322" type="qcurve" smooth="yes"/>
      <point x="1342" y="1304" type="line"/>
      <point x="1345" y="1304"/>
      <point x="1347" y="1297"/>
      <point x="1347" y="713" type="qcurve" smooth="yes"/>
      <point x="1347" y="134"/>
      <point x="1345" y="130"/>
      <point x="1343" y="130" type="qcurve"/>
      <point x="1458" y="117" type="line" smooth="yes"/>
      <point x="1480" y="114"/>
      <point x="1500" y="102"/>
      <point x="1500" y="101" type="qcurve"/>
    </contour>
  </outline>
</glyph>
<glyph name="I" format="1">
  <advance width="828"/>
  <unicode hex="0049"/>
  <outline>
    <contour>
      <point x="707" y="-20" type="line"/>
      <point x="538" y="-8"/>
      <point x="445" y="-5" type="qcurve"/>
      <point x="388" y="-5"/>
      <point x="310" y="-7"/>
      <point x="208" y="-14"/>
      <point x="119" y="-20" type="qcurve"/>
      <point x="131" y="103" type="line"/>
      <point x="131" y="104"/>
      <point x="140" y="110"/>
      <point x="158" y="117"/>
      <point x="173" y="119" type="qcurve" smooth="yes"/>
      <point x="290" y="132" type="line"/>
      <point x="286" y="132"/>
      <point x="284" y="139"/>
      <point x="284" y="718" type="qcurve" smooth="yes"/>
      <point x="284" y="1295"/>
      <point x="285" y="1306"/>
      <point x="289" y="1306" type="qcurve"/>
      <point x="171" y="1324" type="line"/>
      <point x="157" y="1325"/>
      <point x="139" y="1332"/>
      <point x="135" y="1335" type="qcurve" smooth="yes"/>
      <point x="131" y="1338" type="line"/>
      <point x="119" y="1449" type="line"/>
      <point x="707" y="1449" type="line"/>
      <point x="695" y="1338" type="line"/>
      <point x="691" y="1335" type="line" smooth="yes"/>
      <point x="687" y="1332"/>
      <point x="678" y="1329" type="qcurve" smooth="yes"/>
      <point x="673" y="1327"/>
      <point x="537" y="1306" type="qcurve"/>
      <point x="539" y="1306"/>
      <point x="542" y="1302"/>
      <point x="542" y="1287" type="qcurve" smooth="yes"/>
      <point x="542" y="146"/>
      <point x="543" y="138" type="qcurve"/>
      <point x="543" y="131"/>
      <point x="539" y="131" type="qcurve"/>
      <point x="528" y="133" type="line"/>
      <point x="653" y="119" type="line" smooth="yes"/>
      <point x="668" y="117"/>
      <point x="687" y="110"/>
      <point x="695" y="104"/>
      <point x="695" y="103" type="qcurve"/>
    </contour>
  </outline>
</glyph>
<glyph name="J" format="1">
  <advance width="1118"/>
  <unicode hex="004A"/>
  <outline>
    <contour>
      <point x="462" y="-21" type="qcurve" smooth="yes"/>
      <point x="323" y="-21"/>
      <point x="123" y="54"/>
      <point x="83" y="107" type="qcurve"/>
      <point x="83" y="363" type="line"/>
      <point x="137" y="357" type="line" smooth="yes"/>
      <point x="211" y="350"/>
      <point x="276" y="338"/>
      <point x="278" y="325" type="qcurve"/>
      <point x="329" y="169" type="line"/>
      <point x="333" y="150"/>
      <point x="383" y="120"/>
      <point x="456" y="120" type="qcurve" smooth="yes"/>
      <point x="502" y="120"/>
      <point x="540" y="136" type="qcurve" smooth="yes"/>
      <point x="626" y="171"/>
      <point x="626" y="296" type="qcurve"/>
      <point x="627" y="1295"/>
      <point x="628" y="1305"/>
      <point x="632" y="1305" type="qcurve"/>
      <point x="514" y="1323" type="line" smooth="yes"/>
      <point x="494" y="1326"/>
      <point x="474" y="1338"/>
      <point x="474" y="1339" type="qcurve"/>
      <point x="463" y="1448" type="line"/>
      <point x="1050" y="1448" type="line"/>
      <point x="1039" y="1339" type="line"/>
      <point x="1039" y="1338"/>
      <point x="1018" y="1326"/>
      <point x="998" y="1323" type="qcurve" smooth="yes"/>
      <point x="881" y="1305" type="line"/>
      <point x="885" y="1305"/>
      <point x="886" y="1294"/>
      <point x="886" y="312" type="qcurve" smooth="yes"/>
      <point x="886" y="159"/>
      <point x="662" y="-21"/>
    </contour>
  </outline>
</glyph>
<glyph name="K" format="1">
  <advance width="1524"/>
  <unicode hex="004B"/>
  <outline>
    <contour>
      <point x="1484" y="-20" type="line"/>
      <point x="1282" y="-5"/>
      <point x="1124" y="-5" type="qcurve"/>
      <point x="700" y="712" type="line"/>
      <point x="510" y="508" type="line"/>
      <point x="511" y="148" type="line"/>
      <point x="511" y="138"/>
      <point x="509" y="132"/>
      <point x="505" y="132" type="qcurve"/>
      <point x="623" y="119" type="line"/>
      <point x="644" y="115"/>
      <point x="664" y="103"/>
      <point x="664" y="101" type="qcurve"/>
      <point x="676" y="-20" type="line"/>
      <point x="505" y="-8"/>
      <point x="413" y="-5" type="qcurve"/>
      <point x="355" y="-5"/>
      <point x="277" y="-7"/>
      <point x="176" y="-14"/>
      <point x="88" y="-20" type="qcurve"/>
      <point x="99" y="102" type="line"/>
      <point x="99" y="103"/>
      <point x="108" y="110"/>
      <point x="127" y="117"/>
      <point x="142" y="119" type="qcurve" smooth="yes"/>
      <point x="257" y="131" type="line"/>
      <point x="254" y="131"/>
      <point x="252" y="139"/>
      <point x="252" y="719" type="qcurve" smooth="yes"/>
      <point x="252" y="1298"/>
      <point x="253" y="1305"/>
      <point x="257" y="1305" type="qcurve"/>
      <point x="140" y="1324" type="line"/>
      <point x="126" y="1325"/>
      <point x="108" y="1333"/>
      <point x="99" y="1340"/>
      <point x="99" y="1341" type="qcurve"/>
      <point x="88" y="1449" type="line"/>
      <point x="676" y="1449" type="line"/>
      <point x="664" y="1341" type="line"/>
      <point x="664" y="1340"/>
      <point x="644" y="1327"/>
      <point x="624" y="1324" type="qcurve" smooth="yes"/>
      <point x="506" y="1305" type="line"/>
      <point x="510" y="1305"/>
      <point x="511" y="1298"/>
      <point x="511" y="1288" type="qcurve"/>
      <point x="510" y="748" type="line"/>
      <point x="617" y="867"/>
      <point x="816" y="1107"/>
      <point x="941" y="1271" type="qcurve" smooth="yes"/>
      <point x="944" y="1274"/>
      <point x="946" y="1288" type="qcurve"/>
      <point x="947" y="1306"/>
      <point x="953" y="1306" type="qcurve"/>
      <point x="962" y="1305" type="line"/>
      <point x="856" y="1324" type="line" smooth="yes"/>
      <point x="837" y="1327"/>
      <point x="817" y="1340"/>
      <point x="817" y="1341" type="qcurve"/>
      <point x="805" y="1449" type="line"/>
      <point x="1348" y="1449" type="line"/>
      <point x="1336" y="1341" type="line"/>
      <point x="1336" y="1340"/>
      <point x="1316" y="1327"/>
      <point x="1296" y="1324" type="qcurve" smooth="yes"/>
      <point x="1195" y="1309"/>
      <point x="1191" y="1307"/>
      <point x="1190" y="1304"/>
      <point x="865" y="901" type="qcurve"/>
      <point x="1321" y="136"/>
      <point x="1323" y="130" type="qcurve"/>
      <point x="1312" y="132" type="line"/>
      <point x="1431" y="118" type="line" smooth="yes"/>
      <point x="1445" y="116"/>
      <point x="1464" y="109"/>
      <point x="1473" y="102"/>
      <point x="1473" y="101" type="qcurve"/>
    </contour>
  </outline>
</glyph>
<glyph name="L" format="1">
  <advance width="1312"/>
  <unicode hex="004C"/>
  <outline>
    <contour>
      <point x="90" y="-19" type="qcurve"/>
      <point x="101" y="102" type="line"/>
      <point x="101" y="103"/>
      <point x="121" y="115"/>
      <point x="143" y="118" type="qcurve" smooth="yes"/>
      <point x="260" y="131" type="line"/>
      <point x="256" y="131"/>
      <point x="254" y="138"/>
      <point x="254" y="718" type="qcurve" smooth="yes"/>
      <point x="254" y="1298"/>
      <point x="256" y="1305"/>
      <point x="259" y="1305" type="qcurve"/>
      <point x="142" y="1323" type="line" smooth="yes"/>
      <point x="128" y="1325"/>
      <point x="110" y="1332"/>
      <point x="105" y="1336" type="qcurve" smooth="yes"/>
      <point x="101" y="1340" type="line"/>
      <point x="90" y="1449" type="line"/>
      <point x="677" y="1449" type="line"/>
      <point x="666" y="1336" type="line"/>
      <point x="662" y="1335" type="line"/>
      <point x="653" y="1328"/>
      <point x="625" y="1323" type="qcurve" smooth="yes"/>
      <point x="501" y="1304" type="line"/>
      <point x="510" y="1306" type="line"/>
      <point x="513" y="1306"/>
      <point x="513" y="1300" type="qcurve" smooth="yes"/>
      <point x="513" y="134" type="line"/>
      <point x="608" y="134"/>
      <point x="785" y="141"/>
      <point x="942" y="148" type="qcurve"/>
      <point x="933" y="146" type="line"/>
      <point x="930" y="146"/>
      <point x="930" y="149" type="qcurve"/>
      <point x="984" y="414" type="line"/>
      <point x="988" y="453"/>
      <point x="1034" y="458" type="qcurve" smooth="yes"/>
      <point x="1198" y="476" type="line"/>
      <point x="1175" y="141"/>
      <point x="1175" y="-5" type="qcurve"/>
      <point x="352" y="-5" type="line"/>
      <point x="267" y="-7"/>
    </contour>
  </outline>
</glyph>
<glyph name="M" format="1">
  <advance width="1853"/>
  <unicode hex="004D"/>
  <outline>
    <contour>
      <point x="615" y="-20" type="line"/>
      <point x="442" y="-8"/>
      <point x="347" y="-5" type="qcurve"/>
      <point x="251" y="-8"/>
      <point x="79" y="-20" type="qcurve"/>
      <point x="90" y="102" type="line"/>
      <point x="90" y="103"/>
      <point x="99" y="110"/>
      <point x="118" y="117"/>
      <point x="133" y="119" type="qcurve" smooth="yes"/>
      <point x="256" y="133" type="line"/>
      <point x="244" y="130" type="line"/>
      <point x="242" y="130"/>
      <point x="242" y="132" type="qcurve"/>
      <point x="243" y="136" type="line"/>
      <point x="243" y="1299"/>
      <point x="242" y="1304" type="qcurve"/>
      <point x="242" y="1307"/>
      <point x="244" y="1307" type="qcurve"/>
      <point x="249" y="1306" type="line" smooth="yes"/>
      <point x="252" y="1305"/>
      <point x="193" y="1315" type="qcurve"/>
      <point x="117" y="1325"/>
      <point x="99" y="1332"/>
      <point x="94" y="1336" type="qcurve" smooth="yes"/>
      <point x="90" y="1340" type="line"/>
      <point x="79" y="1449" type="line"/>
      <point x="337" y="1449" type="line" smooth="yes"/>
      <point x="359" y="1449"/>
      <point x="397" y="1444" type="qcurve" smooth="yes"/>
      <point x="453" y="1436"/>
      <point x="503" y="1386"/>
      <point x="522" y="1347" type="qcurve" smooth="yes"/>
      <point x="526" y="1340"/>
      <point x="926" y="438" type="qcurve"/>
      <point x="1293" y="1348" type="line" smooth="yes"/>
      <point x="1312" y="1396"/>
      <point x="1395" y="1449"/>
      <point x="1440" y="1449" type="qcurve" smooth="yes"/>
      <point x="1765" y="1449" type="line"/>
      <point x="1754" y="1340" type="line"/>
      <point x="1750" y="1336" type="line" smooth="yes"/>
      <point x="1745" y="1332"/>
      <point x="1727" y="1325"/>
      <point x="1713" y="1324" type="qcurve"/>
      <point x="1596" y="1306" type="line"/>
      <point x="1599" y="1306"/>
      <point x="1601" y="1298"/>
      <point x="1601" y="718" type="qcurve" smooth="yes"/>
      <point x="1601" y="139"/>
      <point x="1600" y="132"/>
      <point x="1595" y="132" type="qcurve"/>
      <point x="1711" y="119" type="line" smooth="yes"/>
      <point x="1726" y="117"/>
      <point x="1745" y="110"/>
      <point x="1754" y="103"/>
      <point x="1754" y="102" type="qcurve"/>
      <point x="1765" y="-19" type="line"/>
      <point x="1629" y="-12" type="line"/>
      <point x="1490" y="-6"/>
      <point x="1471" y="-6" type="qcurve" smooth="yes"/>
      <point x="1380" y="-6"/>
      <point x="1178" y="-19" type="qcurve"/>
      <point x="1190" y="101" type="line"/>
      <point x="1190" y="103"/>
      <point x="1210" y="115"/>
      <point x="1231" y="119" type="qcurve"/>
      <point x="1356" y="133" type="line"/>
      <point x="1344" y="130" type="line"/>
      <point x="1341" y="130"/>
      <point x="1341" y="133" type="qcurve"/>
      <point x="1342" y="137"/>
      <point x="1342" y="937" type="qcurve"/>
      <point x="986" y="69" type="line"/>
      <point x="973" y="69"/>
      <point x="957" y="68"/>
      <point x="942" y="66"/>
      <point x="925" y="66" type="qcurve" smooth="yes"/>
      <point x="897" y="66"/>
      <point x="826" y="94"/>
      <point x="808" y="129" type="qcurve"/>
      <point x="450" y="907" type="line"/>
      <point x="450" y="139"/>
      <point x="449" y="132"/>
      <point x="444" y="132" type="qcurve"/>
      <point x="562" y="119" type="line"/>
      <point x="583" y="115"/>
      <point x="603" y="103"/>
      <point x="603" y="101" type="qcurve"/>
    </contour>
  </outline>
</glyph>
<glyph name="N" format="1">
  <advance width="1629"/>
  <unicode hex="004E"/>
  <outline>
    <contour>
      <point x="656" y="-20" type="line"/>
      <point x="478" y="-7"/>
      <point x="388" y="-6" type="qcurve"/>
      <point x="298" y="-7"/>
      <point x="119" y="-20" type="qcurve"/>
      <point x="131" y="101" type="line"/>
      <point x="131" y="102"/>
      <point x="151" y="114"/>
      <point x="173" y="118" type="qcurve"/>
      <point x="297" y="132" type="line"/>
      <point x="285" y="129" type="line"/>
      <point x="283" y="129"/>
      <point x="283" y="132" type="qcurve"/>
      <point x="284" y="137" type="line"/>
      <point x="284" y="569"/>
      <point x="283" y="892" type="qcurve"/>
      <point x="283" y="1304" type="line" smooth="yes"/>
      <point x="283" y="1308"/>
      <point x="286" y="1308" type="qcurve"/>
      <point x="296" y="1305" type="line"/>
      <point x="171" y="1324" type="line" smooth="yes"/>
      <point x="158" y="1326"/>
      <point x="140" y="1333"/>
      <point x="135" y="1337" type="qcurve" smooth="yes"/>
      <point x="131" y="1341" type="line"/>
      <point x="120" y="1450" type="line"/>
      <point x="367" y="1450"/>
      <point x="421" y="1449" type="qcurve"/>
      <point x="501" y="1446"/>
      <point x="582" y="1371"/>
      <point x="618" y="1309" type="qcurve"/>
      <point x="1166" y="393" type="line"/>
      <point x="1166" y="1299"/>
      <point x="1168" y="1306"/>
      <point x="1171" y="1306" type="qcurve"/>
      <point x="1054" y="1324" type="line" smooth="yes"/>
      <point x="1040" y="1326"/>
      <point x="1022" y="1333"/>
      <point x="1017" y="1337" type="qcurve" smooth="yes"/>
      <point x="1013" y="1341" type="line"/>
      <point x="1002" y="1450" type="line"/>
      <point x="1538" y="1450" type="line"/>
      <point x="1527" y="1341" type="line"/>
      <point x="1523" y="1337" type="line" smooth="yes"/>
      <point x="1518" y="1333"/>
      <point x="1502" y="1326"/>
      <point x="1369" y="1306" type="qcurve"/>
      <point x="1372" y="1306"/>
      <point x="1374" y="1299"/>
      <point x="1374" y="-6" type="qcurve"/>
      <point x="1211" y="-6" type="line" smooth="yes"/>
      <point x="1157" y="-6"/>
      <point x="1089" y="54"/>
      <point x="1059" y="110" type="qcurve"/>
      <point x="491" y="1061" type="line"/>
      <point x="491" y="138"/>
      <point x="489" y="131"/>
      <point x="486" y="131" type="qcurve"/>
      <point x="602" y="118" type="line"/>
      <point x="624" y="114"/>
      <point x="644" y="102"/>
      <point x="644" y="101" type="qcurve"/>
    </contour>
  </outline>
</glyph>
<glyph name="O" format="1">
  <advance width="1421"/>
  <unicode hex="004F"/>
  <outline>
    <contour>
      <point x="709" y="-20" type="qcurve" smooth="yes"/>
      <point x="395" y="-20"/>
      <point x="69" y="351"/>
      <point x="69" y="732" type="qcurve" smooth="yes"/>
      <point x="69" y="1107"/>
      <point x="395" y="1476"/>
      <point x="709" y="1476" type="qcurve" smooth="yes"/>
      <point x="1025" y="1476"/>
      <point x="1350" y="1107"/>
      <point x="1350" y="732" type="qcurve" smooth="yes"/>
      <point x="1350" y="-20"/>
    </contour>
    <contour>
      <point x="707" y="122" type="qcurve" smooth="yes"/>
      <point x="840" y="122"/>
      <point x="1003" y="265"/>
      <point x="1077" y="538"/>
      <point x="1077" y="734" type="qcurve" smooth="yes"/>
      <point x="1077" y="1332"/>
      <point x="707" y="1334" type="qcurve"/>
      <point x="341" y="1334"/>
      <point x="341" y="734" type="qcurve" smooth="yes"/>
      <point x="341" y="536"/>
      <point x="411" y="263"/>
      <point x="572" y="122"/>
    </contour>
  </outline>
</glyph>
<glyph name="P" format="1">
  <advance width="1303"/>
  <unicode hex="0050"/>
  <outline>
    <contour>
      <point x="667" y="-21" type="line"/>
      <point x="467" y="-6"/>
      <point x="374" y="-6" type="qcurve" smooth="yes"/>
      <point x="281" y="-6"/>
      <point x="81" y="-21" type="qcurve"/>
      <point x="93" y="102" type="line"/>
      <point x="93" y="103"/>
      <point x="102" y="109"/>
      <point x="120" y="116"/>
      <point x="135" y="118" type="qcurve" smooth="yes"/>
      <point x="251" y="130" type="line"/>
      <point x="248" y="130"/>
      <point x="246" y="138"/>
      <point x="246" y="719" type="qcurve" smooth="yes"/>
      <point x="246" y="1299"/>
      <point x="248" y="1307"/>
      <point x="251" y="1307" type="qcurve"/>
      <point x="133" y="1325" type="line"/>
      <point x="120" y="1326"/>
      <point x="103" y="1333"/>
      <point x="98" y="1336" type="qcurve" smooth="yes"/>
      <point x="93" y="1339" type="line"/>
      <point x="81" y="1450" type="line"/>
      <point x="637" y="1450" type="line" smooth="yes"/>
      <point x="827" y="1450"/>
      <point x="1086" y="1362"/>
      <point x="1219" y="1172"/>
      <point x="1219" y="1017" type="qcurve" smooth="yes"/>
      <point x="1219" y="807"/>
      <point x="919" y="586"/>
      <point x="641" y="586" type="qcurve" smooth="yes"/>
      <point x="502" y="586" type="line"/>
      <point x="502" y="141"/>
      <point x="501" y="130"/>
      <point x="497" y="130" type="qcurve"/>
      <point x="613" y="118" type="line" smooth="yes"/>
      <point x="628" y="116"/>
      <point x="647" y="109"/>
      <point x="656" y="102"/>
      <point x="656" y="101" type="qcurve"/>
    </contour>
    <contour>
      <point x="679" y="706" type="line" smooth="yes"/>
      <point x="816" y="706"/>
      <point x="952" y="871"/>
      <point x="952" y="1014" type="qcurve" smooth="yes"/>
      <point x="952" y="1169"/>
      <point x="822" y="1316"/>
      <point x="665" y="1316" type="qcurve" smooth="yes"/>
      <point x="502" y="1316" type="line"/>
      <point x="502" y="706" type="line"/>
    </contour>
  </outline>
</glyph>
<glyph name="Q" format="1">
  <advance width="1434"/>
  <unicode hex="0051"/>
  <outline>
    <contour>
      <point x="1185" y="-275" type="qcurve"/>
      <point x="1167" y="-273" type="line"/>
      <point x="1034" y="-246"/>
      <point x="821" y="-177"/>
      <point x="698" y="-122" type="qcurve"/>
      <point x="680" y="-115" type="line"/>
      <point x="696" y="-21" type="line"/>
      <point x="709" y="-21" type="line"/>
      <point x="396" y="-21"/>
      <point x="69" y="350"/>
      <point x="69" y="731" type="qcurve" smooth="yes"/>
      <point x="69" y="1105"/>
      <point x="396" y="1475"/>
      <point x="709" y="1475" type="qcurve" smooth="yes"/>
      <point x="1024" y="1475"/>
      <point x="1349" y="1105"/>
      <point x="1349" y="731" type="qcurve" smooth="yes"/>
      <point x="1349" y="402"/>
      <point x="1109" y="37"/>
      <point x="869" y="-7" type="qcurve"/>
      <point x="976" y="-46"/>
      <point x="1160" y="-102"/>
      <point x="1279" y="-132" type="qcurve"/>
      <point x="1235" y="-255" type="line" smooth="yes"/>
      <point x="1234" y="-258"/>
      <point x="1207" y="-275"/>
    </contour>
    <contour>
      <point x="707" y="121" type="qcurve" smooth="yes"/>
      <point x="840" y="121"/>
      <point x="1003" y="264"/>
      <point x="1077" y="537"/>
      <point x="1077" y="732" type="qcurve" smooth="yes"/>
      <point x="1077" y="1330"/>
      <point x="707" y="1332" type="qcurve"/>
      <point x="341" y="1332"/>
      <point x="341" y="732" type="qcurve" smooth="yes"/>
      <point x="341" y="534"/>
      <point x="411" y="262"/>
      <point x="572" y="121"/>
    </contour>
  </outline>
</glyph>
<glyph name="R" format="1">
  <advance width="1428"/>
  <unicode hex="0052"/>
  <outline>
    <contour>
      <point x="626" y="-20" type="line"/>
      <point x="441" y="-6"/>
      <point x="333" y="-5" type="qcurve"/>
      <point x="225" y="-6"/>
      <point x="40" y="-20" type="qcurve"/>
      <point x="51" y="102" type="line"/>
      <point x="51" y="103"/>
      <point x="73" y="115"/>
      <point x="93" y="118" type="qcurve" smooth="yes"/>
      <point x="210" y="132" type="line"/>
      <point x="207" y="132"/>
      <point x="205" y="139"/>
      <point x="205" y="719" type="qcurve" smooth="yes"/>
      <point x="205" y="1296"/>
      <point x="207" y="1305"/>
      <point x="211" y="1305" type="qcurve" smooth="yes"/>
      <point x="217" y="1305" type="line"/>
      <point x="92" y="1325" type="line"/>
      <point x="73" y="1327"/>
      <point x="51" y="1340"/>
      <point x="51" y="1341" type="qcurve"/>
      <point x="40" y="1449" type="line"/>
      <point x="618" y="1449" type="line" smooth="yes"/>
      <point x="807" y="1449"/>
      <point x="1064" y="1361"/>
      <point x="1195" y="1171"/>
      <point x="1195" y="1017" type="qcurve" smooth="yes"/>
      <point x="1195" y="702"/>
      <point x="870" y="616" type="qcurve"/>
      <point x="1147" y="153" type="line"/>
      <point x="1149" y="153" type="line"/>
      <point x="1169" y="117" type="line"/>
      <point x="1283" y="104" type="line" smooth="yes"/>
      <point x="1297" y="102"/>
      <point x="1316" y="95"/>
      <point x="1325" y="88"/>
      <point x="1325" y="87" type="qcurve"/>
      <point x="1336" y="-19" type="line"/>
      <point x="1203" y="-11"/>
      <point x="1136" y="-8" type="qcurve"/>
      <point x="947" y="-5" type="line"/>
      <point x="627" y="586" type="line"/>
      <point x="461" y="586" type="line"/>
      <point x="461" y="139"/>
      <point x="460" y="132"/>
      <point x="455" y="132" type="qcurve"/>
      <point x="573" y="118" type="line" smooth="yes"/>
      <point x="595" y="115"/>
      <point x="614" y="103"/>
      <point x="614" y="101" type="qcurve"/>
    </contour>
    <contour>
      <point x="656" y="707" type="line" smooth="yes"/>
      <point x="792" y="707"/>
      <point x="929" y="871"/>
      <point x="929" y="1014" type="qcurve" smooth="yes"/>
      <point x="929" y="1169"/>
      <point x="799" y="1316"/>
      <point x="642" y="1316" type="qcurve" smooth="yes"/>
      <point x="461" y="1316" type="line"/>
      <point x="461" y="707" type="line"/>
    </contour>
  </outline>
</glyph>
<glyph name="S" format="1">
  <advance width="1173"/>
  <unicode hex="0053"/>
  <outline>
    <contour>
      <point x="524" y="-20" type="qcurve" smooth="yes"/>
      <point x="400" y="-20"/>
      <point x="144" y="37"/>
      <point x="74" y="81" type="qcurve"/>
      <point x="74" y="371" type="line"/>
      <point x="136" y="365" type="line" smooth="yes"/>
      <point x="212" y="357"/>
      <point x="276" y="345"/>
      <point x="280" y="330" type="qcurve" smooth="yes"/>
      <point x="326" y="170" type="line" smooth="yes"/>
      <point x="329" y="160"/>
      <point x="329" y="158" type="qcurve"/>
      <point x="329" y="155" type="line"/>
      <point x="330" y="155" type="line"/>
      <point x="437" y="130"/>
      <point x="533" y="130" type="qcurve" smooth="yes"/>
      <point x="656" y="130"/>
      <point x="794" y="286"/>
      <point x="794" y="403" type="qcurve" smooth="yes"/>
      <point x="794" y="513"/>
      <point x="686" y="653"/>
      <point x="557" y="700" type="qcurve" smooth="yes"/>
      <point x="464" y="734"/>
      <point x="300" y="808"/>
      <point x="174" y="903"/>
      <point x="101" y="1029"/>
      <point x="101" y="1116" type="qcurve" smooth="yes"/>
      <point x="101" y="1242"/>
      <point x="231" y="1405"/>
      <point x="462" y="1483"/>
      <point x="613" y="1483" type="qcurve" smooth="yes"/>
      <point x="765" y="1483"/>
      <point x="980" y="1457" type="qcurve"/>
      <point x="980" y="1374"/>
      <point x="985" y="1279" type="qcurve"/>
      <point x="1000" y="1048" type="line"/>
      <point x="832" y="1067" type="line"/>
      <point x="808" y="1071"/>
      <point x="786" y="1085"/>
      <point x="786" y="1089" type="qcurve"/>
      <point x="732" y="1324" type="line"/>
      <point x="732" y="1328"/>
      <point x="735" y="1328" type="qcurve"/>
      <point x="740" y="1327" type="line"/>
      <point x="669" y="1334"/>
      <point x="583" y="1334" type="qcurve" smooth="yes"/>
      <point x="503" y="1334"/>
      <point x="409" y="1272"/>
      <point x="370" y="1175"/>
      <point x="370" y="1122" type="qcurve" smooth="yes"/>
      <point x="370" y="1051"/>
      <point x="443" y="964"/>
      <point x="511" y="931" type="qcurve" smooth="yes"/>
      <point x="566" y="905"/>
      <point x="687" y="858" type="qcurve" smooth="yes"/>
      <point x="878" y="785"/>
      <point x="1075" y="571"/>
      <point x="1075" y="419" type="qcurve" smooth="yes"/>
      <point x="1075" y="300"/>
      <point x="952" y="100"/>
      <point x="707" y="-20"/>
    </contour>
  </outline>
</glyph>
<glyph name="T" format="1">
  <advance width="1424"/>
  <unicode hex="0054"/>
  <outline>
    <contour>
      <point x="1014" y="-20" type="line"/>
      <point x="894" y="-11"/>
      <point x="775" y="-6"/>
      <point x="686" y="-6" type="qcurve" smooth="yes"/>
      <point x="633" y="-6"/>
      <point x="513" y="-13"/>
      <point x="418" y="-20" type="qcurve"/>
      <point x="429" y="101" type="line"/>
      <point x="429" y="102"/>
      <point x="438" y="109"/>
      <point x="457" y="116"/>
      <point x="471" y="118" type="qcurve" smooth="yes"/>
      <point x="588" y="131" type="line"/>
      <point x="583" y="131"/>
      <point x="583" y="142" type="qcurve" smooth="yes"/>
      <point x="583" y="1310" type="line"/>
      <point x="524" y="1310"/>
      <point x="429" y="1303" type="qcurve"/>
      <point x="334" y="1298" type="line"/>
      <point x="337" y="1298"/>
      <point x="342" y="1300"/>
      <point x="344" y="1300" type="qcurve"/>
      <point x="346" y="1300"/>
      <point x="346" y="1297" type="qcurve"/>
      <point x="287" y="1007" type="line"/>
      <point x="287" y="1003"/>
      <point x="266" y="989"/>
      <point x="242" y="985" type="qcurve"/>
      <point x="99" y="970" type="line"/>
      <point x="99" y="1449" type="line"/>
      <point x="1333" y="1449" type="line"/>
      <point x="1333" y="970" type="line"/>
      <point x="1190" y="985" type="line"/>
      <point x="1166" y="989"/>
      <point x="1145" y="1003"/>
      <point x="1145" y="1007" type="qcurve"/>
      <point x="1086" y="1297" type="line"/>
      <point x="1086" y="1300"/>
      <point x="1088" y="1300" type="qcurve"/>
      <point x="1090" y="1300"/>
      <point x="1095" y="1298"/>
      <point x="1098" y="1298" type="qcurve"/>
      <point x="1047" y="1300"/>
      <point x="996" y="1304" type="qcurve" smooth="yes"/>
      <point x="906" y="1310"/>
      <point x="850" y="1310" type="qcurve"/>
      <point x="850" y="138"/>
      <point x="848" y="131"/>
      <point x="844" y="131" type="qcurve"/>
      <point x="961" y="118" type="line" smooth="yes"/>
      <point x="975" y="116"/>
      <point x="994" y="109"/>
      <point x="1003" y="102"/>
      <point x="1003" y="101" type="qcurve"/>
    </contour>
  </outline>
</glyph>
<glyph name="U" format="1">
  <advance width="1527"/>
  <unicode hex="0055"/>
  <outline>
    <contour>
      <point x="766" y="-23" type="qcurve" smooth="yes"/>
      <point x="595" y="-23"/>
      <point x="343" y="86"/>
      <point x="206" y="328"/>
      <point x="206" y="526" type="qcurve"/>
      <point x="205" y="526" type="line"/>
      <point x="205" y="1300" type="line" smooth="yes"/>
      <point x="205" y="1306"/>
      <point x="208" y="1306" type="qcurve"/>
      <point x="93" y="1324" type="line"/>
      <point x="79" y="1325"/>
      <point x="61" y="1332"/>
      <point x="56" y="1336" type="qcurve" smooth="yes"/>
      <point x="52" y="1340" type="line"/>
      <point x="40" y="1449" type="line"/>
      <point x="637" y="1449" type="line"/>
      <point x="625" y="1340" type="line"/>
      <point x="625" y="1336"/>
      <point x="609" y="1329" type="qcurve" smooth="yes"/>
      <point x="603" y="1327"/>
      <point x="469" y="1306" type="qcurve"/>
      <point x="472" y="1306"/>
      <point x="472" y="1299" type="qcurve" smooth="yes"/>
      <point x="472" y="433" type="line" smooth="yes"/>
      <point x="472" y="329"/>
      <point x="557" y="187"/>
      <point x="696" y="114"/>
      <point x="776" y="114" type="qcurve" smooth="yes"/>
      <point x="858" y="114"/>
      <point x="996" y="184"/>
      <point x="1080" y="326"/>
      <point x="1080" y="434" type="qcurve"/>
      <point x="1079" y="1299" type="line"/>
      <point x="1079" y="1306"/>
      <point x="1083" y="1306" type="qcurve"/>
      <point x="967" y="1324" type="line"/>
      <point x="953" y="1325"/>
      <point x="935" y="1332"/>
      <point x="930" y="1336" type="qcurve" smooth="yes"/>
      <point x="926" y="1340" type="line"/>
      <point x="915" y="1449" type="line"/>
      <point x="1452" y="1449" type="line"/>
      <point x="1440" y="1340" type="line"/>
      <point x="1436" y="1336" type="line" smooth="yes"/>
      <point x="1431" y="1332"/>
      <point x="1413" y="1325"/>
      <point x="1399" y="1324" type="qcurve"/>
      <point x="1282" y="1306" type="line"/>
      <point x="1285" y="1306"/>
      <point x="1287" y="1298"/>
      <point x="1287" y="496" type="qcurve" smooth="yes"/>
      <point x="1287" y="319"/>
      <point x="1226" y="204" type="qcurve" smooth="yes"/>
      <point x="1105" y="-23"/>
    </contour>
  </outline>
</glyph>
<glyph name="V" format="1">
  <advance width="1652"/>
  <unicode hex="0056"/>
  <outline>
    <contour>
      <point x="940" y="0" type="line"/>
      <point x="719" y="0" type="line"/>
      <point x="721" y="6" type="line"/>
      <point x="323" y="1026" type="line" smooth="yes"/>
      <point x="213" y="1309"/>
      <point x="213" y="1311" type="qcurve"/>
      <point x="214" y="1313" type="line"/>
      <point x="220" y="1311" type="line"/>
      <point x="98" y="1328" type="line" smooth="yes"/>
      <point x="76" y="1331"/>
      <point x="54" y="1347"/>
      <point x="53" y="1351" type="qcurve" smooth="yes"/>
      <point x="25" y="1454" type="line"/>
      <point x="672" y="1454" type="line"/>
      <point x="661" y="1346" type="line"/>
      <point x="661" y="1345"/>
      <point x="652" y="1338"/>
      <point x="634" y="1330"/>
      <point x="620" y="1329" type="qcurve"/>
      <point x="502" y="1310" type="line"/>
      <point x="506" y="1310"/>
      <point x="682" y="835" type="qcurve" smooth="yes"/>
      <point x="857" y="360" type="line"/>
      <point x="1209" y="1282" type="line"/>
      <point x="1211" y="1294"/>
      <point x="1212" y="1306"/>
      <point x="1214" y="1311"/>
      <point x="1217" y="1311" type="qcurve"/>
      <point x="1099" y="1329" type="line"/>
      <point x="1085" y="1330"/>
      <point x="1067" y="1338"/>
      <point x="1058" y="1345"/>
      <point x="1058" y="1346" type="qcurve"/>
      <point x="1046" y="1454" type="line"/>
      <point x="1642" y="1454" type="line"/>
      <point x="1603" y="1352" type="line" smooth="yes"/>
      <point x="1601" y="1346"/>
      <point x="1576" y="1331"/>
      <point x="1556" y="1329" type="qcurve"/>
      <point x="1468" y="1316" type="line" smooth="yes"/>
      <point x="1432" y="1310"/>
      <point x="1428" y="1310" type="qcurve"/>
      <point x="1429" y="1310" type="line"/>
      <point x="1439" y="1313"/>
      <point x="1442" y="1316" type="qcurve"/>
    </contour>
  </outline>
</glyph>
<glyph name="W" format="1">
  <advance width="2026"/>
  <unicode hex="0057"/>
  <outline>
    <contour>
      <point x="1485" y="0" type="qcurve"/>
      <point x="1277" y="0" type="line"/>
      <point x="1035" y="803" type="line"/>
      <point x="808" y="0" type="line"/>
      <point x="599" y="0" type="line"/>
      <point x="201" y="1306" type="line"/>
      <point x="202" y="1308" type="line"/>
      <point x="208" y="1306" type="line"/>
      <point x="87" y="1324" type="line" smooth="yes"/>
      <point x="65" y="1327"/>
      <point x="44" y="1341"/>
      <point x="43" y="1345" type="qcurve" smooth="yes"/>
      <point x="19" y="1449" type="line"/>
      <point x="666" y="1449" type="line"/>
      <point x="650" y="1342" type="line"/>
      <point x="650" y="1341"/>
      <point x="630" y="1327"/>
      <point x="609" y="1324" type="qcurve" smooth="yes"/>
      <point x="490" y="1306" type="line"/>
      <point x="496" y="1306"/>
      <point x="496" y="1288" type="qcurve"/>
      <point x="725" y="439" type="line"/>
      <point x="927" y="1157" type="line"/>
      <point x="879" y="1305" type="line"/>
      <point x="879" y="1308"/>
      <point x="881" y="1308" type="qcurve"/>
      <point x="881" y="1307" type="line"/>
      <point x="756" y="1330"/>
      <point x="756" y="1345" type="qcurve"/>
      <point x="732" y="1449" type="line"/>
      <point x="1344" y="1449" type="line"/>
      <point x="1328" y="1342" type="line"/>
      <point x="1328" y="1341"/>
      <point x="1308" y="1327"/>
      <point x="1287" y="1324" type="qcurve" smooth="yes"/>
      <point x="1168" y="1306" type="line"/>
      <point x="1174" y="1306"/>
      <point x="1174" y="1288" type="qcurve"/>
      <point x="1186" y="1237"/>
      <point x="1400" y="447" type="qcurve"/>
      <point x="1627" y="1285" type="line"/>
      <point x="1627" y="1298"/>
      <point x="1629" y="1305"/>
      <point x="1633" y="1305" type="qcurve" smooth="yes"/>
      <point x="1639" y="1305" type="line"/>
      <point x="1511" y="1324" type="line" smooth="yes"/>
      <point x="1492" y="1327"/>
      <point x="1470" y="1341"/>
      <point x="1470" y="1343" type="qcurve"/>
      <point x="1448" y="1449" type="line"/>
      <point x="2045" y="1449" type="line"/>
      <point x="2015" y="1347" type="line"/>
      <point x="2006" y="1323"/>
      <point x="1900" y="1313" type="qcurve"/>
      <point x="1851" y="1306" type="line"/>
      <point x="1854" y="1306"/>
      <point x="1854" y="1303" type="qcurve"/>
      <point x="1853" y="1299"/>
      <point x="1853" y="1294"/>
      <point x="1849" y="1289"/>
    </contour>
  </outline>
</glyph>
<glyph name="X" format="1">
  <advance width="1456"/>
  <unicode hex="0058"/>
  <outline>
    <contour>
      <point x="1456" y="-20" type="line"/>
      <point x="1265" y="-5"/>
      <point x="1133" y="-5" type="qcurve" smooth="yes"/>
      <point x="1003" y="-5"/>
      <point x="811" y="-20" type="qcurve"/>
      <point x="821" y="101" type="line"/>
      <point x="821" y="102"/>
      <point x="826" y="106" type="qcurve" smooth="yes"/>
      <point x="837" y="114"/>
      <point x="864" y="118" type="qcurve"/>
      <point x="985" y="131" type="line"/>
      <point x="985" y="133" type="line"/>
      <point x="985" y="135"/>
      <point x="982" y="143"/>
      <point x="979" y="151"/>
      <point x="974" y="160"/>
      <point x="688" y="600" type="qcurve"/>
      <point x="393" y="159"/>
      <point x="385" y="143"/>
      <point x="385" y="137" type="qcurve" smooth="yes"/>
      <point x="385" y="132"/>
      <point x="388" y="130" type="qcurve"/>
      <point x="504" y="118" type="line" smooth="yes"/>
      <point x="519" y="116"/>
      <point x="538" y="109"/>
      <point x="547" y="102"/>
      <point x="547" y="101" type="qcurve"/>
      <point x="560" y="-20" type="line"/>
      <point x="383" y="-7"/>
      <point x="280" y="-6" type="qcurve"/>
      <point x="178" y="-7"/>
      <point x="0" y="-20" type="qcurve"/>
      <point x="11" y="103" type="line"/>
      <point x="15" y="106" type="line" smooth="yes"/>
      <point x="19" y="109"/>
      <point x="38" y="116"/>
      <point x="52" y="118" type="qcurve" smooth="yes"/>
      <point x="167" y="131" type="line"/>
      <point x="163" y="130" type="line"/>
      <point x="162" y="130"/>
      <point x="162" y="131" type="qcurve"/>
      <point x="164" y="135"/>
      <point x="583" y="759" type="qcurve"/>
      <point x="242" y="1279" type="line"/>
      <point x="224" y="1302"/>
      <point x="224" y="1305" type="qcurve"/>
      <point x="228" y="1305" type="line"/>
      <point x="198" y="1310"/>
      <point x="173" y="1313" type="qcurve" smooth="yes"/>
      <point x="72" y="1324"/>
      <point x="64" y="1345" type="qcurve"/>
      <point x="34" y="1449" type="line"/>
      <point x="696" y="1449" type="line"/>
      <point x="685" y="1339" type="line"/>
      <point x="681" y="1336" type="line" smooth="yes"/>
      <point x="677" y="1332"/>
      <point x="668" y="1329" type="qcurve"/>
      <point x="665" y="1327"/>
      <point x="517" y="1303" type="qcurve"/>
      <point x="526" y="1304" type="line"/>
      <point x="756" y="938" type="line"/>
      <point x="1000" y="1302"/>
      <point x="1000" y="1303" type="qcurve"/>
      <point x="1000" y="1304"/>
      <point x="998" y="1306" type="qcurve"/>
      <point x="861" y="1327"/>
      <point x="856" y="1329" type="qcurve" smooth="yes"/>
      <point x="838" y="1337"/>
      <point x="838" y="1341" type="qcurve"/>
      <point x="825" y="1449" type="line"/>
      <point x="1427" y="1449" type="line"/>
      <point x="1387" y="1348" type="line"/>
      <point x="1385" y="1341"/>
      <point x="1360" y="1326"/>
      <point x="1341" y="1324" type="qcurve"/>
      <point x="1225" y="1307" type="line"/>
      <point x="859" y="782" type="line"/>
      <point x="1280" y="145" type="line" smooth="yes"/>
      <point x="1285" y="137"/>
      <point x="1285" y="133" type="qcurve"/>
      <point x="1285" y="131"/>
      <point x="1283" y="131" type="qcurve"/>
      <point x="1400" y="118" type="line" smooth="yes"/>
      <point x="1415" y="116"/>
      <point x="1434" y="109"/>
      <point x="1443" y="102"/>
      <point x="1443" y="101" type="qcurve"/>
    </contour>
  </outline>
</glyph>
<glyph name="Y" format="1">
  <advance width="1517"/>
  <unicode hex="0059"/>
  <outline>
    <contour>
      <point x="1098" y="-20" type="line"/>
      <point x="999" y="-13"/>
      <point x="865" y="-6"/>
      <point x="806" y="-5" type="qcurve"/>
      <point x="747" y="-6"/>
      <point x="612" y="-13"/>
      <point x="513" y="-20" type="qcurve"/>
      <point x="524" y="102" type="line"/>
      <point x="524" y="103"/>
      <point x="533" y="110"/>
      <point x="552" y="117"/>
      <point x="567" y="119" type="qcurve" smooth="yes"/>
      <point x="683" y="132" type="line"/>
      <point x="680" y="132"/>
      <point x="678" y="138"/>
      <point x="678" y="464" type="qcurve"/>
      <point x="467" y="872"/>
      <point x="433" y="942" type="qcurve"/>
      <point x="246" y="1299"/>
      <point x="246" y="1299" type="qcurve"/>
      <point x="244" y="1306" type="line"/>
      <point x="248" y="1306" type="line"/>
      <point x="252" y="1304" type="line"/>
      <point x="124" y="1324" type="line"/>
      <point x="106" y="1326"/>
      <point x="80" y="1341"/>
      <point x="77" y="1348" type="qcurve" smooth="yes"/>
      <point x="36" y="1449" type="line"/>
      <point x="682" y="1449" type="line"/>
      <point x="685" y="1334" type="line"/>
      <point x="684" y="1335" type="line"/>
      <point x="679" y="1327"/>
      <point x="647" y="1324" type="qcurve"/>
      <point x="533" y="1306" type="line"/>
      <point x="532" y="1302" type="line"/>
      <point x="532" y="1298"/>
      <point x="537" y="1286"/>
      <point x="817" y="746" type="qcurve"/>
      <point x="1065" y="1296"/>
      <point x="1069" y="1302" type="qcurve" smooth="yes"/>
      <point x="1070" y="1304" type="line"/>
      <point x="949" y="1324" type="line" smooth="yes"/>
      <point x="934" y="1326"/>
      <point x="916" y="1333"/>
      <point x="913" y="1336" type="qcurve" smooth="yes"/>
      <point x="909" y="1339" type="line"/>
      <point x="908" y="1449" type="line"/>
      <point x="1504" y="1449" type="line"/>
      <point x="1457" y="1350" type="line" smooth="yes"/>
      <point x="1453" y="1343"/>
      <point x="1427" y="1326"/>
      <point x="1407" y="1323" type="qcurve" smooth="yes"/>
      <point x="1285" y="1306" type="line"/>
      <point x="1287" y="1306"/>
      <point x="1287" y="1305" type="qcurve"/>
      <point x="934" y="524" type="line"/>
      <point x="934" y="136" type="line"/>
      <point x="933" y="132"/>
      <point x="928" y="132" type="qcurve"/>
      <point x="1044" y="119" type="line" smooth="yes"/>
      <point x="1059" y="117"/>
      <point x="1078" y="110"/>
      <point x="1087" y="103"/>
      <point x="1087" y="102" type="qcurve"/>
    </contour>
  </outline>
</glyph>
<glyph name="Z" format="1">
  <advance width="1217"/>
  <unicode hex="005A"/>
  <outline>
    <contour>
      <point x="1166" y="0" type="line"/>
      <point x="27" y="0" type="line"/>
      <point x="27" y="120" type="line"/>
      <point x="810" y="1307" type="line"/>
      <point x="713" y="1307"/>
      <point x="595" y="1305"/>
      <point x="449" y="1299"/>
      <point x="320" y="1292" type="qcurve"/>
      <point x="328" y="1294" type="line"/>
      <point x="332" y="1294"/>
      <point x="332" y="1290" type="qcurve"/>
      <point x="283" y="1099" type="line" smooth="yes"/>
      <point x="279" y="1084"/>
      <point x="223" y="1071"/>
      <point x="158" y="1064" type="qcurve"/>
      <point x="95" y="1056" type="line"/>
      <point x="95" y="1452" type="line"/>
      <point x="1145" y="1452" type="line"/>
      <point x="1145" y="1357" type="line"/>
      <point x="360" y="150" type="line"/>
      <point x="577" y="150" type="line"/>
      <point x="896" y="156" type="line"/>
      <point x="886" y="155" type="line"/>
      <point x="883" y="155"/>
      <point x="883" y="157" type="qcurve"/>
      <point x="951" y="391" type="line" smooth="yes"/>
      <point x="959" y="420"/>
      <point x="984" y="445"/>
      <point x="1009" y="448" type="qcurve" smooth="yes"/>
      <point x="1164" y="466" type="line"/>
    </contour>
  </outline>
</glyph>
<glyph name="bracketleft" format="1">
  <advance width="688"/>
  <unicode hex="005B"/>
  <outline>
    <contour>
      <point x="538" y="-335" type="line"/>
      <point x="90" y="-335" type="line"/>
      <point x="90" y="1690" type="line"/>
      <point x="538" y="1690" type="line"/>
      <point x="530" y="1607" type="line"/>
      <point x="530" y="1606"/>
      <point x="521" y="1600"/>
      <point x="502" y="1592"/>
      <point x="487" y="1590" type="qcurve"/>
      <point x="321" y="1576" type="line"/>
      <point x="323" y="1577" type="line"/>
      <point x="328" y="1577"/>
      <point x="333" y="1576"/>
      <point x="334" y="1569"/>
      <point x="334" y="678" type="qcurve" smooth="yes"/>
      <point x="334" y="-214"/>
      <point x="333" y="-222"/>
      <point x="329" y="-222"/>
      <point x="327" y="-222" type="qcurve"/>
      <point x="487" y="-235" type="line"/>
      <point x="502" y="-237"/>
      <point x="521" y="-245"/>
      <point x="526" y="-248" type="qcurve" smooth="yes"/>
      <point x="530" y="-252" type="line"/>
    </contour>
  </outline>
</glyph>
<glyph name="bracketright" format="1">
  <advance width="728"/>
  <unicode hex="005D"/>
  <outline>
    <contour>
      <point x="538" y="-335" type="line"/>
      <point x="90" y="-335" type="line"/>
      <point x="98" y="-252" type="line"/>
      <point x="103" y="-248" type="line" smooth="yes"/>
      <point x="108" y="-245"/>
      <point x="127" y="-237"/>
      <point x="141" y="-235" type="qcurve"/>
      <point x="305" y="-222" type="line"/>
      <point x="301" y="-222" type="line"/>
      <point x="299" y="-222"/>
      <point x="295" y="-222"/>
      <point x="294" y="-214"/>
      <point x="294" y="678" type="qcurve" smooth="yes"/>
      <point x="294" y="1569"/>
      <point x="295" y="1576"/>
      <point x="300" y="1577"/>
      <point x="305" y="1577" type="qcurve"/>
      <point x="306" y="1576"/>
      <point x="308" y="1576" type="qcurve"/>
      <point x="141" y="1590" type="line"/>
      <point x="127" y="1592"/>
      <point x="108" y="1600"/>
      <point x="98" y="1606"/>
      <point x="98" y="1607" type="qcurve"/>
      <point x="90" y="1690" type="line"/>
      <point x="538" y="1690" type="line"/>
    </contour>
  </outline>
</glyph>
<glyph name="underscore" format="1">
  <advance width="1094"/>
  <unicode hex="005F"/>
  <outline>
    <contour>
      <point x="0" y="-120" type="line"/>
      <point x="1094" y="-120" type="line"/>
      <point x="1094" y="-260" type="line"/>
      <point x="0" y="-260" type="line"/>
    </contour>
  </outline>
</glyph>
<glyph name="grave" format="1">
  <advance width="1069"/>
  <unicode hex="0060"/>
  <outline>
    <contour>
      <point x="568" y="1245" type="qcurve" smooth="yes"/>
      <point x="549" y="1245"/>
      <point x="517" y="1259"/>
      <point x="508" y="1267" type="qcurve" smooth="yes"/>
      <point x="243" y="1490" type="line"/>
      <point x="435" y="1563" type="line"/>
      <point x="451" y="1571"/>
      <point x="471" y="1571" type="qcurve" smooth="yes"/>
      <point x="489" y="1571"/>
      <point x="523" y="1554"/>
      <point x="528" y="1545" type="qcurve"/>
      <point x="701" y="1289" type="line"/>
      <point x="598" y="1249" type="line"/>
      <point x="596" y="1249" type="line"/>
      <point x="593" y="1248"/>
      <point x="576" y="1245"/>
    </contour>
  </outline>
</glyph>
<glyph name="b" format="1">
  <advance width="1319"/>
  <unicode hex="0062"/>
  <outline>
    <contour>
      <point x="771" y="-20" type="qcurve" smooth="yes"/>
      <point x="670" y="-20"/>
      <point x="514" y="51"/>
      <point x="418" y="163"/>
      <point x="406" y="227" type="qcurve"/>
      <point x="460" y="227" type="line"/>
      <point x="460" y="1" type="line"/>
      <point x="352" y="1" type="line" smooth="yes"/>
      <point x="254" y="1"/>
      <point x="64" y="-12" type="qcurve"/>
      <point x="74" y="99" type="line"/>
      <point x="78" y="102" type="line" smooth="yes"/>
      <point x="83" y="105"/>
      <point x="101" y="113"/>
      <point x="115" y="115" type="qcurve" smooth="yes"/>
      <point x="221" y="127" type="line"/>
      <point x="218" y="127"/>
      <point x="216" y="131"/>
      <point x="216" y="776" type="qcurve" smooth="yes"/>
      <point x="216" y="1421"/>
      <point x="218" y="1425"/>
      <point x="222" y="1425" type="qcurve"/>
      <point x="119" y="1438" type="line" smooth="yes"/>
      <point x="98" y="1441"/>
      <point x="78" y="1453"/>
      <point x="78" y="1454" type="qcurve"/>
      <point x="77" y="1455" type="line"/>
      <point x="69" y="1538" type="line"/>
      <point x="460" y="1538" type="line"/>
      <point x="460" y="868" type="line"/>
      <point x="406" y="868" type="line"/>
      <point x="425" y="926"/>
      <point x="519" y="1028"/>
      <point x="667" y="1093"/>
      <point x="766" y="1093" type="qcurve" smooth="yes"/>
      <point x="912" y="1093"/>
      <point x="1123" y="969"/>
      <point x="1238" y="720"/>
      <point x="1238" y="532" type="qcurve" smooth="yes"/>
      <point x="1238" y="372"/>
      <point x="1140" y="122"/>
      <point x="934" y="-20"/>
    </contour>
    <contour>
      <point x="726" y="115" type="qcurve" smooth="yes"/>
      <point x="850" y="115"/>
      <point x="970" y="315"/>
      <point x="970" y="533" type="qcurve" smooth="yes"/>
      <point x="970" y="746"/>
      <point x="851" y="956"/>
      <point x="722" y="956" type="qcurve" smooth="yes"/>
      <point x="610" y="956"/>
      <point x="478" y="741"/>
      <point x="478" y="533" type="qcurve" smooth="yes"/>
      <point x="478" y="334"/>
      <point x="617" y="115"/>
    </contour>
  </outline>
</glyph>
<glyph name="c" format="1">
  <advance width="1125"/>
  <unicode hex="0063"/>
  <outline>
    <contour>
      <point x="617" y="-20" type="qcurve" smooth="yes"/>
      <point x="357" y="-20"/>
      <point x="79" y="258"/>
      <point x="79" y="538" type="qcurve" smooth="yes"/>
      <point x="79" y="813"/>
      <point x="351" y="1088"/>
      <point x="612" y="1088" type="qcurve" smooth="yes"/>
      <point x="733" y="1088"/>
      <point x="961" y="1015"/>
      <point x="1002" y="952" type="qcurve"/>
      <point x="1003" y="945"/>
      <point x="1003" y="699" type="qcurve"/>
      <point x="937" y="711" type="line" smooth="yes"/>
      <point x="872" y="722"/>
      <point x="813" y="737"/>
      <point x="809" y="750" type="qcurve" smooth="yes"/>
      <point x="758" y="900" type="line" smooth="yes"/>
      <point x="752" y="919"/>
      <point x="739" y="926" type="qcurve"/>
      <point x="690" y="959"/>
      <point x="612" y="959" type="qcurve" smooth="yes"/>
      <point x="531" y="959"/>
      <point x="411" y="871"/>
      <point x="344" y="685"/>
      <point x="344" y="538" type="qcurve" smooth="yes"/>
      <point x="344" y="391"/>
      <point x="415" y="199"/>
      <point x="543" y="104"/>
      <point x="629" y="104" type="qcurve" smooth="yes"/>
      <point x="763" y="104"/>
      <point x="830" y="213" type="qcurve"/>
      <point x="876" y="291"/>
      <point x="886" y="382" type="qcurve"/>
      <point x="1044" y="354" type="line"/>
      <point x="1032" y="250"/>
      <point x="923" y="82"/>
      <point x="741" y="-20"/>
    </contour>
  </outline>
</glyph>
<glyph name="d" format="1">
  <advance width="1310"/>
  <unicode hex="0064"/>
  <outline>
    <contour>
      <point x="546" y="-20" type="qcurve" smooth="yes"/>
      <point x="384" y="-20"/>
      <point x="178" y="122"/>
      <point x="79" y="372"/>
      <point x="79" y="532" type="qcurve" smooth="yes"/>
      <point x="79" y="720"/>
      <point x="194" y="969"/>
      <point x="406" y="1093"/>
      <point x="551" y="1093" type="qcurve" smooth="yes"/>
      <point x="651" y="1093"/>
      <point x="799" y="1028"/>
      <point x="892" y="926"/>
      <point x="912" y="868" type="qcurve"/>
      <point x="858" y="868" type="line"/>
      <point x="858" y="1418"/>
      <point x="860" y="1425"/>
      <point x="865" y="1425" type="qcurve"/>
      <point x="761" y="1438" type="line" smooth="yes"/>
      <point x="747" y="1440"/>
      <point x="729" y="1447"/>
      <point x="724" y="1451" type="qcurve" smooth="yes"/>
      <point x="720" y="1455" type="line"/>
      <point x="712" y="1538" type="line"/>
      <point x="1102" y="1538" type="line"/>
      <point x="1102" y="120" type="line"/>
      <point x="1098" y="123"/>
      <point x="1087" y="127"/>
      <point x="1085" y="127" type="qcurve"/>
      <point x="1083" y="128" type="line"/>
      <point x="1198" y="115" type="line"/>
      <point x="1235" y="109"/>
      <point x="1238" y="89" type="qcurve"/>
      <point x="1239" y="90" type="line"/>
      <point x="1249" y="-12" type="line"/>
      <point x="1059" y="1"/>
      <point x="960" y="1" type="qcurve" smooth="yes"/>
      <point x="858" y="1" type="line"/>
      <point x="858" y="227" type="line"/>
      <point x="912" y="227" type="line"/>
      <point x="900" y="163"/>
      <point x="804" y="51"/>
      <point x="648" y="-20"/>
    </contour>
    <contour>
      <point x="592" y="115" type="qcurve" smooth="yes"/>
      <point x="701" y="115"/>
      <point x="840" y="334"/>
      <point x="840" y="533" type="qcurve" smooth="yes"/>
      <point x="840" y="741"/>
      <point x="707" y="956"/>
      <point x="595" y="956" type="qcurve" smooth="yes"/>
      <point x="467" y="956"/>
      <point x="348" y="746"/>
      <point x="348" y="533" type="qcurve" smooth="yes"/>
      <point x="348" y="315"/>
      <point x="468" y="115"/>
    </contour>
  </outline>
</glyph>
<glyph name="e" format="1">
  <advance width="1164"/>
  <unicode hex="0065"/>
  <outline>
    <contour>
      <point x="629" y="-20" type="qcurve" smooth="yes"/>
      <point x="456" y="-20"/>
      <point x="210" y="103"/>
      <point x="79" y="351"/>
      <point x="79" y="538" type="qcurve" smooth="yes"/>
      <point x="79" y="700"/>
      <point x="183" y="948"/>
      <point x="414" y="1087"/>
      <point x="600" y="1088" type="qcurve"/>
      <point x="869" y="1086"/>
      <point x="985" y="916" type="qcurve" smooth="yes"/>
      <point x="1083" y="772"/>
      <point x="1083" y="523" type="qcurve"/>
      <point x="344" y="523" type="line"/>
      <point x="349" y="310"/>
      <point x="502" y="104"/>
      <point x="628" y="104" type="qcurve" smooth="yes"/>
      <point x="855" y="104"/>
      <point x="912" y="319" type="qcurve"/>
      <point x="1075" y="319" type="line"/>
      <point x="1057" y="224"/>
      <point x="945" y="71"/>
      <point x="759" y="-20"/>
    </contour>
    <contour>
      <point x="814" y="629" type="line"/>
      <point x="810" y="689"/>
      <point x="791" y="805"/>
      <point x="745" y="900"/>
      <point x="657" y="958"/>
      <point x="583" y="958" type="qcurve"/>
      <point x="498" y="956"/>
      <point x="403" y="862"/>
      <point x="359" y="713"/>
      <point x="351" y="629" type="qcurve"/>
    </contour>
  </outline>
</glyph>
<glyph name="f" format="1">
  <advance width="848"/>
  <unicode hex="0066"/>
  <outline>
    <contour>
      <point x="639" y="-19" type="line"/>
      <point x="460" y="-5"/>
      <point x="353" y="-5" type="qcurve" smooth="yes"/>
      <point x="256" y="-5"/>
      <point x="76" y="-19" type="qcurve"/>
      <point x="87" y="92" type="line"/>
      <point x="87" y="93"/>
      <point x="94" y="99"/>
      <point x="112" y="107"/>
      <point x="127" y="109" type="qcurve" smooth="yes"/>
      <point x="234" y="121" type="line"/>
      <point x="230" y="121"/>
      <point x="228" y="127"/>
      <point x="228" y="944" type="qcurve"/>
      <point x="77" y="944" type="line"/>
      <point x="77" y="1061" type="line"/>
      <point x="228" y="1061" type="line"/>
      <point x="228" y="1279" type="line" smooth="yes"/>
      <point x="228" y="1420"/>
      <point x="385" y="1569"/>
      <point x="555" y="1571" type="qcurve"/>
      <point x="607" y="1571"/>
      <point x="736" y="1543"/>
      <point x="777" y="1518" type="qcurve"/>
      <point x="715" y="1369" type="line"/>
      <point x="653" y="1404" type="line" smooth="yes"/>
      <point x="622" y="1422"/>
      <point x="589" y="1437"/>
      <point x="572" y="1437" type="qcurve" smooth="yes"/>
      <point x="536" y="1437"/>
      <point x="487" y="1375"/>
      <point x="487" y="1300" type="qcurve" smooth="yes"/>
      <point x="487" y="1061" type="line"/>
      <point x="692" y="1061" type="line"/>
      <point x="692" y="944" type="line"/>
      <point x="487" y="944" type="line"/>
      <point x="487" y="135"/>
      <point x="488" y="127" type="qcurve"/>
      <point x="488" y="120"/>
      <point x="484" y="120" type="qcurve"/>
      <point x="473" y="122" type="line"/>
      <point x="588" y="109" type="line" smooth="yes"/>
      <point x="603" y="107"/>
      <point x="621" y="99"/>
      <point x="628" y="93"/>
      <point x="628" y="92" type="qcurve"/>
    </contour>
  </outline>
</glyph>
<glyph name="g" format="1">
  <advance width="1153"/>
  <unicode hex="0067"/>
  <outline>
    <contour>
      <point x="515" y="-486" type="qcurve" smooth="yes"/>
      <point x="298" y="-486"/>
      <point x="28" y="-330"/>
      <point x="28" y="-205" type="qcurve" smooth="yes"/>
      <point x="28" y="-156"/>
      <point x="71" y="-72"/>
      <point x="141" y="-1"/>
      <point x="182" y="27" type="qcurve"/>
      <point x="121" y="35"/>
      <point x="35" y="115"/>
      <point x="35" y="169" type="qcurve"/>
      <point x="39" y="234"/>
      <point x="158" y="375"/>
      <point x="229" y="424" type="qcurve"/>
      <point x="158" y="479"/>
      <point x="84" y="623"/>
      <point x="84" y="719" type="qcurve" smooth="yes"/>
      <point x="84" y="841"/>
      <point x="195" y="1006"/>
      <point x="398" y="1090"/>
      <point x="534" y="1090" type="qcurve" smooth="yes"/>
      <point x="1044" y="1090" type="line"/>
      <point x="1037" y="1018" type="line"/>
      <point x="1036" y="1018"/>
      <point x="1031" y="1015"/>
      <point x="1013" y="1008"/>
      <point x="999" y="1006" type="qcurve" smooth="yes"/>
      <point x="863" y="990" type="line"/>
      <point x="833" y="1001" type="line"/>
      <point x="831" y="998" type="line"/>
      <point x="838" y="995" type="line" smooth="yes"/>
      <point x="857" y="988"/>
      <point x="901" y="961"/>
      <point x="922" y="932" type="qcurve" smooth="yes"/>
      <point x="990" y="835"/>
      <point x="990" y="719" type="qcurve" smooth="yes"/>
      <point x="990" y="596"/>
      <point x="876" y="429"/>
      <point x="671" y="345"/>
      <point x="534" y="345" type="qcurve" smooth="yes"/>
      <point x="396" y="345"/>
      <point x="343" y="368" type="qcurve"/>
      <point x="319" y="356"/>
      <point x="259" y="281"/>
      <point x="256" y="225" type="qcurve"/>
      <point x="256" y="187"/>
      <point x="282" y="165"/>
      <point x="305" y="165" type="qcurve" smooth="yes"/>
      <point x="708" y="165" type="line" smooth="yes"/>
      <point x="884" y="165"/>
      <point x="991" y="108" type="qcurve" smooth="yes"/>
      <point x="1122" y="39"/>
      <point x="1122" y="-119" type="qcurve" smooth="yes"/>
      <point x="1122" y="-180"/>
      <point x="1037" y="-309"/>
      <point x="879" y="-418"/>
      <point x="655" y="-486"/>
    </contour>
    <contour>
      <point x="534" y="433" type="qcurve" smooth="yes"/>
      <point x="621" y="433"/>
      <point x="721" y="572"/>
      <point x="721" y="719" type="qcurve" smooth="yes"/>
      <point x="721" y="820"/>
      <point x="673" y="945"/>
      <point x="589" y="1002"/>
      <point x="534" y="1002" type="qcurve" smooth="yes"/>
      <point x="451" y="1002"/>
      <point x="349" y="870"/>
      <point x="349" y="719" type="qcurve" smooth="yes"/>
      <point x="349" y="433"/>
    </contour>
    <contour>
      <point x="553" y="-366" type="qcurve" smooth="yes"/>
      <point x="722" y="-366"/>
      <point x="922" y="-251"/>
      <point x="922" y="-169" type="qcurve" smooth="yes"/>
      <point x="922" y="-106"/>
      <point x="859" y="-37"/>
      <point x="768" y="-9"/>
      <point x="727" y="-9" type="qcurve" smooth="yes"/>
      <point x="349" y="-9" type="line"/>
      <point x="343" y="-13" type="line" smooth="yes"/>
      <point x="329" y="-21"/>
      <point x="284" y="-58"/>
      <point x="246" y="-126"/>
      <point x="246" y="-179" type="qcurve" smooth="yes"/>
      <point x="246" y="-250"/>
      <point x="331" y="-331"/>
      <point x="470" y="-366"/>
    </contour>
  </outline>
</glyph>
<glyph name="h" format="1">
  <advance width="1408"/>
  <unicode hex="0068"/>
  <outline>
    <contour>
      <point x="1347" y="-19" type="line"/>
      <point x="1164" y="-6"/>
      <point x="1073" y="-6" type="qcurve" smooth="yes"/>
      <point x="981" y="-6"/>
      <point x="798" y="-19" type="qcurve"/>
      <point x="809" y="93" type="line"/>
      <point x="813" y="96" type="line" smooth="yes"/>
      <point x="818" y="99"/>
      <point x="836" y="106"/>
      <point x="850" y="108" type="qcurve" smooth="yes"/>
      <point x="956" y="120" type="line"/>
      <point x="951" y="120"/>
      <point x="951" y="130" type="qcurve" smooth="yes"/>
      <point x="951" y="729" type="line" smooth="yes"/>
      <point x="951" y="824"/>
      <point x="859" y="927"/>
      <point x="767" y="927" type="qcurve" smooth="yes"/>
      <point x="651" y="927"/>
      <point x="570" y="844" type="qcurve"/>
      <point x="476" y="754"/>
      <point x="476" y="606" type="qcurve" smooth="yes"/>
      <point x="476" y="127"/>
      <point x="474" y="120"/>
      <point x="470" y="120" type="qcurve"/>
      <point x="576" y="108" type="line" smooth="yes"/>
      <point x="590" y="106"/>
      <point x="608" y="99"/>
      <point x="613" y="96" type="qcurve" smooth="yes"/>
      <point x="617" y="93" type="line"/>
      <point x="628" y="-19" type="line"/>
      <point x="445" y="-6"/>
      <point x="353" y="-6" type="qcurve" smooth="yes"/>
      <point x="262" y="-6"/>
      <point x="79" y="-19" type="qcurve"/>
      <point x="90" y="92" type="line"/>
      <point x="90" y="93"/>
      <point x="98" y="99"/>
      <point x="117" y="106"/>
      <point x="131" y="108" type="qcurve" smooth="yes"/>
      <point x="237" y="120" type="line"/>
      <point x="233" y="120"/>
      <point x="231" y="127"/>
      <point x="231" y="770" type="qcurve" smooth="yes"/>
      <point x="231" y="1413"/>
      <point x="233" y="1420"/>
      <point x="236" y="1420" type="qcurve"/>
      <point x="135" y="1433" type="line" smooth="yes"/>
      <point x="121" y="1435"/>
      <point x="102" y="1442"/>
      <point x="97" y="1446" type="qcurve" smooth="yes"/>
      <point x="93" y="1449" type="line"/>
      <point x="85" y="1532" type="line"/>
      <point x="476" y="1532" type="line"/>
      <point x="476" y="862" type="line"/>
      <point x="421" y="862" type="line"/>
      <point x="432" y="910"/>
      <point x="525" y="1013"/>
      <point x="685" y="1088"/>
      <point x="796" y="1088" type="qcurve" smooth="yes"/>
      <point x="1002" y="1088"/>
      <point x="1195" y="911"/>
      <point x="1195" y="742" type="qcurve" smooth="yes"/>
      <point x="1195" y="129" type="line" smooth="yes"/>
      <point x="1195" y="120"/>
      <point x="1191" y="120" type="qcurve"/>
      <point x="1295" y="108" type="line" smooth="yes"/>
      <point x="1309" y="106"/>
      <point x="1328" y="99"/>
      <point x="1332" y="96" type="qcurve" smooth="yes"/>
      <point x="1336" y="93" type="line"/>
    </contour>
  </outline>
</glyph>
<glyph name="i" format="1">
  <advance width="683"/>
  <unicode hex="0069"/>
  <outline>
    <contour>
      <point x="627" y="-20" type="line"/>
      <point x="445" y="-7"/>
      <point x="353" y="-7" type="qcurve" smooth="yes"/>
      <point x="262" y="-7"/>
      <point x="79" y="-20" type="qcurve"/>
      <point x="89" y="91" type="line"/>
      <point x="89" y="92"/>
      <point x="109" y="104"/>
      <point x="130" y="107" type="qcurve" smooth="yes"/>
      <point x="237" y="119" type="line"/>
      <point x="233" y="119"/>
      <point x="231" y="126"/>
      <point x="231" y="533" type="qcurve" smooth="yes"/>
      <point x="231" y="940"/>
      <point x="233" y="947"/>
      <point x="236" y="947" type="qcurve"/>
      <point x="134" y="960" type="line" smooth="yes"/>
      <point x="120" y="962"/>
      <point x="102" y="969"/>
      <point x="97" y="973" type="qcurve" smooth="yes"/>
      <point x="93" y="977" type="line"/>
      <point x="84" y="1059" type="line"/>
      <point x="475" y="1059" type="line"/>
      <point x="475" y="124" type="line" smooth="yes"/>
      <point x="475" y="118"/>
      <point x="472" y="118" type="qcurve"/>
      <point x="462" y="120" type="line"/>
      <point x="576" y="107" type="line" smooth="yes"/>
      <point x="590" y="105"/>
      <point x="608" y="98"/>
      <point x="613" y="95" type="qcurve" smooth="yes"/>
      <point x="617" y="92" type="line"/>
    </contour>
    <contour>
      <point x="339" y="1272" type="qcurve" smooth="yes"/>
      <point x="262" y="1272"/>
      <point x="192" y="1345"/>
      <point x="192" y="1406" type="qcurve" smooth="yes"/>
      <point x="192" y="1463"/>
      <point x="263" y="1531"/>
      <point x="339" y="1531" type="qcurve" smooth="yes"/>
      <point x="413" y="1531"/>
      <point x="489" y="1463"/>
      <point x="489" y="1406" type="qcurve" smooth="yes"/>
      <point x="489" y="1345"/>
      <point x="414" y="1272"/>
    </contour>
  </outline>
</glyph>
<glyph name="j" format="1">
  <advance width="710"/>
  <unicode hex="006A"/>
  <outline>
    <contour>
      <point x="373" y="1275" type="qcurve" smooth="yes"/>
      <point x="298" y="1275"/>
      <point x="229" y="1346"/>
      <point x="229" y="1405" type="qcurve" smooth="yes"/>
      <point x="229" y="1460"/>
      <point x="299" y="1527"/>
      <point x="373" y="1527" type="qcurve" smooth="yes"/>
      <point x="445" y="1527"/>
      <point x="520" y="1460"/>
      <point x="520" y="1405" type="qcurve" smooth="yes"/>
      <point x="520" y="1346"/>
      <point x="446" y="1275"/>
    </contour>
    <contour>
      <point x="-30" y="-405" type="qcurve"/>
      <point x="-30" y="-280" type="line"/>
      <point x="6" y="-280" type="line" smooth="yes"/>
      <point x="142" y="-280"/>
      <point x="258" y="-118"/>
      <point x="258" y="63" type="qcurve"/>
      <point x="257" y="114"/>
      <point x="257" y="940" type="qcurve" smooth="yes"/>
      <point x="257" y="950"/>
      <point x="262" y="950" type="qcurve"/>
      <point x="164" y="963" type="line"/>
      <point x="150" y="964"/>
      <point x="131" y="971"/>
      <point x="126" y="975" type="qcurve" smooth="yes"/>
      <point x="122" y="979" type="line"/>
      <point x="114" y="1059" type="line"/>
      <point x="506" y="1059" type="line"/>
      <point x="506" y="90" type="line" smooth="yes"/>
      <point x="506" y="-58"/>
      <point x="403" y="-280"/>
      <point x="167" y="-403"/>
    </contour>
  </outline>
</glyph>
<glyph name="k" format="1">
  <advance width="1239"/>
  <unicode hex="006B"/>
  <outline>
    <contour>
      <point x="612" y="-19" type="line"/>
      <point x="448" y="-5"/>
      <point x="338" y="-5" type="qcurve"/>
      <point x="224" y="-7"/>
      <point x="64" y="-19" type="qcurve"/>
      <point x="75" y="92" type="line"/>
      <point x="75" y="93"/>
      <point x="82" y="99"/>
      <point x="100" y="107"/>
      <point x="115" y="109" type="qcurve" smooth="yes"/>
      <point x="222" y="121" type="line"/>
      <point x="218" y="121"/>
      <point x="216" y="127"/>
      <point x="216" y="770" type="qcurve" smooth="yes"/>
      <point x="216" y="1413"/>
      <point x="217" y="1419"/>
      <point x="221" y="1419" type="qcurve"/>
      <point x="120" y="1432" type="line" smooth="yes"/>
      <point x="98" y="1435"/>
      <point x="78" y="1449"/>
      <point x="78" y="1450" type="qcurve"/>
      <point x="70" y="1532" type="line"/>
      <point x="460" y="1532" type="line"/>
      <point x="460" y="643" type="line"/>
      <point x="593" y="777" type="line"/>
      <point x="742" y="927" type="line" smooth="yes"/>
      <point x="747" y="933"/>
      <point x="747" y="938" type="qcurve" smooth="yes"/>
      <point x="747" y="947"/>
      <point x="740" y="950" type="qcurve"/>
      <point x="650" y="961" type="line"/>
      <point x="611" y="967"/>
      <point x="607" y="991" type="qcurve"/>
      <point x="600" y="1060" type="line"/>
      <point x="1113" y="1060" type="line"/>
      <point x="1104" y="978" type="line"/>
      <point x="1104" y="977"/>
      <point x="1082" y="964"/>
      <point x="1064" y="962" type="qcurve" smooth="yes"/>
      <point x="954" y="947" type="line"/>
      <point x="956" y="947"/>
      <point x="960" y="949"/>
      <point x="962" y="950" type="qcurve"/>
      <point x="963" y="950" type="line"/>
      <point x="963" y="949"/>
      <point x="961" y="947"/>
      <point x="689" y="672" type="qcurve" smooth="yes"/>
      <point x="681" y="664"/>
      <point x="681" y="648" type="qcurve" smooth="yes"/>
      <point x="681" y="635"/>
      <point x="688" y="624" type="qcurve"/>
      <point x="1044" y="129" type="line"/>
      <point x="1044" y="126"/>
      <point x="1047" y="124" type="qcurve" smooth="yes"/>
      <point x="1049" y="121" type="line"/>
      <point x="1048" y="120" type="line"/>
      <point x="1036" y="122" type="line"/>
      <point x="1151" y="109" type="line" smooth="yes"/>
      <point x="1166" y="107"/>
      <point x="1184" y="99"/>
      <point x="1191" y="93"/>
      <point x="1191" y="92" type="qcurve"/>
      <point x="1202" y="-18" type="line"/>
      <point x="1095" y="-11"/>
      <point x="959" y="-5"/>
      <point x="867" y="-5" type="qcurve"/>
      <point x="511" y="495" type="line"/>
      <point x="461" y="442" type="line"/>
      <point x="461" y="124" type="line" smooth="yes"/>
      <point x="461" y="119"/>
      <point x="459" y="119" type="qcurve"/>
      <point x="446" y="122" type="line"/>
      <point x="561" y="109" type="line"/>
      <point x="582" y="105"/>
      <point x="602" y="93"/>
      <point x="602" y="92" type="qcurve"/>
    </contour>
  </outline>
</glyph>
<glyph name="l" format="1">
  <advance width="673"/>
  <unicode hex="006C"/>
  <outline>
    <contour>
      <point x="622" y="-20" type="line"/>
      <point x="440" y="-7"/>
      <point x="348" y="-6" type="qcurve"/>
      <point x="245" y="-7"/>
      <point x="64" y="-20" type="qcurve"/>
      <point x="74" y="92" type="line"/>
      <point x="78" y="95" type="line" smooth="yes"/>
      <point x="83" y="98"/>
      <point x="101" y="105"/>
      <point x="115" y="107" type="qcurve" smooth="yes"/>
      <point x="221" y="120" type="line"/>
      <point x="218" y="120"/>
      <point x="216" y="126"/>
      <point x="216" y="769" type="qcurve" smooth="yes"/>
      <point x="216" y="1411"/>
      <point x="218" y="1418"/>
      <point x="222" y="1418" type="qcurve"/>
      <point x="119" y="1432" type="line" smooth="yes"/>
      <point x="98" y="1435"/>
      <point x="78" y="1447"/>
      <point x="78" y="1448" type="qcurve"/>
      <point x="70" y="1531" type="line"/>
      <point x="470" y="1531" type="line"/>
      <point x="470" y="126"/>
      <point x="468" y="120"/>
      <point x="465" y="120" type="qcurve"/>
      <point x="571" y="107" type="line"/>
      <point x="585" y="106"/>
      <point x="603" y="99"/>
      <point x="608" y="95" type="qcurve" smooth="yes"/>
      <point x="612" y="92" type="line"/>
    </contour>
  </outline>
</glyph>
<glyph name="m" format="1">
  <advance width="1988"/>
  <unicode hex="006D"/>
  <outline>
    <contour>
      <point x="1927" y="-20" type="line"/>
      <point x="1745" y="-7"/>
      <point x="1653" y="-6" type="qcurve"/>
      <point x="1559" y="-7"/>
      <point x="1379" y="-20" type="qcurve"/>
      <point x="1389" y="92" type="line"/>
      <point x="1393" y="95" type="line" smooth="yes"/>
      <point x="1398" y="99"/>
      <point x="1416" y="106"/>
      <point x="1430" y="107" type="qcurve"/>
      <point x="1536" y="120" type="line"/>
      <point x="1533" y="120"/>
      <point x="1531" y="126"/>
      <point x="1531" y="728" type="qcurve" smooth="yes"/>
      <point x="1531" y="823"/>
      <point x="1447" y="926"/>
      <point x="1370" y="926" type="qcurve" smooth="yes"/>
      <point x="1307" y="926"/>
      <point x="1194" y="852"/>
      <point x="1124" y="692"/>
      <point x="1124" y="563" type="qcurve" smooth="yes"/>
      <point x="1124" y="126"/>
      <point x="1122" y="120"/>
      <point x="1119" y="120" type="qcurve"/>
      <point x="1225" y="107" type="line"/>
      <point x="1239" y="106"/>
      <point x="1257" y="99"/>
      <point x="1262" y="95" type="qcurve" smooth="yes"/>
      <point x="1266" y="92" type="line"/>
      <point x="1276" y="-20" type="line"/>
      <point x="1094" y="-7"/>
      <point x="1002" y="-6" type="qcurve"/>
      <point x="910" y="-7"/>
      <point x="728" y="-20" type="qcurve"/>
      <point x="739" y="92" type="line"/>
      <point x="743" y="95" type="line" smooth="yes"/>
      <point x="748" y="99"/>
      <point x="766" y="106"/>
      <point x="779" y="107" type="qcurve" smooth="yes"/>
      <point x="885" y="120" type="line"/>
      <point x="882" y="120"/>
      <point x="880" y="126"/>
      <point x="880" y="728" type="qcurve" smooth="yes"/>
      <point x="880" y="823"/>
      <point x="805" y="926"/>
      <point x="728" y="926" type="qcurve" smooth="yes"/>
      <point x="679" y="926"/>
      <point x="601" y="889"/>
      <point x="529" y="814"/>
      <point x="475" y="665"/>
      <point x="475" y="563" type="qcurve" smooth="yes"/>
      <point x="475" y="126"/>
      <point x="473" y="120"/>
      <point x="470" y="120" type="qcurve"/>
      <point x="576" y="107" type="line"/>
      <point x="590" y="106"/>
      <point x="608" y="99"/>
      <point x="613" y="95" type="qcurve" smooth="yes"/>
      <point x="617" y="92" type="line"/>
      <point x="627" y="-20" type="line"/>
      <point x="447" y="-7"/>
      <point x="353" y="-6" type="qcurve"/>
      <point x="261" y="-7"/>
      <point x="79" y="-20" type="qcurve"/>
      <point x="90" y="92" type="line"/>
      <point x="94" y="95" type="line" smooth="yes"/>
      <point x="98" y="99"/>
      <point x="117" y="106"/>
      <point x="131" y="107" type="qcurve"/>
      <point x="236" y="120" type="line"/>
      <point x="233" y="120"/>
      <point x="231" y="126"/>
      <point x="231" y="950" type="qcurve"/>
      <point x="155" y="960" type="line" smooth="yes"/>
      <point x="131" y="963"/>
      <point x="118" y="973" type="qcurve" smooth="yes"/>
      <point x="114" y="977" type="line"/>
      <point x="106" y="1059" type="line"/>
      <point x="475" y="1059" type="line"/>
      <point x="475" y="861" type="line"/>
      <point x="419" y="861" type="line"/>
      <point x="429" y="909"/>
      <point x="511" y="1012"/>
      <point x="654" y="1087"/>
      <point x="753" y="1087" type="qcurve" smooth="yes"/>
      <point x="902" y="1087"/>
      <point x="1086" y="968"/>
      <point x="1111" y="861" type="qcurve"/>
      <point x="1055" y="861" type="line"/>
      <point x="1065" y="909"/>
      <point x="1150" y="1012"/>
      <point x="1296" y="1087"/>
      <point x="1395" y="1087" type="qcurve" smooth="yes"/>
      <point x="1578" y="1087"/>
      <point x="1775" y="910"/>
      <point x="1775" y="741" type="qcurve" smooth="yes"/>
      <point x="1775" y="126"/>
      <point x="1773" y="120"/>
      <point x="1770" y="120" type="qcurve"/>
      <point x="1875" y="107" type="line"/>
      <point x="1889" y="106"/>
      <point x="1908" y="99"/>
      <point x="1912" y="95" type="qcurve" smooth="yes"/>
      <point x="1916" y="92" type="line"/>
    </contour>
  </outline>
</glyph>
<glyph name="n" format="1">
  <advance width="1402"/>
  <unicode hex="006E"/>
  <outline>
    <contour>
      <point x="1347" y="-20" type="line"/>
      <point x="1165" y="-7"/>
      <point x="1072" y="-6" type="qcurve"/>
      <point x="980" y="-7"/>
      <point x="798" y="-20" type="qcurve"/>
      <point x="809" y="92" type="line"/>
      <point x="813" y="95" type="line" smooth="yes"/>
      <point x="818" y="99"/>
      <point x="834" y="105"/>
      <point x="955" y="120" type="qcurve"/>
      <point x="952" y="120"/>
      <point x="950" y="126"/>
      <point x="950" y="136" type="qcurve"/>
      <point x="951" y="728" type="line"/>
      <point x="951" y="823"/>
      <point x="859" y="926"/>
      <point x="767" y="926" type="qcurve" smooth="yes"/>
      <point x="691" y="926"/>
      <point x="558" y="832"/>
      <point x="476" y="685"/>
      <point x="476" y="605" type="qcurve" smooth="yes"/>
      <point x="476" y="126"/>
      <point x="474" y="120"/>
      <point x="470" y="120" type="qcurve"/>
      <point x="576" y="107" type="line"/>
      <point x="590" y="106"/>
      <point x="608" y="99"/>
      <point x="613" y="95" type="qcurve" smooth="yes"/>
      <point x="617" y="92" type="line"/>
      <point x="628" y="-20" type="line"/>
      <point x="446" y="-7"/>
      <point x="354" y="-6" type="qcurve"/>
      <point x="261" y="-7"/>
      <point x="79" y="-20" type="qcurve"/>
      <point x="90" y="92" type="line"/>
      <point x="94" y="95" type="line" smooth="yes"/>
      <point x="99" y="99"/>
      <point x="115" y="105"/>
      <point x="237" y="120" type="qcurve"/>
      <point x="234" y="120"/>
      <point x="232" y="124"/>
      <point x="232" y="533" type="qcurve" smooth="yes"/>
      <point x="232" y="943"/>
      <point x="234" y="947"/>
      <point x="238" y="947" type="qcurve"/>
      <point x="135" y="960" type="line" smooth="yes"/>
      <point x="121" y="962"/>
      <point x="102" y="969"/>
      <point x="97" y="973" type="qcurve" smooth="yes"/>
      <point x="93" y="977" type="line"/>
      <point x="85" y="1059" type="line"/>
      <point x="476" y="1059" type="line"/>
      <point x="476" y="861" type="line"/>
      <point x="421" y="861" type="line"/>
      <point x="432" y="909"/>
      <point x="525" y="1012"/>
      <point x="685" y="1087"/>
      <point x="796" y="1087" type="qcurve" smooth="yes"/>
      <point x="1002" y="1087"/>
      <point x="1195" y="910"/>
      <point x="1195" y="741" type="qcurve" smooth="yes"/>
      <point x="1195" y="126"/>
      <point x="1193" y="120"/>
      <point x="1189" y="120" type="qcurve"/>
      <point x="1295" y="107" type="line"/>
      <point x="1309" y="106"/>
      <point x="1327" y="99"/>
      <point x="1332" y="95" type="qcurve" smooth="yes"/>
      <point x="1336" y="92" type="line"/>
    </contour>
  </outline>
</glyph>
<glyph name="o" format="1">
  <advance width="1212"/>
  <unicode hex="006F"/>
  <outline>
    <contour>
      <point x="609" y="-20" type="qcurve" smooth="yes"/>
      <point x="605" y="-20" type="line" smooth="yes"/>
      <point x="79" y="-20"/>
      <point x="79" y="536" type="qcurve" smooth="yes"/>
      <point x="79" y="1089"/>
      <point x="605" y="1090" type="qcurve"/>
      <point x="870" y="1090"/>
      <point x="1131" y="814"/>
      <point x="1131" y="538" type="qcurve" smooth="yes"/>
      <point x="1131" y="-20"/>
    </contour>
    <contour>
      <point x="605" y="113" type="qcurve" smooth="yes"/>
      <point x="880" y="113"/>
      <point x="880" y="538" type="qcurve" smooth="yes"/>
      <point x="880" y="686"/>
      <point x="812" y="873"/>
      <point x="689" y="962"/>
      <point x="605" y="962" type="qcurve" smooth="yes"/>
      <point x="335" y="962"/>
      <point x="335" y="538" type="qcurve" smooth="yes"/>
      <point x="335" y="319"/>
      <point x="471" y="113"/>
    </contour>
  </outline>
</glyph>
<glyph name="p" format="1">
  <advance width="1293"/>
  <unicode hex="0070"/>
  <outline>
    <contour>
      <point x="611" y="-463" type="line"/>
      <point x="571" y="-460" type="line" smooth="yes"/>
      <point x="438" y="-450"/>
      <point x="338" y="-450" type="qcurve" smooth="yes"/>
      <point x="236" y="-450"/>
      <point x="104" y="-460" type="qcurve" smooth="yes"/>
      <point x="64" y="-463" type="line"/>
      <point x="74" y="-353" type="line"/>
      <point x="78" y="-350" type="line" smooth="yes"/>
      <point x="83" y="-346"/>
      <point x="101" y="-339"/>
      <point x="115" y="-337" type="qcurve" smooth="yes"/>
      <point x="220" y="-325" type="line"/>
      <point x="217" y="-325"/>
      <point x="215" y="-321"/>
      <point x="215" y="-311" type="qcurve" smooth="yes"/>
      <point x="215" y="122"/>
      <point x="211" y="532" type="qcurve"/>
      <point x="214" y="940"/>
      <point x="216" y="947"/>
      <point x="219" y="947" type="qcurve"/>
      <point x="118" y="960" type="line" smooth="yes"/>
      <point x="97" y="963"/>
      <point x="77" y="975"/>
      <point x="77" y="976" type="qcurve"/>
      <point x="69" y="1058" type="line"/>
      <point x="455" y="1058" type="line"/>
      <point x="455" y="861" type="line"/>
      <point x="406" y="861" type="line"/>
      <point x="422" y="919"/>
      <point x="518" y="1021"/>
      <point x="668" y="1085"/>
      <point x="764" y="1085" type="qcurve" smooth="yes"/>
      <point x="925" y="1085"/>
      <point x="1130" y="944"/>
      <point x="1228" y="697"/>
      <point x="1228" y="538" type="qcurve" smooth="yes"/>
      <point x="1228" y="351"/>
      <point x="1114" y="104"/>
      <point x="904" y="-19"/>
      <point x="759" y="-19" type="qcurve" smooth="yes"/>
      <point x="660" y="-19"/>
      <point x="516" y="45"/>
      <point x="426" y="146"/>
      <point x="407" y="204" type="qcurve"/>
      <point x="461" y="204" type="line"/>
      <point x="461" y="-319"/>
      <point x="459" y="-325"/>
      <point x="456" y="-325" type="qcurve"/>
      <point x="560" y="-337" type="line" smooth="yes"/>
      <point x="574" y="-339"/>
      <point x="592" y="-346"/>
      <point x="597" y="-350" type="qcurve" smooth="yes"/>
      <point x="601" y="-353" type="line"/>
    </contour>
    <contour>
      <point x="715" y="109" type="qcurve" smooth="yes"/>
      <point x="829" y="109"/>
      <point x="960" y="324"/>
      <point x="960" y="536" type="qcurve" smooth="yes"/>
      <point x="960" y="681"/>
      <point x="899" y="862"/>
      <point x="790" y="946"/>
      <point x="719" y="946" type="qcurve" smooth="yes"/>
      <point x="611" y="946"/>
      <point x="473" y="734"/>
      <point x="473" y="536" type="qcurve" smooth="yes"/>
      <point x="473" y="330"/>
      <point x="605" y="109"/>
    </contour>
  </outline>
</glyph>
<glyph name="q" format="1">
  <advance width="1298"/>
  <unicode hex="0071"/>
  <outline>
    <contour>
      <point x="1245" y="-464" type="line"/>
      <point x="1062" y="-452"/>
      <point x="980" y="-451" type="qcurve"/>
      <point x="848" y="-451" type="line"/>
      <point x="848" y="204" type="line"/>
      <point x="901" y="204" type="line"/>
      <point x="882" y="146"/>
      <point x="792" y="45"/>
      <point x="648" y="-20"/>
      <point x="549" y="-20" type="qcurve" smooth="yes"/>
      <point x="404" y="-20"/>
      <point x="193" y="103"/>
      <point x="79" y="352"/>
      <point x="79" y="539" type="qcurve" smooth="yes"/>
      <point x="79" y="698"/>
      <point x="177" y="946"/>
      <point x="382" y="1087"/>
      <point x="543" y="1087" type="qcurve" smooth="yes"/>
      <point x="640" y="1087"/>
      <point x="790" y="1023"/>
      <point x="886" y="921"/>
      <point x="902" y="863" type="qcurve"/>
      <point x="853" y="863" type="line"/>
      <point x="853" y="1060" type="line"/>
      <point x="1240" y="1060" type="line"/>
      <point x="1232" y="978" type="line"/>
      <point x="1228" y="974" type="line" smooth="yes"/>
      <point x="1223" y="970"/>
      <point x="1204" y="963"/>
      <point x="1190" y="961" type="qcurve" smooth="yes"/>
      <point x="1089" y="949" type="line"/>
      <point x="1092" y="949"/>
      <point x="1094" y="942"/>
      <point x="1097" y="533" type="qcurve"/>
      <point x="1094" y="114"/>
      <point x="1094" y="-309" type="qcurve" smooth="yes"/>
      <point x="1094" y="-319"/>
      <point x="1092" y="-326"/>
      <point x="1088" y="-326" type="qcurve"/>
      <point x="1194" y="-338" type="line" smooth="yes"/>
      <point x="1207" y="-340"/>
      <point x="1225" y="-347"/>
      <point x="1230" y="-350" type="qcurve" smooth="yes"/>
      <point x="1234" y="-353" type="line"/>
    </contour>
    <contour>
      <point x="592" y="109" type="qcurve" smooth="yes"/>
      <point x="703" y="109"/>
      <point x="835" y="330"/>
      <point x="835" y="537" type="qcurve" smooth="yes"/>
      <point x="835" y="736"/>
      <point x="697" y="948"/>
      <point x="589" y="948" type="qcurve" smooth="yes"/>
      <point x="517" y="948"/>
      <point x="408" y="864"/>
      <point x="347" y="683"/>
      <point x="347" y="537" type="qcurve" smooth="yes"/>
      <point x="347" y="325"/>
      <point x="479" y="109"/>
    </contour>
  </outline>
</glyph>
<glyph name="r" format="1">
  <advance width="979"/>
  <unicode hex="0072"/>
  <outline>
    <contour>
      <point x="612" y="-20" type="line"/>
      <point x="429" y="-7"/>
      <point x="338" y="-7" type="qcurve" smooth="yes"/>
      <point x="246" y="-7"/>
      <point x="64" y="-20" type="qcurve"/>
      <point x="74" y="91" type="line"/>
      <point x="74" y="92"/>
      <point x="94" y="104"/>
      <point x="115" y="107" type="qcurve" smooth="yes"/>
      <point x="221" y="119" type="line"/>
      <point x="218" y="119"/>
      <point x="216" y="126"/>
      <point x="216" y="532" type="qcurve" smooth="yes"/>
      <point x="216" y="939"/>
      <point x="218" y="946"/>
      <point x="223" y="946" type="qcurve"/>
      <point x="119" y="959" type="line" smooth="yes"/>
      <point x="105" y="961"/>
      <point x="86" y="968"/>
      <point x="82" y="972" type="qcurve" smooth="yes"/>
      <point x="78" y="976" type="line"/>
      <point x="69" y="1059" type="line"/>
      <point x="460" y="1059" type="line"/>
      <point x="460" y="860" type="line"/>
      <point x="409" y="860" type="line"/>
      <point x="426" y="920"/>
      <point x="498" y="1022"/>
      <point x="621" y="1085"/>
      <point x="714" y="1085" type="qcurve" smooth="yes"/>
      <point x="842" y="1085"/>
      <point x="918" y="1039" type="qcurve"/>
      <point x="918" y="720" type="line"/>
      <point x="871" y="725" type="line" smooth="yes"/>
      <point x="799" y="733"/>
      <point x="735" y="745"/>
      <point x="731" y="758" type="qcurve" smooth="yes"/>
      <point x="684" y="897" type="line"/>
      <point x="683" y="908" type="line"/>
      <point x="683" y="916" type="line" smooth="yes"/>
      <point x="683" y="918"/>
      <point x="677" y="918" type="qcurve"/>
      <point x="599" y="916"/>
      <point x="504" y="798"/>
      <point x="459" y="623"/>
      <point x="459" y="533" type="qcurve"/>
      <point x="460" y="136" type="line"/>
      <point x="460" y="126"/>
      <point x="458" y="119"/>
      <point x="454" y="119" type="qcurve"/>
      <point x="561" y="107" type="line" smooth="yes"/>
      <point x="575" y="105"/>
      <point x="593" y="98"/>
      <point x="597" y="95" type="qcurve" smooth="yes"/>
      <point x="601" y="92" type="line"/>
    </contour>
  </outline>
</glyph>
<glyph name="s" format="1">
  <advance width="1031"/>
  <unicode hex="0073"/>
  <outline>
    <contour>
      <point x="487" y="-20" type="qcurve" smooth="yes"/>
      <point x="384" y="-20"/>
      <point x="235" y="20"/>
      <point x="138" y="73"/>
      <point x="113" y="95" type="qcurve" smooth="yes"/>
      <point x="99" y="108" type="line"/>
      <point x="99" y="304" type="line"/>
      <point x="171" y="291" type="line" smooth="yes"/>
      <point x="225" y="282"/>
      <point x="272" y="268"/>
      <point x="279" y="256" type="qcurve"/>
      <point x="329" y="152" type="line"/>
      <point x="349" y="120"/>
      <point x="452" y="95"/>
      <point x="481" y="95" type="qcurve" smooth="yes"/>
      <point x="576" y="95"/>
      <point x="697" y="198"/>
      <point x="697" y="289" type="qcurve" smooth="yes"/>
      <point x="697" y="366"/>
      <point x="580" y="461"/>
      <point x="471" y="496" type="qcurve"/>
      <point x="358" y="534"/>
      <point x="197" y="620"/>
      <point x="111" y="729"/>
      <point x="111" y="802" type="qcurve" smooth="yes"/>
      <point x="111" y="1092"/>
      <point x="541" y="1092" type="qcurve" smooth="yes"/>
      <point x="633" y="1092"/>
      <point x="832" y="1024"/>
      <point x="880" y="959" type="qcurve"/>
      <point x="880" y="761" type="line"/>
      <point x="830" y="767" type="line"/>
      <point x="757" y="774"/>
      <point x="695" y="787"/>
      <point x="691" y="801" type="qcurve"/>
      <point x="650" y="914" type="line" smooth="yes"/>
      <point x="640" y="940"/>
      <point x="568" y="981"/>
      <point x="528" y="983" type="qcurve"/>
      <point x="449" y="983"/>
      <point x="355" y="920"/>
      <point x="355" y="837" type="qcurve" smooth="yes"/>
      <point x="355" y="785"/>
      <point x="410" y="724"/>
      <point x="505" y="682"/>
      <point x="567" y="662" type="qcurve"/>
      <point x="626" y="641" type="line" smooth="yes"/>
      <point x="780" y="587"/>
      <point x="943" y="429"/>
      <point x="943" y="306" type="qcurve" smooth="yes"/>
      <point x="943" y="211"/>
      <point x="840" y="63"/>
      <point x="637" y="-20"/>
    </contour>
  </outline>
</glyph>
<glyph name="t" format="1">
  <advance width="878"/>
  <unicode hex="0074"/>
  <outline>
    <contour>
      <point x="503" y="-20" type="qcurve" smooth="yes"/>
      <point x="342" y="-20"/>
      <point x="182" y="153"/>
      <point x="182" y="305" type="qcurve" smooth="yes"/>
      <point x="182" y="945" type="line"/>
      <point x="14" y="945" type="line"/>
      <point x="14" y="1059" type="line"/>
      <point x="182" y="1059" type="line"/>
      <point x="182" y="1368" type="line"/>
      <point x="427" y="1457" type="line"/>
      <point x="427" y="1059" type="line"/>
      <point x="750" y="1059" type="line"/>
      <point x="750" y="945" type="line"/>
      <point x="427" y="945" type="line"/>
      <point x="429" y="278" type="line"/>
      <point x="429" y="193"/>
      <point x="520" y="121"/>
      <point x="599" y="121" type="qcurve" smooth="yes"/>
      <point x="654" y="121"/>
      <point x="786" y="182" type="qcurve"/>
      <point x="822" y="53" type="line"/>
      <point x="697" y="-20"/>
    </contour>
  </outline>
</glyph>
<glyph name="u" format="1">
  <advance width="1322"/>
  <unicode hex="0075"/>
  <outline>
    <contour>
      <point x="556" y="-20" type="qcurve" smooth="yes"/>
      <point x="349" y="-20"/>
      <point x="157" y="156"/>
      <point x="157" y="323" type="qcurve" smooth="yes"/>
      <point x="157" y="937" type="line" smooth="yes"/>
      <point x="157" y="947"/>
      <point x="163" y="947" type="qcurve"/>
      <point x="60" y="961" type="line" smooth="yes"/>
      <point x="39" y="964"/>
      <point x="18" y="976"/>
      <point x="18" y="977" type="qcurve"/>
      <point x="10" y="1059" type="line"/>
      <point x="401" y="1059" type="line"/>
      <point x="401" y="337" type="line" smooth="yes"/>
      <point x="401" y="243"/>
      <point x="493" y="140"/>
      <point x="584" y="140" type="qcurve" smooth="yes"/>
      <point x="661" y="140"/>
      <point x="794" y="234"/>
      <point x="876" y="380"/>
      <point x="876" y="459" type="qcurve" smooth="yes"/>
      <point x="876" y="941"/>
      <point x="878" y="948"/>
      <point x="881" y="948" type="qcurve"/>
      <point x="779" y="961" type="line" smooth="yes"/>
      <point x="758" y="964"/>
      <point x="738" y="976"/>
      <point x="738" y="977" type="qcurve"/>
      <point x="729" y="1059" type="line"/>
      <point x="1120" y="1059" type="line"/>
      <point x="1120" y="132"/>
      <point x="1118" y="126"/>
      <point x="1115" y="126" type="qcurve"/>
      <point x="1220" y="114" type="line" smooth="yes"/>
      <point x="1234" y="112"/>
      <point x="1253" y="105"/>
      <point x="1257" y="101" type="qcurve" smooth="yes"/>
      <point x="1261" y="98" type="line"/>
      <point x="1272" y="-12" type="line"/>
      <point x="1136" y="-3"/>
      <point x="1001" y="1"/>
      <point x="876" y="1" type="qcurve"/>
      <point x="876" y="205" type="line"/>
      <point x="931" y="205" type="line"/>
      <point x="920" y="157"/>
      <point x="826" y="54"/>
      <point x="667" y="-20"/>
    </contour>
  </outline>
</glyph>
<glyph name="v" format="1">
  <advance width="1285"/>
  <unicode hex="0076"/>
  <outline>
    <contour>
      <point x="731" y="0" type="line"/>
      <point x="525" y="0" type="line"/>
      <point x="128" y="948" type="line"/>
      <point x="128" y="950"/>
      <point x="130" y="950" type="qcurve" smooth="yes"/>
      <point x="133" y="950"/>
      <point x="137" y="947"/>
      <point x="138" y="947" type="qcurve"/>
      <point x="35" y="960" type="line" smooth="yes"/>
      <point x="-7" y="966"/>
      <point x="-8" y="992" type="qcurve"/>
      <point x="-15" y="1059" type="line"/>
      <point x="538" y="1059" type="line"/>
      <point x="535" y="1028"/>
      <point x="530" y="964"/>
      <point x="488" y="960" type="qcurve"/>
      <point x="386" y="947" type="line"/>
      <point x="384" y="946"/>
      <point x="384" y="943" type="qcurve" smooth="yes"/>
      <point x="384" y="937"/>
      <point x="389" y="927" type="qcurve"/>
      <point x="652" y="302" type="line"/>
      <point x="906" y="925" type="line" smooth="yes"/>
      <point x="909" y="934"/>
      <point x="909" y="940" type="qcurve" smooth="yes"/>
      <point x="909" y="945"/>
      <point x="904" y="948" type="qcurve"/>
      <point x="809" y="960" type="line"/>
      <point x="768" y="968"/>
      <point x="766" y="987" type="qcurve" smooth="yes"/>
      <point x="759" y="1059" type="line"/>
      <point x="1260" y="1059" type="line"/>
      <point x="1252" y="989" type="line"/>
      <point x="1249" y="974"/>
      <point x="1231" y="962"/>
      <point x="1210" y="960" type="qcurve"/>
      <point x="1136" y="950" type="line" smooth="yes"/>
      <point x="1129" y="949"/>
      <point x="1115" y="939"/>
      <point x="1112" y="934" type="qcurve"/>
    </contour>
  </outline>
</glyph>
<glyph name="w" format="1">
  <advance width="1847"/>
  <unicode hex="0077"/>
  <outline>
    <contour>
      <point x="1386" y="0" type="line"/>
      <point x="1142" y="0" type="line"/>
      <point x="919" y="626" type="line"/>
      <point x="721" y="0" type="line"/>
      <point x="477" y="0" type="line"/>
      <point x="141" y="940" type="line" smooth="yes"/>
      <point x="139" y="947"/>
      <point x="129" y="950" type="qcurve"/>
      <point x="49" y="961" type="line" smooth="yes"/>
      <point x="23" y="964"/>
      <point x="12" y="973" type="qcurve" smooth="yes"/>
      <point x="8" y="976" type="line"/>
      <point x="5" y="1059" type="line"/>
      <point x="558" y="1059" type="line"/>
      <point x="544" y="978" type="line"/>
      <point x="544" y="976"/>
      <point x="521" y="964"/>
      <point x="502" y="961" type="qcurve" smooth="yes"/>
      <point x="401" y="946" type="line"/>
      <point x="399" y="945"/>
      <point x="399" y="942" type="qcurve" smooth="yes"/>
      <point x="399" y="937"/>
      <point x="401" y="931" type="qcurve" smooth="yes"/>
      <point x="618" y="320" type="line"/>
      <point x="812" y="934"/>
      <point x="812" y="937" type="qcurve" smooth="yes"/>
      <point x="812" y="947"/>
      <point x="801" y="949" type="qcurve" smooth="yes"/>
      <point x="714" y="961" type="line" smooth="yes"/>
      <point x="688" y="964"/>
      <point x="677" y="973" type="qcurve" smooth="yes"/>
      <point x="673" y="976" type="line"/>
      <point x="670" y="1059" type="line"/>
      <point x="1223" y="1059" type="line"/>
      <point x="1209" y="978" type="line"/>
      <point x="1209" y="976"/>
      <point x="1186" y="964"/>
      <point x="1167" y="961" type="qcurve" smooth="yes"/>
      <point x="1072" y="948" type="line"/>
      <point x="1067" y="946"/>
      <point x="1067" y="936" type="qcurve" smooth="yes"/>
      <point x="1067" y="931"/>
      <point x="1068" y="928" type="qcurve" smooth="yes"/>
      <point x="1284" y="320" type="line"/>
      <point x="1339" y="496" type="line"/>
      <point x="1338" y="495" type="line"/>
      <point x="1475" y="930"/>
      <point x="1475" y="935" type="qcurve" smooth="yes"/>
      <point x="1475" y="945"/>
      <point x="1468" y="949" type="qcurve"/>
      <point x="1375" y="961" type="line"/>
      <point x="1358" y="964"/>
      <point x="1333" y="976"/>
      <point x="1333" y="979" type="qcurve"/>
      <point x="1317" y="1059" type="line"/>
      <point x="1817" y="1059" type="line"/>
      <point x="1816" y="974" type="line"/>
      <point x="1814" y="973" type="line" smooth="yes"/>
      <point x="1812" y="971"/>
      <point x="1793" y="963"/>
      <point x="1740" y="956" type="qcurve" smooth="yes"/>
      <point x="1700" y="951"/>
      <point x="1685" y="942"/>
      <point x="1681" y="934" type="qcurve"/>
    </contour>
  </outline>
</glyph>
<glyph name="x" format="1">
  <advance width="1296"/>
  <unicode hex="0078"/>
  <outline>
    <contour>
      <point x="686" y="-20" type="qcurve"/>
      <point x="695" y="72" type="line"/>
      <point x="700" y="75" type="line" smooth="yes"/>
      <point x="713" y="84"/>
      <point x="735" y="87" type="qcurve" smooth="yes"/>
      <point x="807" y="97" type="line"/>
      <point x="813" y="97"/>
      <point x="823" y="106"/>
      <point x="823" y="109" type="qcurve" smooth="yes"/>
      <point x="823" y="111"/>
      <point x="624" y="404" type="qcurve"/>
      <point x="557" y="307"/>
      <point x="508" y="232" type="qcurve"/>
      <point x="432" y="120" type="line" smooth="yes"/>
      <point x="428" y="113"/>
      <point x="428" y="104" type="qcurve" smooth="yes"/>
      <point x="428" y="98"/>
      <point x="435" y="96" type="qcurve"/>
      <point x="528" y="87" type="line" smooth="yes"/>
      <point x="543" y="86"/>
      <point x="562" y="78"/>
      <point x="570" y="72"/>
      <point x="570" y="71" type="qcurve"/>
      <point x="580" y="-19" type="line"/>
      <point x="409" y="-9"/>
      <point x="309" y="-8" type="qcurve"/>
      <point x="223" y="-9"/>
      <point x="64" y="-19" type="qcurve"/>
      <point x="74" y="72" type="line"/>
      <point x="78" y="75" type="line" smooth="yes"/>
      <point x="89" y="84"/>
      <point x="115" y="87" type="qcurve" smooth="yes"/>
      <point x="202" y="97"/>
      <point x="208" y="101"/>
      <point x="533" y="537" type="qcurve"/>
      <point x="387" y="741" type="line"/>
      <point x="245" y="936"/>
      <point x="236" y="945" type="qcurve"/>
      <point x="153" y="954" type="line"/>
      <point x="133" y="957"/>
      <point x="113" y="969"/>
      <point x="113" y="971" type="qcurve"/>
      <point x="103" y="1059" type="line"/>
      <point x="667" y="1059" type="line"/>
      <point x="657" y="971" type="line"/>
      <point x="657" y="969"/>
      <point x="639" y="958"/>
      <point x="619" y="955" type="qcurve" smooth="yes"/>
      <point x="528" y="943" type="line"/>
      <point x="530" y="943"/>
      <point x="537" y="933" type="qcurve" smooth="yes"/>
      <point x="571" y="886"/>
      <point x="630" y="793" type="qcurve" smooth="yes"/>
      <point x="696" y="688" type="line"/>
      <point x="854" y="934"/>
      <point x="855" y="937" type="qcurve"/>
      <point x="855" y="940"/>
      <point x="852" y="945"/>
      <point x="845" y="946" type="qcurve" smooth="yes"/>
      <point x="758" y="954" type="line"/>
      <point x="744" y="956"/>
      <point x="726" y="963"/>
      <point x="717" y="969"/>
      <point x="717" y="970" type="qcurve"/>
      <point x="707" y="1059" type="line"/>
      <point x="1214" y="1059" type="line"/>
      <point x="1206" y="970" type="line"/>
      <point x="1196" y="960"/>
      <point x="1166" y="955" type="qcurve"/>
      <point x="1085" y="945" type="line"/>
      <point x="1081" y="945"/>
      <point x="1069" y="939"/>
      <point x="785" y="554" type="qcurve"/>
      <point x="952" y="326" type="line" smooth="yes"/>
      <point x="1116" y="103"/>
      <point x="1126" y="96" type="qcurve"/>
      <point x="1205" y="87" type="line"/>
      <point x="1230" y="83"/>
      <point x="1241" y="75" type="qcurve" smooth="yes"/>
      <point x="1245" y="72" type="line"/>
      <point x="1255" y="-17" type="line"/>
      <point x="1221" y="-17" type="line"/>
      <point x="1087" y="-8"/>
      <point x="973" y="-8" type="qcurve" smooth="yes"/>
      <point x="860" y="-8"/>
    </contour>
  </outline>
</glyph>
<glyph name="y" format="1">
  <advance width="1321"/>
  <unicode hex="0079"/>
  <outline>
    <contour>
      <point x="322" y="-453" type="qcurve" smooth="yes"/>
      <point x="243" y="-453"/>
      <point x="141" y="-424" type="qcurve"/>
      <point x="199" y="-271" type="line"/>
      <point x="287" y="-314"/>
      <point x="349" y="-314" type="qcurve" smooth="yes"/>
      <point x="423" y="-314"/>
      <point x="469" y="-215" type="qcurve"/>
      <point x="555" y="-7" type="line"/>
      <point x="536" y="-7" type="line"/>
      <point x="132" y="948" type="line"/>
      <point x="132" y="950"/>
      <point x="134" y="950" type="qcurve" smooth="yes"/>
      <point x="136" y="950"/>
      <point x="139" y="948"/>
      <point x="140" y="948" type="qcurve"/>
      <point x="40" y="960" type="line"/>
      <point x="21" y="963"/>
      <point x="2" y="972"/>
      <point x="1" y="974" type="qcurve" smooth="yes"/>
      <point x="-1" y="975" type="line"/>
      <point x="-10" y="1060" type="line"/>
      <point x="564" y="1060" type="line"/>
      <point x="555" y="977" type="line"/>
      <point x="555" y="976"/>
      <point x="548" y="970"/>
      <point x="530" y="962"/>
      <point x="514" y="960" type="qcurve" smooth="yes"/>
      <point x="414" y="947" type="line"/>
      <point x="417" y="946"/>
      <point x="418" y="938"/>
      <point x="418" y="928" type="qcurve"/>
      <point x="420" y="917" type="line"/>
      <point x="677" y="306" type="line"/>
      <point x="917" y="921" type="line"/>
      <point x="918" y="927"/>
      <point x="919" y="941"/>
      <point x="922" y="948"/>
      <point x="927" y="948" type="qcurve" smooth="yes"/>
      <point x="931" y="948"/>
      <point x="932" y="946" type="qcurve"/>
      <point x="822" y="960" type="line" smooth="yes"/>
      <point x="808" y="962"/>
      <point x="790" y="970"/>
      <point x="781" y="976"/>
      <point x="781" y="977" type="qcurve"/>
      <point x="772" y="1060" type="line"/>
      <point x="1286" y="1060" type="line"/>
      <point x="1277" y="977" type="line"/>
      <point x="1277" y="976"/>
      <point x="1270" y="970"/>
      <point x="1252" y="962"/>
      <point x="1236" y="960" type="qcurve" smooth="yes"/>
      <point x="1143" y="948" type="line"/>
      <point x="756" y="-7" type="line"/>
      <point x="757" y="-7" type="line"/>
      <point x="671" y="-217" type="line"/>
      <point x="618" y="-332"/>
      <point x="462" y="-453"/>
    </contour>
  </outline>
</glyph>
<glyph name="z" format="1">
  <advance width="1110"/>
  <unicode hex="007A"/>
  <outline>
    <contour>
      <point x="1029" y="0" type="line"/>
      <point x="79" y="0" type="line"/>
      <point x="79" y="88" type="line"/>
      <point x="664" y="943" type="line"/>
      <point x="598" y="943" type="line" smooth="yes"/>
      <point x="433" y="943"/>
      <point x="302" y="933" type="qcurve"/>
      <point x="307" y="933"/>
      <point x="316" y="936"/>
      <point x="318" y="936" type="qcurve"/>
      <point x="319" y="934" type="line"/>
      <point x="283" y="798" type="line" smooth="yes"/>
      <point x="282" y="795"/>
      <point x="262" y="782"/>
      <point x="243" y="779" type="qcurve" smooth="yes"/>
      <point x="118" y="763" type="line"/>
      <point x="118" y="1060" type="line"/>
      <point x="983" y="1060" type="line"/>
      <point x="983" y="995" type="line"/>
      <point x="378" y="123" type="line"/>
      <point x="582" y="123" type="line" smooth="yes"/>
      <point x="636" y="123"/>
      <point x="729" y="129" type="qcurve"/>
      <point x="826" y="134" type="line"/>
      <point x="815" y="132" type="line"/>
      <point x="811" y="132"/>
      <point x="811" y="135" type="qcurve"/>
      <point x="866" y="333" type="line"/>
      <point x="866" y="337"/>
      <point x="887" y="350"/>
      <point x="907" y="353" type="qcurve" smooth="yes"/>
      <point x="1028" y="368" type="line"/>
    </contour>
  </outline>
</glyph>
<glyph name="braceleft" format="1">
  <advance width="842"/>
  <unicode hex="007B"/>
  <outline>
    <contour>
      <point x="688" y="-342" type="line"/>
      <point x="650" y="-335" type="line"/>
      <point x="517" y="-314"/>
      <point x="384" y="-266"/>
      <point x="360" y="-207" type="qcurve"/>
      <point x="347" y="-172"/>
      <point x="347" y="8" type="qcurve" smooth="yes"/>
      <point x="347" y="84"/>
      <point x="350" y="254"/>
      <point x="350" y="333" type="qcurve" smooth="yes"/>
      <point x="350" y="418"/>
      <point x="343" y="555"/>
      <point x="322" y="612"/>
      <point x="260" y="648"/>
      <point x="197" y="662" type="qcurve"/>
      <point x="202" y="687" type="line"/>
      <point x="197" y="712" type="line"/>
      <point x="260" y="726"/>
      <point x="322" y="763"/>
      <point x="343" y="820"/>
      <point x="350" y="957"/>
      <point x="350" y="1042" type="qcurve" smooth="yes"/>
      <point x="350" y="1121"/>
      <point x="347" y="1291"/>
      <point x="347" y="1367" type="qcurve" smooth="yes"/>
      <point x="347" y="1547"/>
      <point x="360" y="1582" type="qcurve"/>
      <point x="384" y="1641"/>
      <point x="519" y="1689"/>
      <point x="653" y="1709" type="qcurve"/>
      <point x="688" y="1715" type="line"/>
      <point x="714" y="1641" type="line"/>
      <point x="652" y="1628"/>
      <point x="603" y="1598"/>
      <point x="586" y="1550"/>
      <point x="580" y="1432"/>
      <point x="580" y="1357" type="qcurve" smooth="yes"/>
      <point x="580" y="1278"/>
      <point x="583" y="1099"/>
      <point x="583" y="1019" type="qcurve" smooth="yes"/>
      <point x="583" y="844"/>
      <point x="570" y="810" type="qcurve"/>
      <point x="545" y="753"/>
      <point x="426" y="698"/>
      <point x="340" y="687" type="qcurve"/>
      <point x="426" y="676"/>
      <point x="545" y="621"/>
      <point x="570" y="565" type="qcurve"/>
      <point x="583" y="531"/>
      <point x="583" y="356" type="qcurve" smooth="yes"/>
      <point x="583" y="275"/>
      <point x="580" y="96"/>
      <point x="580" y="17" type="qcurve" smooth="yes"/>
      <point x="580" y="-58"/>
      <point x="586" y="-175"/>
      <point x="603" y="-224"/>
      <point x="652" y="-253"/>
      <point x="714" y="-267" type="qcurve"/>
    </contour>
  </outline>
</glyph>
<glyph name="bar" format="1">
  <advance width="1084"/>
  <unicode hex="007C"/>
  <outline>
    <contour>
      <point x="427" y="1577" type="line"/>
      <point x="657" y="1577" type="line"/>
      <point x="657" y="-418" type="line"/>
      <point x="427" y="-418" type="line"/>
    </contour>
  </outline>
</glyph>
<glyph name="braceright" format="1">
  <advance width="842"/>
  <unicode hex="007D"/>
  <outline>
    <contour>
      <point x="223" y="-342" type="line"/>
      <point x="197" y="-267" type="line"/>
      <point x="259" y="-253"/>
      <point x="308" y="-224"/>
      <point x="325" y="-175"/>
      <point x="331" y="-58"/>
      <point x="331" y="17" type="qcurve" smooth="yes"/>
      <point x="331" y="96"/>
      <point x="328" y="275"/>
      <point x="328" y="356" type="qcurve" smooth="yes"/>
      <point x="328" y="531"/>
      <point x="341" y="565" type="qcurve"/>
      <point x="366" y="621"/>
      <point x="485" y="676"/>
      <point x="571" y="687" type="qcurve"/>
      <point x="485" y="698"/>
      <point x="366" y="753"/>
      <point x="341" y="810" type="qcurve"/>
      <point x="328" y="844"/>
      <point x="328" y="1019" type="qcurve" smooth="yes"/>
      <point x="328" y="1099"/>
      <point x="331" y="1278"/>
      <point x="331" y="1357" type="qcurve" smooth="yes"/>
      <point x="331" y="1432"/>
      <point x="325" y="1550"/>
      <point x="308" y="1598"/>
      <point x="259" y="1628"/>
      <point x="197" y="1641" type="qcurve"/>
      <point x="223" y="1715" type="line"/>
      <point x="258" y="1709" type="line"/>
      <point x="392" y="1689"/>
      <point x="527" y="1641"/>
      <point x="551" y="1582" type="qcurve"/>
      <point x="564" y="1547"/>
      <point x="564" y="1367" type="qcurve" smooth="yes"/>
      <point x="564" y="1291"/>
      <point x="561" y="1121"/>
      <point x="561" y="1042" type="qcurve" smooth="yes"/>
      <point x="561" y="957"/>
      <point x="568" y="820"/>
      <point x="589" y="763"/>
      <point x="651" y="726"/>
      <point x="714" y="712" type="qcurve"/>
      <point x="709" y="687" type="line"/>
      <point x="714" y="662" type="line"/>
      <point x="651" y="648"/>
      <point x="589" y="612"/>
      <point x="568" y="555"/>
      <point x="561" y="418"/>
      <point x="561" y="333" type="qcurve" smooth="yes"/>
      <point x="561" y="254"/>
      <point x="564" y="84"/>
      <point x="564" y="8" type="qcurve" smooth="yes"/>
      <point x="564" y="-172"/>
      <point x="551" y="-207" type="qcurve"/>
      <point x="527" y="-266"/>
      <point x="394" y="-314"/>
      <point x="261" y="-335" type="qcurve"/>
    </contour>
  </outline>
</glyph>
<glyph name="asciitilde" format="1">
  <advance width="1084"/>
  <unicode hex="007E"/>
  <outline>
    <contour>
      <point x="993" y="949" type="qcurve"/>
      <point x="993" y="732" type="line"/>
      <point x="929" y="659"/>
      <point x="791" y="599"/>
      <point x="720" y="599" type="qcurve" smooth="yes"/>
      <point x="647" y="599"/>
      <point x="412" y="696"/>
      <point x="366" y="696" type="qcurve" smooth="yes"/>
      <point x="331" y="696"/>
      <point x="237" y="649"/>
      <point x="94" y="485" type="qcurve"/>
      <point x="94" y="702" type="line"/>
      <point x="159" y="776"/>
      <point x="297" y="837"/>
      <point x="366" y="837" type="qcurve" smooth="yes"/>
      <point x="444" y="837"/>
      <point x="679" y="738"/>
      <point x="720" y="738" type="qcurve" smooth="yes"/>
      <point x="756" y="738"/>
      <point x="850" y="785"/>
    </contour>
  </outline>
</glyph>
<glyph name="exclamdown" format="1">
  <advance width="745"/>
  <unicode hex="00A1"/>
  <outline>
    <contour>
      <point x="321" y="941" type="qcurve" smooth="yes"/>
      <point x="242" y="941"/>
      <point x="161" y="1021"/>
      <point x="161" y="1087" type="qcurve" smooth="yes"/>
      <point x="161" y="1150"/>
      <point x="243" y="1225"/>
      <point x="321" y="1225" type="qcurve" smooth="yes"/>
      <point x="403" y="1225"/>
      <point x="480" y="1151"/>
      <point x="480" y="1087" type="qcurve" smooth="yes"/>
      <point x="480" y="1021"/>
      <point x="404" y="941"/>
    </contour>
    <contour>
      <point x="483" y="-422" type="qcurve"/>
      <point x="165" y="-422" type="line"/>
      <point x="195" y="-168"/>
      <point x="209" y="143" type="qcurve" smooth="yes"/>
      <point x="215" y="283"/>
      <point x="215" y="410" type="qcurve" smooth="yes"/>
      <point x="215" y="565"/>
      <point x="206" y="701" type="qcurve"/>
      <point x="441" y="701" type="line"/>
      <point x="429" y="563"/>
      <point x="429" y="402" type="qcurve" smooth="yes"/>
      <point x="429" y="280"/>
      <point x="453" y="-170"/>
    </contour>
  </outline>
</glyph>
<glyph name="currency" format="1">
  <advance width="1064"/>
  <unicode hex="00A4"/>
  <outline>
    <contour>
      <point x="412" y="548" type="qcurve" smooth="yes"/>
      <point x="447" y="514"/>
      <point x="492" y="500" type="qcurve"/>
      <point x="512" y="495"/>
      <point x="532" y="495" type="qcurve" smooth="yes"/>
      <point x="552" y="495"/>
      <point x="572" y="500" type="qcurve"/>
      <point x="617" y="514"/>
      <point x="652" y="548" type="qcurve" smooth="yes"/>
      <point x="692" y="588"/>
      <point x="710" y="650" type="qcurve" smooth="yes"/>
      <point x="720" y="683"/>
      <point x="720" y="717" type="qcurve" smooth="yes"/>
      <point x="720" y="751"/>
      <point x="710" y="784" type="qcurve" smooth="yes"/>
      <point x="692" y="846"/>
      <point x="652" y="886" type="qcurve" smooth="yes"/>
      <point x="617" y="920"/>
      <point x="571" y="933" type="qcurve" smooth="yes"/>
      <point x="551" y="939"/>
      <point x="531" y="939" type="qcurve" smooth="yes"/>
      <point x="512" y="939"/>
      <point x="492" y="933" type="qcurve" smooth="yes"/>
      <point x="446" y="919"/>
      <point x="412" y="886" type="qcurve" smooth="yes"/>
      <point x="373" y="847"/>
      <point x="355" y="786" type="qcurve" smooth="yes"/>
      <point x="344" y="751"/>
      <point x="344" y="716" type="qcurve" smooth="yes"/>
      <point x="344" y="683"/>
      <point x="354" y="651" type="qcurve"/>
      <point x="371" y="589"/>
    </contour>
    <contour>
      <point x="238" y="905" type="qcurve"/>
      <point x="122" y="1021" type="line"/>
      <point x="227" y="1127" type="line"/>
      <point x="352" y="1002" type="line"/>
      <point x="362" y="1009"/>
      <point x="424" y="1027" type="qcurve"/>
      <point x="477" y="1044"/>
      <point x="533" y="1044" type="qcurve" smooth="yes"/>
      <point x="584" y="1044"/>
      <point x="635" y="1029" type="qcurve" smooth="yes"/>
      <point x="700" y="1010"/>
      <point x="711" y="1002" type="qcurve"/>
      <point x="836" y="1127" type="line"/>
      <point x="941" y="1021" type="line"/>
      <point x="826" y="907" type="line"/>
      <point x="867" y="846"/>
      <point x="883" y="793" type="qcurve" smooth="yes"/>
      <point x="894" y="755"/>
      <point x="894" y="717" type="qcurve" smooth="yes"/>
      <point x="894" y="680"/>
      <point x="883" y="641" type="qcurve" smooth="yes"/>
      <point x="867" y="588"/>
      <point x="826" y="527" type="qcurve"/>
      <point x="941" y="413" type="line"/>
      <point x="836" y="307" type="line"/>
      <point x="712" y="431" type="line"/>
      <point x="700" y="423"/>
      <point x="627" y="402" type="qcurve" smooth="yes"/>
      <point x="585" y="390"/>
      <point x="532" y="390" type="qcurve" smooth="yes"/>
      <point x="481" y="390"/>
      <point x="429" y="404" type="qcurve" smooth="yes"/>
      <point x="363" y="423"/>
      <point x="351" y="431" type="qcurve"/>
      <point x="227" y="307" type="line"/>
      <point x="122" y="413" type="line"/>
      <point x="238" y="528" type="line"/>
      <point x="196" y="588"/>
      <point x="181" y="642" type="qcurve" smooth="yes"/>
      <point x="170" y="680"/>
      <point x="170" y="717" type="qcurve" smooth="yes"/>
      <point x="170" y="756"/>
      <point x="182" y="795" type="qcurve" smooth="yes"/>
      <point x="197" y="847"/>
    </contour>
  </outline>
</glyph>
<glyph name="section" format="1">
  <advance width="1084"/>
  <unicode hex="00A7"/>
  <outline>
    <contour>
      <point x="587" y="326" type="qcurve"/>
      <point x="606" y="331"/>
      <point x="641" y="362" type="qcurve" smooth="yes"/>
      <point x="715" y="429"/>
      <point x="715" y="540" type="qcurve" smooth="yes"/>
      <point x="715" y="548"/>
      <point x="715" y="550" type="qcurve"/>
      <point x="712" y="550" type="line"/>
      <point x="711" y="569"/>
      <point x="707" y="586" type="qcurve"/>
      <point x="684" y="650"/>
      <point x="599" y="712" type="qcurve"/>
      <point x="556" y="733"/>
      <point x="504" y="733" type="qcurve" smooth="yes"/>
      <point x="450" y="733"/>
      <point x="367" y="654"/>
      <point x="367" y="571" type="qcurve" smooth="yes"/>
      <point x="367" y="438"/>
    </contour>
    <contour>
      <point x="501" y="-346" type="qcurve"/>
      <point x="590" y="-341"/>
      <point x="650" y="-288" type="qcurve" smooth="yes"/>
      <point x="723" y="-223"/>
      <point x="723" y="-112" type="qcurve" smooth="yes"/>
      <point x="723" y="23"/>
      <point x="414" y="170" type="qcurve"/>
      <point x="283" y="238"/>
      <point x="179" y="383"/>
      <point x="179" y="478" type="qcurve" smooth="yes"/>
      <point x="179" y="616"/>
      <point x="266" y="703" type="qcurve"/>
      <point x="342" y="776"/>
      <point x="460" y="796" type="qcurve"/>
      <point x="405" y="822" type="line"/>
      <point x="274" y="890"/>
      <point x="170" y="1035"/>
      <point x="170" y="1130" type="qcurve" smooth="yes"/>
      <point x="170" y="1268"/>
      <point x="257" y="1355" type="qcurve"/>
      <point x="350" y="1445"/>
      <point x="504" y="1453" type="qcurve" smooth="yes"/>
      <point x="514" y="1454"/>
      <point x="527" y="1454" type="qcurve" smooth="yes"/>
      <point x="530" y="1454" type="line" smooth="yes"/>
      <point x="602" y="1454"/>
      <point x="825" y="1416"/>
      <point x="825" y="1396" type="qcurve" smooth="yes"/>
      <point x="825" y="1202" type="line"/>
      <point x="704" y="1202" type="line"/>
      <point x="698" y="1294"/>
      <point x="626" y="1343" type="qcurve" smooth="yes"/>
      <point x="568" y="1382"/>
      <point x="508" y="1385" type="qcurve"/>
      <point x="495" y="1385" type="line" smooth="yes"/>
      <point x="441" y="1385"/>
      <point x="358" y="1306"/>
      <point x="358" y="1223" type="qcurve" smooth="yes"/>
      <point x="358" y="1081"/>
      <point x="637" y="948" type="qcurve"/>
      <point x="794" y="878"/>
      <point x="905" y="725"/>
      <point x="905" y="623" type="qcurve" smooth="yes"/>
      <point x="905" y="462"/>
      <point x="806" y="353" type="qcurve"/>
      <point x="754" y="310"/>
      <point x="686" y="277" type="qcurve"/>
      <point x="814" y="211"/>
      <point x="862" y="146" type="qcurve"/>
      <point x="914" y="73"/>
      <point x="914" y="-28" type="qcurve" smooth="yes"/>
      <point x="914" y="-189"/>
      <point x="815" y="-299" type="qcurve"/>
      <point x="677" y="-413"/>
      <point x="466" y="-417" type="qcurve"/>
      <point x="466" y="-422" type="line"/>
      <point x="501" y="-416"/>
      <point x="488" y="-416" type="qcurve" smooth="yes"/>
      <point x="485" y="-416" type="line" smooth="yes"/>
      <point x="413" y="-416"/>
      <point x="190" y="-378"/>
      <point x="190" y="-358" type="qcurve" smooth="yes"/>
      <point x="190" y="-164" type="line"/>
      <point x="311" y="-164" type="line"/>
      <point x="317" y="-256"/>
      <point x="389" y="-305" type="qcurve" smooth="yes"/>
      <point x="445" y="-342"/>
    </contour>
  </outline>
</glyph>
<glyph name="dieresis" format="1">
  <advance width="1252"/>
  <unicode hex="00A8"/>
  <outline>
    <contour>
      <point x="377" y="1323" type="qcurve" smooth="yes"/>
      <point x="304" y="1323"/>
      <point x="230" y="1394"/>
      <point x="230" y="1452" type="qcurve" smooth="yes"/>
      <point x="230" y="1506"/>
      <point x="305" y="1573"/>
      <point x="377" y="1573" type="qcurve" smooth="yes"/>
      <point x="452" y="1573"/>
      <point x="522" y="1507"/>
      <point x="522" y="1452" type="qcurve" smooth="yes"/>
      <point x="522" y="1394"/>
      <point x="452" y="1323"/>
    </contour>
    <contour>
      <point x="813" y="1323" type="qcurve" smooth="yes"/>
      <point x="738" y="1323"/>
      <point x="668" y="1394"/>
      <point x="668" y="1452" type="qcurve" smooth="yes"/>
      <point x="668" y="1507"/>
      <point x="738" y="1573"/>
      <point x="813" y="1573" type="qcurve" smooth="yes"/>
      <point x="885" y="1573"/>
      <point x="960" y="1506"/>
      <point x="960" y="1452" type="qcurve" smooth="yes"/>
      <point x="960" y="1394"/>
      <point x="886" y="1323"/>
    </contour>
  </outline>
</glyph>
<glyph name="copyright" format="1">
  <advance width="1744"/>
  <unicode hex="00A9"/>
  <outline>
    <contour>
      <point x="872" y="42" type="qcurve" smooth="yes"/>
      <point x="1127" y="42"/>
      <point x="1514" y="429"/>
      <point x="1514" y="719" type="qcurve" smooth="yes"/>
      <point x="1514" y="1009"/>
      <point x="1127" y="1396"/>
      <point x="872" y="1396" type="qcurve" smooth="yes"/>
      <point x="617" y="1396"/>
      <point x="230" y="1009"/>
      <point x="230" y="719" type="qcurve" smooth="yes"/>
      <point x="230" y="429"/>
      <point x="617" y="42"/>
    </contour>
    <contour>
      <point x="872" y="-18" type="qcurve" smooth="yes"/>
      <point x="542" y="-18"/>
      <point x="100" y="424"/>
      <point x="100" y="719" type="qcurve" smooth="yes"/>
      <point x="100" y="1014"/>
      <point x="542" y="1456"/>
      <point x="872" y="1456" type="qcurve" smooth="yes"/>
      <point x="1202" y="1456"/>
      <point x="1644" y="1014"/>
      <point x="1644" y="719" type="qcurve" smooth="yes"/>
      <point x="1644" y="424"/>
      <point x="1202" y="-18"/>
    </contour>
    <contour>
      <point x="899" y="258" type="qcurve" smooth="yes"/>
      <point x="697" y="258"/>
      <point x="477" y="492"/>
      <point x="477" y="726" type="qcurve" smooth="yes"/>
      <point x="477" y="1186"/>
      <point x="889" y="1188" type="qcurve"/>
      <point x="969" y="1188"/>
      <point x="1148" y="1146"/>
      <point x="1209" y="1091" type="qcurve"/>
      <point x="1209" y="880" type="line"/>
      <point x="1096" y="893" type="line"/>
      <point x="1073" y="898"/>
      <point x="1063" y="904" type="qcurve"/>
      <point x="1062" y="904"/>
      <point x="1062" y="901" type="qcurve"/>
      <point x="1074" y="901"/>
      <point x="1074" y="913" type="qcurve" smooth="yes"/>
      <point x="1074" y="935"/>
      <point x="1040" y="999" type="qcurve" smooth="yes"/>
      <point x="1032" y="1013"/>
      <point x="1029" y="1021" type="qcurve" smooth="yes"/>
      <point x="1016" y="1063"/>
      <point x="991" y="1077" type="qcurve"/>
      <point x="947" y="1099"/>
      <point x="889" y="1099" type="qcurve" smooth="yes"/>
      <point x="791" y="1099"/>
      <point x="675" y="918"/>
      <point x="675" y="726" type="qcurve" smooth="yes"/>
      <point x="675" y="534"/>
      <point x="796" y="346"/>
      <point x="899" y="346" type="qcurve" smooth="yes"/>
      <point x="938" y="346"/>
      <point x="968" y="350" type="qcurve" smooth="yes"/>
      <point x="1003" y="354"/>
      <point x="1030" y="377" type="qcurve" smooth="yes"/>
      <point x="1038" y="383"/>
      <point x="1050" y="417" type="qcurve" smooth="yes"/>
      <point x="1073" y="484" type="line"/>
      <point x="1074" y="485" type="line"/>
      <point x="1076" y="496"/>
      <point x="1086" y="500" type="qcurve" smooth="yes"/>
      <point x="1090" y="502"/>
      <point x="1211" y="517" type="qcurve"/>
      <point x="1214" y="517" type="line"/>
      <point x="1216" y="361" type="line"/>
      <point x="1164" y="305"/>
      <point x="982" y="258"/>
    </contour>
  </outline>
</glyph>
<glyph name="guillemotleft" format="1">
  <advance width="1007"/>
  <unicode hex="00AB"/>
  <outline>
    <contour>
      <point x="570" y="206" type="line"/>
      <point x="388" y="206" type="line"/>
      <point x="120" y="501" type="line" smooth="yes"/>
      <point x="100" y="523"/>
      <point x="100" y="542" type="qcurve" smooth="yes"/>
      <point x="100" y="559"/>
      <point x="121" y="580" type="qcurve"/>
      <point x="391" y="879" type="line"/>
      <point x="566" y="879" type="line"/>
      <point x="333" y="545" type="line"/>
    </contour>
    <contour>
      <point x="912" y="206" type="line"/>
      <point x="730" y="206" type="line"/>
      <point x="461" y="501" type="line" smooth="yes"/>
      <point x="441" y="523"/>
      <point x="441" y="541" type="qcurve" smooth="yes"/>
      <point x="441" y="558"/>
      <point x="462" y="580" type="qcurve"/>
      <point x="732" y="879" type="line"/>
      <point x="907" y="879" type="line"/>
      <point x="674" y="545" type="line"/>
    </contour>
  </outline>
</glyph>
<glyph name="logicalnot" format="1">
  <advance width="1087"/>
  <unicode hex="00AC"/>
  <outline>
    <contour>
      <point x="90" y="807" type="line"/>
      <point x="1000" y="807" type="line"/>
      <point x="1000" y="286" type="line"/>
      <point x="989" y="275" type="line"/>
      <point x="781" y="275" type="line"/>
      <point x="781" y="617" type="line"/>
      <point x="90" y="617" type="line"/>
    </contour>
  </outline>
</glyph>
